{"glyphs":{"0":{"ha":806,"x_min":85,"x_max":721,"o":"m 401 -14 q 302 -10 340 -14 q 221 7 264 -6 q 148 44 175 19 q 103 113 121 68 q 85 217 85 154 l 85 672 q 103 782 85 735 q 150 857 121 829 q 220 895 176 881 q 308 914 264 910 q 401 917 358 917 q 501 913 463 917 q 582 896 539 908 q 656 857 628 882 q 703 786 685 832 q 721 674 721 740 l 721 217 q 703 115 721 160 q 656 46 685 71 q 585 8 628 22 q 497 -10 542 -7 q 401 -14 458 -14 m 404 68 q 518 78 478 68 q 576 119 558 89 q 594 210 594 150 l 594 682 q 576 780 594 747 q 517 824 557 813 q 403 835 478 835 q 287 824 326 835 q 229 780 247 813 q 211 682 211 747 l 211 210 q 230 119 211 150 q 289 78 249 89 q 404 68 329 68 z "},"1":{"ha":806,"x_min":169,"x_max":564,"o":"m 443 0 l 443 776 l 169 597 l 169 711 l 444 901 l 564 901 l 564 0 l 443 0 z "},"2":{"ha":806,"x_min":100,"x_max":706,"o":"m 100 161 q 113 234 100 200 q 147 292 126 268 q 198 334 164 311 q 263 372 232 357 q 332 404 289 386 l 482 471 q 571 592 571 510 l 571 715 q 532 801 571 779 q 396 822 493 822 q 132 793 300 822 l 132 890 q 422 917 272 917 q 639 872 572 917 q 706 721 706 826 l 706 574 q 689 491 706 524 q 635 433 672 458 q 528 375 599 407 l 319 279 q 228 157 228 238 l 228 97 l 706 97 l 706 0 l 100 0 l 100 161 z "},"3":{"ha":806,"x_min":107,"x_max":699,"o":"m 369 -14 q 107 13 253 -14 l 107 113 q 383 78 272 78 q 568 182 568 78 l 568 336 q 507 411 568 393 q 455 420 478 418 q 396 422 432 422 l 222 422 l 222 508 l 372 508 q 431 510 408 508 q 482 521 453 513 q 529 547 513 528 q 546 597 546 567 l 546 758 q 379 829 546 829 q 125 807 268 829 l 125 903 q 378 915 244 915 q 602 881 532 915 q 672 765 672 847 l 672 592 q 638 520 672 549 q 549 483 603 492 l 549 478 q 603 466 582 472 q 650 447 625 460 q 699 360 699 422 l 699 179 q 678 94 699 132 q 625 36 657 57 q 551 5 597 17 q 461 -11 506 -7 q 369 -14 408 -14 z "},"4":{"ha":806,"x_min":72,"x_max":733,"o":"m 521 0 l 521 197 l 72 197 l 72 307 l 481 901 l 636 901 l 636 293 l 733 293 l 733 197 l 636 197 l 636 0 l 521 0 m 183 293 l 521 293 l 521 792 l 183 293 z "},"5":{"ha":806,"x_min":121,"x_max":685,"o":"m 386 -14 q 121 11 274 -14 l 121 111 q 390 78 282 78 q 515 102 475 78 q 554 182 554 126 l 554 361 q 504 436 554 419 q 460 445 481 443 q 408 447 440 447 l 142 447 l 142 901 l 661 901 l 661 807 l 267 807 l 267 533 l 475 533 q 574 520 531 533 q 650 475 617 507 q 685 385 685 440 l 685 179 q 667 94 685 131 q 621 36 650 57 q 553 4 594 17 q 472 -11 513 -8 q 386 -14 422 -14 z "},"6":{"ha":806,"x_min":99,"x_max":707,"o":"m 401 -14 q 303 -10 340 -14 q 225 7 265 -6 q 157 44 182 19 q 115 113 132 68 q 99 217 99 157 l 99 672 q 119 782 99 735 q 171 857 139 829 q 246 895 199 881 q 340 914 293 910 q 436 917 393 917 q 664 904 521 917 l 664 810 q 418 828 521 828 q 300 817 340 828 q 241 773 260 806 q 222 675 222 740 l 222 533 l 426 533 q 531 531 496 533 q 604 519 565 528 q 662 492 643 511 q 694 436 681 472 q 707 349 707 401 l 707 217 q 613 22 707 67 q 521 -6 567 1 q 401 -14 475 -14 m 404 68 q 515 78 478 68 q 567 119 551 89 q 583 210 583 149 l 583 344 q 569 413 583 390 q 518 444 556 436 q 403 453 481 453 l 222 453 l 222 210 q 239 119 222 149 q 293 78 256 89 q 404 68 331 68 z "},"7":{"ha":806,"x_min":86,"x_max":719,"o":"m 242 0 l 603 811 l 86 811 l 86 901 l 719 901 l 719 811 l 375 0 l 242 0 z "},"8":{"ha":806,"x_min":82,"x_max":722,"o":"m 401 -14 q 157 27 232 -14 q 82 163 82 68 l 82 331 q 124 422 82 385 q 238 475 167 458 l 238 481 q 144 525 175 494 q 113 610 113 556 l 113 750 q 125 817 113 789 q 167 869 138 844 q 401 917 226 917 q 636 869 576 917 q 678 817 665 844 q 690 750 690 789 l 690 610 q 660 525 690 556 q 567 481 629 494 l 567 475 q 680 422 638 458 q 722 331 722 385 l 722 165 q 648 27 722 68 q 401 -14 574 -14 m 401 506 q 528 525 493 506 q 564 597 564 544 l 564 743 q 526 815 564 794 q 401 836 489 836 q 276 815 314 836 q 239 743 239 794 l 239 597 q 274 525 239 544 q 401 506 310 506 m 401 67 q 544 88 503 67 q 586 158 586 108 l 586 326 q 526 415 586 397 q 472 426 497 424 q 401 428 447 428 q 332 426 356 428 q 278 415 308 424 q 217 326 217 397 l 217 158 q 258 88 217 108 q 401 67 300 67 z "},"9":{"ha":806,"x_min":99,"x_max":707,"o":"m 376 -14 q 142 1 264 -14 l 142 94 q 372 71 275 71 q 499 87 454 71 q 564 142 544 103 q 583 250 583 181 l 583 368 l 379 368 q 275 371 310 368 q 201 382 240 374 q 144 410 163 390 q 111 465 125 429 q 99 553 99 501 l 99 686 q 193 881 99 836 q 285 909 239 901 q 404 917 331 917 q 503 913 465 917 q 581 897 540 910 q 649 859 624 883 q 690 792 674 835 q 707 686 707 749 l 707 231 q 629 42 707 99 q 376 -14 551 -14 m 583 449 l 583 693 q 567 784 583 754 q 513 824 550 814 q 401 835 475 835 q 291 824 328 835 q 238 784 254 814 q 222 693 222 754 l 222 557 q 236 488 222 511 q 288 457 250 465 q 403 449 325 449 l 583 449 z "},"\u0000":{"ha":0,"x_min":0,"x_max":0,"o":""},"\r":{"ha":319,"x_min":0,"x_max":0,"o":""}," ":{"ha":319,"x_min":0,"x_max":0,"o":""},"A":{"ha":906,"x_min":21,"x_max":885,"o":"m 21 0 l 379 901 l 535 901 l 885 0 l 744 0 l 642 274 l 256 274 l 154 0 l 21 0 m 290 367 l 608 367 l 456 774 l 443 774 l 290 367 z "},"Á":{"ha":906,"x_min":21,"x_max":885,"o":"m 21 0 l 379 901 l 535 901 l 885 0 l 744 0 l 642 274 l 256 274 l 154 0 l 21 0 m 290 367 l 608 367 l 456 774 l 443 774 l 290 367 m 383 993 l 508 1169 l 660 1169 l 486 993 l 383 993 z "},"Ă":{"ha":906,"x_min":21,"x_max":885,"o":"m 21 0 l 379 901 l 535 901 l 885 0 l 744 0 l 642 274 l 256 274 l 154 0 l 21 0 m 290 367 l 608 367 l 456 774 l 443 774 l 290 367 m 453 992 q 336 1039 379 992 q 289 1168 293 1086 l 339 1168 q 382 1095 357 1117 q 453 1074 407 1074 q 524 1096 499 1074 q 565 1168 550 1118 l 617 1168 q 568 1039 611 1086 q 453 992 525 992 z "},"Ắ":{"ha":906,"x_min":21,"x_max":885,"o":"m 21 0 l 379 901 l 535 901 l 885 0 l 744 0 l 642 274 l 256 274 l 154 0 l 21 0 m 290 367 l 608 367 l 456 774 l 443 774 l 290 367 m 453 997 q 335 1045 379 997 q 289 1174 292 1093 l 364 1174 q 453 1079 372 1079 q 542 1174 533 1079 l 617 1174 q 571 1046 615 1094 q 453 997 526 997 m 403 1206 l 458 1339 l 610 1339 l 506 1206 l 403 1206 z "},"Ặ":{"ha":906,"x_min":21,"x_max":885,"o":"m 21 0 l 379 901 l 535 901 l 885 0 l 744 0 l 642 274 l 256 274 l 154 0 l 21 0 m 290 367 l 608 367 l 456 774 l 443 774 l 290 367 m 386 -210 l 386 -86 l 518 -86 l 518 -210 l 386 -210 m 453 992 q 336 1039 379 992 q 289 1168 293 1086 l 339 1168 q 382 1095 357 1117 q 453 1074 407 1074 q 524 1096 499 1074 q 565 1168 550 1118 l 617 1168 q 568 1039 611 1086 q 453 992 525 992 z "},"Ằ":{"ha":906,"x_min":21,"x_max":885,"o":"m 21 0 l 379 901 l 535 901 l 885 0 l 744 0 l 642 274 l 256 274 l 154 0 l 21 0 m 290 367 l 608 367 l 456 774 l 443 774 l 290 367 m 453 997 q 335 1045 379 997 q 289 1174 292 1093 l 364 1174 q 453 1079 372 1079 q 542 1174 533 1079 l 617 1174 q 571 1046 615 1094 q 453 997 526 997 m 411 1203 l 319 1336 l 471 1336 l 514 1203 l 411 1203 z "},"Ẳ":{"ha":906,"x_min":21,"x_max":885,"o":"m 21 0 l 379 901 l 535 901 l 885 0 l 744 0 l 642 274 l 256 274 l 154 0 l 21 0 m 290 367 l 608 367 l 456 774 l 443 774 l 290 367 m 453 997 q 335 1045 379 997 q 289 1174 292 1093 l 364 1174 q 453 1079 372 1079 q 542 1174 533 1079 l 617 1174 q 571 1046 615 1094 q 453 997 526 997 m 413 1208 q 419 1239 413 1229 q 440 1260 426 1249 q 464 1286 458 1272 q 469 1324 469 1300 q 456 1353 469 1346 q 408 1361 442 1361 q 373 1357 389 1361 q 353 1351 357 1353 l 353 1428 q 380 1435 367 1433 q 418 1438 393 1438 q 519 1408 486 1438 q 551 1328 551 1378 q 544 1281 551 1304 q 525 1249 538 1258 q 497 1224 506 1233 q 489 1196 489 1214 l 413 1196 l 413 1208 z "},"Ẵ":{"ha":906,"x_min":21,"x_max":885,"o":"m 21 0 l 379 901 l 535 901 l 885 0 l 744 0 l 642 274 l 256 274 l 154 0 l 21 0 m 290 367 l 608 367 l 456 774 l 443 774 l 290 367 m 453 997 q 335 1045 379 997 q 289 1174 292 1093 l 364 1174 q 453 1079 372 1079 q 542 1174 533 1079 l 617 1174 q 571 1046 615 1094 q 453 997 526 997 m 276 1246 q 315 1312 286 1283 q 390 1340 344 1340 q 476 1319 422 1340 q 551 1299 528 1299 q 590 1310 572 1299 q 617 1343 608 1321 l 660 1318 q 617 1249 649 1279 q 539 1218 585 1218 q 449 1242 507 1218 q 378 1264 394 1264 q 319 1218 338 1264 l 276 1246 z "},"Â":{"ha":906,"x_min":21,"x_max":885,"o":"m 21 0 l 379 901 l 535 901 l 885 0 l 744 0 l 642 274 l 256 274 l 154 0 l 21 0 m 290 367 l 608 367 l 456 774 l 443 774 l 290 367 m 285 979 l 379 1156 l 528 1156 l 619 979 l 539 979 l 453 1100 l 365 979 l 285 979 z "},"Ấ":{"ha":906,"x_min":21,"x_max":885,"o":"m 21 0 l 379 901 l 535 901 l 885 0 l 744 0 l 642 274 l 256 274 l 154 0 l 21 0 m 290 367 l 608 367 l 456 774 l 443 774 l 290 367 m 285 997 l 379 1174 l 528 1174 l 619 997 l 539 997 l 453 1118 l 365 997 l 285 997 m 597 1099 l 653 1232 l 804 1232 l 700 1099 l 597 1099 z "},"Ậ":{"ha":906,"x_min":21,"x_max":885,"o":"m 21 0 l 379 901 l 535 901 l 885 0 l 744 0 l 642 274 l 256 274 l 154 0 l 21 0 m 290 367 l 608 367 l 456 774 l 443 774 l 290 367 m 386 -210 l 386 -86 l 518 -86 l 518 -210 l 386 -210 m 285 979 l 379 1156 l 528 1156 l 619 979 l 539 979 l 453 1100 l 365 979 l 285 979 z "},"Ầ":{"ha":906,"x_min":21,"x_max":885,"o":"m 21 0 l 379 901 l 535 901 l 885 0 l 744 0 l 642 274 l 256 274 l 154 0 l 21 0 m 290 367 l 608 367 l 456 774 l 443 774 l 290 367 m 285 997 l 379 1174 l 528 1174 l 619 997 l 539 997 l 453 1118 l 365 997 l 285 997 m 642 1126 l 550 1260 l 701 1260 l 744 1126 l 642 1126 z "},"Ẩ":{"ha":906,"x_min":21,"x_max":885,"o":"m 21 0 l 379 901 l 535 901 l 885 0 l 744 0 l 642 274 l 256 274 l 154 0 l 21 0 m 290 367 l 608 367 l 456 774 l 443 774 l 290 367 m 285 997 l 379 1174 l 528 1174 l 619 997 l 539 997 l 453 1118 l 365 997 l 285 997 m 617 1114 q 624 1144 617 1135 q 644 1165 631 1154 q 668 1192 663 1178 q 674 1229 674 1206 q 660 1259 674 1251 q 613 1267 646 1267 q 577 1263 593 1267 q 557 1257 561 1258 l 557 1333 q 584 1341 571 1339 q 622 1343 597 1343 q 723 1313 690 1343 q 756 1233 756 1283 q 749 1187 756 1210 q 729 1154 742 1164 q 701 1129 710 1139 q 693 1101 693 1119 l 617 1101 l 617 1114 z "},"Ẫ":{"ha":906,"x_min":21,"x_max":885,"o":"m 21 0 l 379 901 l 535 901 l 885 0 l 744 0 l 642 274 l 256 274 l 154 0 l 21 0 m 290 367 l 608 367 l 456 774 l 443 774 l 290 367 m 285 997 l 379 1174 l 528 1174 l 619 997 l 539 997 l 453 1118 l 365 997 l 285 997 m 263 1235 q 301 1301 272 1272 q 376 1329 331 1329 q 463 1308 408 1329 q 538 1288 514 1288 q 576 1299 558 1288 q 603 1332 594 1310 l 646 1307 q 603 1238 635 1268 q 525 1207 571 1207 q 435 1231 493 1207 q 364 1253 381 1253 q 306 1207 324 1253 l 263 1235 z "},"Ä":{"ha":906,"x_min":21,"x_max":885,"o":"m 264 993 l 264 1124 l 389 1124 l 389 993 l 264 993 m 500 993 l 500 1124 l 625 1124 l 625 993 l 500 993 m 21 0 l 379 901 l 535 901 l 885 0 l 744 0 l 642 274 l 256 274 l 154 0 l 21 0 m 290 367 l 608 367 l 456 774 l 443 774 l 290 367 z "},"Ạ":{"ha":906,"x_min":21,"x_max":885,"o":"m 21 0 l 379 901 l 535 901 l 885 0 l 744 0 l 642 274 l 256 274 l 154 0 l 21 0 m 290 367 l 608 367 l 456 774 l 443 774 l 290 367 m 386 -210 l 386 -86 l 518 -86 l 518 -210 l 386 -210 z "},"À":{"ha":906,"x_min":21,"x_max":885,"o":"m 21 0 l 379 901 l 535 901 l 885 0 l 744 0 l 642 274 l 256 274 l 154 0 l 21 0 m 290 367 l 608 367 l 456 774 l 443 774 l 290 367 m 399 989 l 225 1165 l 376 1165 l 501 989 l 399 989 z "},"Ả":{"ha":906,"x_min":21,"x_max":885,"o":"m 21 0 l 379 901 l 535 901 l 885 0 l 744 0 l 642 274 l 256 274 l 154 0 l 21 0 m 290 367 l 608 367 l 456 774 l 443 774 l 290 367 m 413 1036 q 419 1067 413 1057 q 440 1088 426 1076 q 464 1114 458 1100 q 469 1151 469 1128 q 456 1181 469 1174 q 408 1189 442 1189 q 373 1185 389 1189 q 353 1179 357 1181 l 353 1256 q 380 1263 367 1261 q 418 1265 393 1265 q 519 1235 486 1265 q 551 1156 551 1206 q 544 1109 551 1132 q 525 1076 538 1086 q 497 1051 506 1061 q 489 1024 489 1042 l 413 1024 l 413 1036 z "},"Ā":{"ha":906,"x_min":21,"x_max":885,"o":"m 299 1026 l 299 1108 l 601 1108 l 601 1026 l 299 1026 m 21 0 l 379 901 l 535 901 l 885 0 l 744 0 l 642 274 l 256 274 l 154 0 l 21 0 m 290 367 l 608 367 l 456 774 l 443 774 l 290 367 z "},"Ą":{"ha":906,"x_min":21,"x_max":922,"o":"m 853 -258 q 749 -232 782 -258 q 715 -147 715 -206 q 744 0 715 -90 l 642 274 l 256 274 l 154 0 l 21 0 l 379 901 l 535 901 l 885 0 q 825 -135 825 -72 q 879 -181 825 -181 q 922 -171 893 -181 l 922 -244 q 853 -258 894 -258 m 290 367 l 608 367 l 456 774 l 443 774 l 290 367 z "},"Å":{"ha":906,"x_min":21,"x_max":885,"o":"m 336 778 q 257 897 257 801 l 257 915 q 293 1025 257 989 q 335 1047 307 1039 q 389 1057 363 1056 q 453 1058 404 1058 q 522 1057 500 1058 q 569 1049 543 1056 q 613 1026 597 1040 q 639 983 628 1011 q 649 915 649 958 l 649 897 q 576 779 649 808 l 885 0 l 744 0 l 642 275 l 257 275 l 154 0 l 21 0 l 336 778 m 453 828 q 512 831 494 828 q 542 849 529 835 q 556 893 556 863 l 556 913 q 534 971 556 957 q 453 985 513 985 q 372 971 393 985 q 350 913 350 957 l 350 893 q 372 840 350 853 q 453 828 394 828 m 290 367 l 608 367 l 461 757 l 438 757 l 290 367 z "},"Ã":{"ha":906,"x_min":21,"x_max":885,"o":"m 21 0 l 379 901 l 535 901 l 885 0 l 744 0 l 642 274 l 256 274 l 154 0 l 21 0 m 290 367 l 608 367 l 456 774 l 443 774 l 290 367 m 232 999 q 273 1092 233 1063 q 371 1122 313 1122 q 431 1113 399 1122 q 468 1103 463 1104 q 533 1088 514 1088 q 579 1133 579 1088 l 669 1132 q 633 1028 668 1058 q 533 999 597 999 q 501 1005 521 999 q 460 1018 481 1011 q 412 1032 436 1025 q 371 1039 388 1039 q 321 999 322 1039 l 232 999 z "},"Æ":{"ha":1282,"x_min":0,"x_max":1213,"o":"m 0 0 l 497 901 l 1199 901 l 1199 807 l 769 807 l 769 513 l 1153 513 l 1153 418 l 769 418 l 769 94 l 1213 94 l 1213 0 l 635 0 l 635 274 l 293 274 l 151 0 l 0 0 m 340 367 l 635 367 l 635 807 l 568 807 l 340 367 z "},"B":{"ha":851,"x_min":117,"x_max":768,"o":"m 117 901 l 439 901 q 622 878 554 901 q 706 822 685 856 q 728 731 728 789 l 728 610 q 697 526 728 556 q 604 482 667 496 l 604 476 q 723 426 678 464 q 768 331 768 388 l 768 179 q 694 40 768 81 q 449 0 621 0 l 117 0 l 117 901 m 443 507 q 565 533 528 507 q 601 614 601 558 l 601 719 q 564 792 601 771 q 439 813 526 813 l 251 813 l 251 507 l 443 507 m 449 93 q 592 114 550 93 q 633 185 633 135 l 633 321 q 619 378 633 357 q 574 410 604 400 q 519 420 543 418 q 449 422 496 422 l 251 422 l 251 93 l 449 93 z "},"C":{"ha":783,"x_min":89,"x_max":721,"o":"m 468 -14 q 89 231 89 -14 l 89 658 q 468 917 89 917 q 715 890 597 917 l 715 790 q 471 824 582 824 q 376 817 417 824 q 299 796 336 811 q 218 660 218 761 l 218 238 q 476 82 218 82 q 721 115 588 82 l 721 13 q 468 -14 603 -14 z "},"Ć":{"ha":783,"x_min":89,"x_max":721,"o":"m 368 976 l 493 1153 l 644 1153 l 471 976 l 368 976 m 468 -14 q 89 231 89 -14 l 89 658 q 468 917 89 917 q 715 890 597 917 l 715 790 q 471 824 582 824 q 376 817 417 824 q 299 796 336 811 q 218 660 218 761 l 218 238 q 476 82 218 82 q 721 115 588 82 l 721 13 q 468 -14 603 -14 z "},"Č":{"ha":783,"x_min":89,"x_max":721,"o":"m 349 976 l 254 1153 l 335 1153 l 422 1032 l 508 1153 l 589 1153 l 497 976 l 349 976 m 468 -14 q 89 231 89 -14 l 89 658 q 468 917 89 917 q 715 890 597 917 l 715 790 q 471 824 582 824 q 376 817 417 824 q 299 796 336 811 q 218 660 218 761 l 218 238 q 476 82 218 82 q 721 115 588 82 l 721 13 q 468 -14 603 -14 z "},"Ç":{"ha":783,"x_min":89,"x_max":721,"o":"m 442 -306 q 329 -279 372 -306 l 358 -217 q 439 -240 401 -240 q 504 -185 504 -240 q 474 -143 504 -158 q 396 -128 443 -128 l 350 -128 q 413 -12 379 -79 q 89 231 89 7 l 89 658 q 468 917 89 917 q 715 890 597 917 l 715 790 q 471 824 582 824 q 376 817 417 824 q 299 796 336 811 q 218 660 218 761 l 218 238 q 476 82 218 82 q 721 115 588 82 l 721 13 q 499 -14 606 -12 l 469 -72 q 561 -102 524 -74 q 599 -181 599 -131 q 553 -272 599 -239 q 442 -306 508 -306 z "},"Ĉ":{"ha":783,"x_min":89,"x_max":721,"o":"m 293 976 l 388 1153 l 536 1153 l 628 976 l 547 976 l 461 1097 l 374 976 l 293 976 m 468 -14 q 89 231 89 -14 l 89 658 q 468 917 89 917 q 715 890 597 917 l 715 790 q 471 824 582 824 q 376 817 417 824 q 299 796 336 811 q 218 660 218 761 l 218 238 q 476 82 218 82 q 721 115 588 82 l 721 13 q 468 -14 603 -14 z "},"Ċ":{"ha":783,"x_min":89,"x_max":721,"o":"m 403 1017 l 403 1153 l 528 1153 l 528 1017 l 403 1017 m 468 -14 q 89 231 89 -14 l 89 658 q 468 917 89 917 q 715 890 597 917 l 715 790 q 471 824 582 824 q 376 817 417 824 q 299 796 336 811 q 218 660 218 761 l 218 238 q 476 82 218 82 q 721 115 588 82 l 721 13 q 468 -14 603 -14 z "},"D":{"ha":943,"x_min":117,"x_max":854,"o":"m 117 901 l 475 901 q 854 643 854 901 l 854 244 q 476 0 854 0 l 117 0 l 117 901 m 467 92 q 725 247 725 92 l 725 644 q 704 729 725 694 q 646 781 683 764 q 568 802 608 796 q 474 808 528 808 l 251 808 l 251 92 l 467 92 z "},"Ð":{"ha":943,"x_min":28,"x_max":854,"o":"m 117 418 l 28 418 l 28 513 l 117 513 l 117 901 l 475 901 q 854 643 854 901 l 854 244 q 476 0 854 0 l 117 0 l 117 418 m 467 92 q 725 247 725 92 l 725 644 q 704 729 725 694 q 646 781 683 764 q 568 802 608 796 q 474 808 528 808 l 251 808 l 251 513 l 399 513 l 399 418 l 251 418 l 251 92 l 467 92 z "},"Ď":{"ha":943,"x_min":117,"x_max":854,"o":"m 399 997 l 304 1174 l 385 1174 l 472 1053 l 558 1174 l 639 1174 l 547 997 l 399 997 m 117 901 l 475 901 q 854 643 854 901 l 854 244 q 476 0 854 0 l 117 0 l 117 901 m 467 92 q 725 247 725 92 l 725 644 q 704 729 725 694 q 646 781 683 764 q 568 802 608 796 q 474 808 528 808 l 251 808 l 251 92 l 467 92 z "},"Đ":{"ha":943,"x_min":28,"x_max":854,"o":"m 117 418 l 28 418 l 28 513 l 117 513 l 117 901 l 475 901 q 854 643 854 901 l 854 244 q 476 0 854 0 l 117 0 l 117 418 m 467 92 q 725 247 725 92 l 725 644 q 704 729 725 694 q 646 781 683 764 q 568 802 608 796 q 474 808 528 808 l 251 808 l 251 513 l 399 513 l 399 418 l 251 418 l 251 92 l 467 92 z "},"E":{"ha":806,"x_min":117,"x_max":736,"o":"m 117 0 l 117 901 l 722 901 l 722 807 l 251 807 l 251 513 l 676 513 l 676 418 l 251 418 l 251 94 l 736 94 l 736 0 l 117 0 z "},"É":{"ha":806,"x_min":117,"x_max":736,"o":"m 117 0 l 117 901 l 722 901 l 722 807 l 251 807 l 251 513 l 676 513 l 676 418 l 251 418 l 251 94 l 736 94 l 736 0 l 117 0 m 333 993 l 458 1169 l 610 1169 l 436 993 l 333 993 z "},"Ĕ":{"ha":806,"x_min":117,"x_max":736,"o":"m 424 976 q 307 1024 350 976 q 260 1153 264 1071 l 310 1153 q 353 1080 328 1101 q 424 1058 378 1058 q 495 1081 469 1058 q 536 1153 521 1103 l 588 1153 q 539 1024 582 1071 q 424 976 496 976 m 117 0 l 117 901 l 722 901 l 722 807 l 251 807 l 251 513 l 676 513 l 676 418 l 251 418 l 251 94 l 736 94 l 736 0 l 117 0 z "},"Ě":{"ha":806,"x_min":117,"x_max":736,"o":"m 346 976 l 251 1153 l 332 1153 l 419 1032 l 506 1153 l 586 1153 l 494 976 l 346 976 m 117 0 l 117 901 l 722 901 l 722 807 l 251 807 l 251 513 l 676 513 l 676 418 l 251 418 l 251 94 l 736 94 l 736 0 l 117 0 z "},"Ê":{"ha":806,"x_min":117,"x_max":736,"o":"m 117 0 l 117 901 l 722 901 l 722 807 l 251 807 l 251 513 l 676 513 l 676 418 l 251 418 l 251 94 l 736 94 l 736 0 l 117 0 m 235 979 l 329 1156 l 478 1156 l 569 979 l 489 979 l 403 1100 l 315 979 l 235 979 z "},"Ế":{"ha":806,"x_min":117,"x_max":754,"o":"m 117 0 l 117 901 l 722 901 l 722 807 l 251 807 l 251 513 l 676 513 l 676 418 l 251 418 l 251 94 l 736 94 l 736 0 l 117 0 m 235 997 l 329 1174 l 478 1174 l 569 997 l 489 997 l 403 1118 l 315 997 l 235 997 m 547 1099 l 603 1232 l 754 1232 l 650 1099 l 547 1099 z "},"Ệ":{"ha":806,"x_min":117,"x_max":736,"o":"m 117 0 l 117 901 l 722 901 l 722 807 l 251 807 l 251 513 l 676 513 l 676 418 l 251 418 l 251 94 l 736 94 l 736 0 l 117 0 m 336 -210 l 336 -86 l 468 -86 l 468 -210 l 336 -210 m 235 979 l 329 1156 l 478 1156 l 569 979 l 489 979 l 403 1100 l 315 979 l 235 979 z "},"Ề":{"ha":806,"x_min":117,"x_max":736,"o":"m 117 0 l 117 901 l 722 901 l 722 807 l 251 807 l 251 513 l 676 513 l 676 418 l 251 418 l 251 94 l 736 94 l 736 0 l 117 0 m 235 997 l 329 1174 l 478 1174 l 569 997 l 489 997 l 403 1118 l 315 997 l 235 997 m 592 1126 l 500 1260 l 651 1260 l 694 1126 l 592 1126 z "},"Ể":{"ha":806,"x_min":117,"x_max":736,"o":"m 117 0 l 117 901 l 722 901 l 722 807 l 251 807 l 251 513 l 676 513 l 676 418 l 251 418 l 251 94 l 736 94 l 736 0 l 117 0 m 235 997 l 329 1174 l 478 1174 l 569 997 l 489 997 l 403 1118 l 315 997 l 235 997 m 567 1114 q 574 1144 567 1135 q 594 1165 581 1154 q 618 1192 613 1178 q 624 1229 624 1206 q 610 1259 624 1251 q 563 1267 596 1267 q 527 1263 543 1267 q 507 1257 511 1258 l 507 1333 q 534 1341 521 1339 q 572 1343 547 1343 q 673 1313 640 1343 q 706 1233 706 1283 q 699 1187 706 1210 q 679 1154 692 1164 q 651 1129 660 1139 q 643 1101 643 1119 l 567 1101 l 567 1114 z "},"Ễ":{"ha":806,"x_min":117,"x_max":736,"o":"m 117 0 l 117 901 l 722 901 l 722 807 l 251 807 l 251 513 l 676 513 l 676 418 l 251 418 l 251 94 l 736 94 l 736 0 l 117 0 m 235 997 l 329 1174 l 478 1174 l 569 997 l 489 997 l 403 1118 l 315 997 l 235 997 m 213 1235 q 251 1301 222 1272 q 326 1329 281 1329 q 413 1308 358 1329 q 488 1288 464 1288 q 526 1299 508 1288 q 553 1332 544 1310 l 596 1307 q 553 1238 585 1268 q 475 1207 521 1207 q 385 1231 443 1207 q 314 1253 331 1253 q 256 1207 274 1253 l 213 1235 z "},"Ë":{"ha":806,"x_min":117,"x_max":736,"o":"m 244 993 l 244 1124 l 369 1124 l 369 993 l 244 993 m 481 993 l 481 1124 l 606 1124 l 606 993 l 481 993 m 117 0 l 117 901 l 722 901 l 722 807 l 251 807 l 251 513 l 676 513 l 676 418 l 251 418 l 251 94 l 736 94 l 736 0 l 117 0 z "},"Ė":{"ha":806,"x_min":117,"x_max":736,"o":"m 356 1017 l 356 1153 l 481 1153 l 481 1017 l 356 1017 m 117 0 l 117 901 l 722 901 l 722 807 l 251 807 l 251 513 l 676 513 l 676 418 l 251 418 l 251 94 l 736 94 l 736 0 l 117 0 z "},"Ẹ":{"ha":806,"x_min":117,"x_max":736,"o":"m 117 0 l 117 901 l 722 901 l 722 807 l 251 807 l 251 513 l 676 513 l 676 418 l 251 418 l 251 94 l 736 94 l 736 0 l 117 0 m 336 -210 l 336 -86 l 468 -86 l 468 -210 l 336 -210 z "},"È":{"ha":806,"x_min":117,"x_max":736,"o":"m 117 0 l 117 901 l 722 901 l 722 807 l 251 807 l 251 513 l 676 513 l 676 418 l 251 418 l 251 94 l 736 94 l 736 0 l 117 0 m 349 989 l 175 1165 l 326 1165 l 451 989 l 349 989 z "},"Ẻ":{"ha":806,"x_min":117,"x_max":736,"o":"m 117 0 l 117 901 l 722 901 l 722 807 l 251 807 l 251 513 l 676 513 l 676 418 l 251 418 l 251 94 l 736 94 l 736 0 l 117 0 m 363 1036 q 369 1067 363 1057 q 390 1088 376 1076 q 414 1114 408 1100 q 419 1151 419 1128 q 406 1181 419 1174 q 358 1189 392 1189 q 323 1185 339 1189 q 303 1179 307 1181 l 303 1256 q 330 1263 317 1261 q 368 1265 343 1265 q 469 1235 436 1265 q 501 1156 501 1206 q 494 1109 501 1132 q 475 1076 488 1086 q 447 1051 456 1061 q 439 1024 439 1042 l 363 1024 l 363 1036 z "},"Ē":{"ha":806,"x_min":117,"x_max":736,"o":"m 268 1026 l 268 1108 l 571 1108 l 571 1026 l 268 1026 m 117 0 l 117 901 l 722 901 l 722 807 l 251 807 l 251 513 l 676 513 l 676 418 l 251 418 l 251 94 l 736 94 l 736 0 l 117 0 z "},"Ę":{"ha":806,"x_min":117,"x_max":736,"o":"m 607 -258 q 503 -232 538 -258 q 469 -147 469 -206 q 519 0 469 -78 l 117 0 l 117 901 l 722 901 l 722 807 l 251 807 l 251 513 l 676 513 l 676 418 l 251 418 l 251 94 l 736 94 l 736 0 l 624 0 q 579 -135 579 -69 q 633 -181 579 -181 q 676 -171 647 -181 l 676 -244 q 607 -258 649 -258 z "},"Ẽ":{"ha":806,"x_min":117,"x_max":736,"o":"m 117 0 l 117 901 l 722 901 l 722 807 l 251 807 l 251 513 l 676 513 l 676 418 l 251 418 l 251 94 l 736 94 l 736 0 l 117 0 m 182 999 q 223 1092 183 1063 q 321 1122 263 1122 q 381 1113 349 1122 q 418 1103 413 1104 q 483 1088 464 1088 q 529 1133 529 1088 l 619 1132 q 583 1028 618 1058 q 483 999 547 999 q 451 1005 471 999 q 410 1018 431 1011 q 362 1032 386 1025 q 321 1039 338 1039 q 271 999 272 1039 l 182 999 z "},"F":{"ha":778,"x_min":117,"x_max":736,"o":"m 117 0 l 117 901 l 736 901 l 736 807 l 251 807 l 251 513 l 690 513 l 690 418 l 251 418 l 251 0 l 117 0 z "},"G":{"ha":925,"x_min":89,"x_max":836,"o":"m 504 -14 q 391 -8 440 -14 q 288 13 342 -3 q 185 55 226 29 q 117 125 143 81 q 89 231 89 172 l 89 657 q 129 790 89 735 q 240 871 169 846 q 370 905 308 894 q 504 915 432 915 q 815 893 676 915 l 815 789 q 665 812 763 801 q 507 822 567 822 q 222 658 222 822 l 222 233 q 249 156 222 189 q 324 107 276 122 q 413 84 368 90 q 513 78 457 78 q 711 103 606 78 l 711 418 l 500 418 l 500 513 l 836 513 l 836 28 q 504 -14 656 -14 z "},"Ğ":{"ha":925,"x_min":89,"x_max":836,"o":"m 463 997 q 345 1045 389 997 q 299 1174 301 1093 l 374 1174 q 463 1079 382 1079 q 551 1174 543 1079 l 626 1174 q 581 1046 625 1094 q 463 997 536 997 m 504 -14 q 391 -8 440 -14 q 288 13 342 -3 q 185 55 226 29 q 117 125 143 81 q 89 231 89 172 l 89 657 q 129 790 89 735 q 240 871 169 846 q 370 905 308 894 q 504 915 432 915 q 815 893 676 915 l 815 789 q 665 812 763 801 q 507 822 567 822 q 222 658 222 822 l 222 233 q 249 156 222 189 q 324 107 276 122 q 413 84 368 90 q 513 78 457 78 q 711 103 606 78 l 711 418 l 500 418 l 500 513 l 836 513 l 836 28 q 504 -14 656 -14 z "},"Ĝ":{"ha":925,"x_min":89,"x_max":836,"o":"m 294 997 l 389 1174 l 538 1174 l 629 997 l 549 997 l 463 1118 l 375 997 l 294 997 m 504 -14 q 391 -8 440 -14 q 288 13 342 -3 q 185 55 226 29 q 117 125 143 81 q 89 231 89 172 l 89 657 q 129 790 89 735 q 240 871 169 846 q 370 905 308 894 q 504 915 432 915 q 815 893 676 915 l 815 789 q 665 812 763 801 q 507 822 567 822 q 222 658 222 822 l 222 233 q 249 156 222 189 q 324 107 276 122 q 413 84 368 90 q 513 78 457 78 q 711 103 606 78 l 711 418 l 500 418 l 500 513 l 836 513 l 836 28 q 504 -14 656 -14 z "},"Ģ":{"ha":925,"x_min":89,"x_max":836,"o":"m 504 -14 q 391 -8 440 -14 q 288 13 342 -3 q 185 55 226 29 q 117 125 143 81 q 89 231 89 172 l 89 657 q 129 790 89 735 q 240 871 169 846 q 370 905 308 894 q 504 915 432 915 q 815 893 676 915 l 815 789 q 665 812 763 801 q 507 822 567 822 q 222 658 222 822 l 222 233 q 249 156 222 189 q 324 107 276 122 q 413 84 368 90 q 513 78 457 78 q 711 103 606 78 l 711 418 l 500 418 l 500 513 l 836 513 l 836 28 q 504 -14 656 -14 m 365 -264 l 429 -56 l 560 -56 l 444 -264 l 365 -264 z "},"Ġ":{"ha":925,"x_min":89,"x_max":836,"o":"m 400 1018 l 400 1154 l 525 1154 l 525 1018 l 400 1018 m 504 -14 q 391 -8 440 -14 q 288 13 342 -3 q 185 55 226 29 q 117 125 143 81 q 89 231 89 172 l 89 657 q 129 790 89 735 q 240 871 169 846 q 370 905 308 894 q 504 915 432 915 q 815 893 676 915 l 815 789 q 665 812 763 801 q 507 822 567 822 q 222 658 222 822 l 222 233 q 249 156 222 189 q 324 107 276 122 q 413 84 368 90 q 513 78 457 78 q 711 103 606 78 l 711 418 l 500 418 l 500 513 l 836 513 l 836 28 q 504 -14 656 -14 z "},"H":{"ha":982,"x_min":117,"x_max":865,"o":"m 117 0 l 117 901 l 251 901 l 251 513 l 731 513 l 731 901 l 865 901 l 865 0 l 731 0 l 731 418 l 251 418 l 251 0 l 117 0 z "},"Ħ":{"ha":982,"x_min":117,"x_max":865,"o":"m 117 0 l 117 901 l 251 901 l 251 651 l 731 651 l 731 901 l 865 901 l 865 0 l 731 0 l 731 335 l 251 335 l 251 0 l 117 0 m 251 429 l 731 429 l 731 557 l 251 557 l 251 429 z "},"Ĥ":{"ha":982,"x_min":117,"x_max":865,"o":"m 319 976 l 414 1153 l 563 1153 l 654 976 l 574 976 l 488 1097 l 400 976 l 319 976 m 117 0 l 117 901 l 251 901 l 251 513 l 731 513 l 731 901 l 865 901 l 865 0 l 731 0 l 731 418 l 251 418 l 251 0 l 117 0 z "},"I":{"ha":368,"x_min":117,"x_max":251,"o":"m 117 0 l 117 901 l 251 901 l 251 0 l 117 0 z "},"Ĳ":{"ha":835,"x_min":117,"x_max":718,"o":"m 117 0 l 117 901 l 251 901 l 251 0 l 117 0 m 468 -7 q 303 1 444 -7 l 303 92 l 340 88 q 451 76 407 76 q 534 85 507 76 q 572 117 561 93 q 583 193 583 142 l 583 901 l 718 901 l 718 199 q 694 69 718 114 q 617 9 669 25 q 468 -7 564 -7 z "},"Í":{"ha":368,"x_min":115,"x_max":392,"o":"m 117 0 l 117 901 l 251 901 l 251 0 l 117 0 m 115 993 l 240 1169 l 392 1169 l 218 993 l 115 993 z "},"Ĭ":{"ha":368,"x_min":21,"x_max":349,"o":"m 185 997 q 67 1045 111 997 q 21 1174 24 1093 l 96 1174 q 185 1079 104 1079 q 274 1174 265 1079 l 349 1174 q 303 1046 347 1094 q 185 997 258 997 m 117 0 l 117 901 l 251 901 l 251 0 l 117 0 z "},"Î":{"ha":368,"x_min":15,"x_max":350,"o":"m 15 976 l 110 1153 l 258 1153 l 350 976 l 269 976 l 183 1097 l 96 976 l 15 976 m 117 0 l 117 901 l 251 901 l 251 0 l 117 0 z "},"Ï":{"ha":368,"x_min":6,"x_max":367,"o":"m 6 993 l 6 1124 l 131 1124 l 131 993 l 6 993 m 242 993 l 242 1124 l 367 1124 l 367 993 l 242 993 m 117 0 l 117 901 l 251 901 l 251 0 l 117 0 z "},"İ":{"ha":368,"x_min":117,"x_max":251,"o":"m 121 990 l 121 1126 l 246 1126 l 246 990 l 121 990 m 117 0 l 117 901 l 251 901 l 251 0 l 117 0 z "},"Ị":{"ha":368,"x_min":117,"x_max":251,"o":"m 117 0 l 117 901 l 251 901 l 251 0 l 117 0 m 118 -210 l 118 -86 l 250 -86 l 250 -210 l 118 -210 z "},"Ì":{"ha":368,"x_min":-43,"x_max":251,"o":"m 117 0 l 117 901 l 251 901 l 251 0 l 117 0 m 131 989 l -43 1165 l 108 1165 l 233 989 l 131 989 z "},"Ỉ":{"ha":368,"x_min":85,"x_max":283,"o":"m 117 0 l 117 901 l 251 901 l 251 0 l 117 0 m 144 1036 q 151 1067 144 1057 q 172 1088 158 1076 q 196 1114 190 1100 q 201 1151 201 1128 q 188 1181 201 1174 q 140 1189 174 1189 q 105 1185 121 1189 q 85 1179 89 1181 l 85 1256 q 112 1263 99 1261 q 150 1265 125 1265 q 251 1235 218 1265 q 283 1156 283 1206 q 276 1109 283 1132 q 257 1076 269 1086 q 229 1051 238 1061 q 221 1024 221 1042 l 144 1024 l 144 1036 z "},"Ī":{"ha":368,"x_min":33,"x_max":336,"o":"m 33 1026 l 33 1108 l 336 1108 l 336 1026 l 33 1026 m 117 0 l 117 901 l 251 901 l 251 0 l 117 0 z "},"Į":{"ha":368,"x_min":82,"x_max":289,"o":"m 219 -258 q 115 -232 149 -258 q 82 -147 82 -206 q 117 0 82 -82 l 117 901 l 251 901 l 251 0 q 192 -135 192 -64 q 246 -181 192 -181 q 289 -171 260 -181 l 289 -244 q 219 -258 261 -258 z "},"Ĩ":{"ha":368,"x_min":-36,"x_max":401,"o":"m 117 0 l 117 901 l 251 901 l 251 0 l 117 0 m -36 999 q 5 1092 -35 1063 q 103 1122 44 1122 q 163 1113 131 1122 q 200 1103 194 1104 q 265 1088 246 1088 q 311 1133 311 1088 l 401 1132 q 365 1028 400 1058 q 265 999 329 999 q 233 1005 253 999 q 192 1018 213 1011 q 144 1032 168 1025 q 103 1039 119 1039 q 53 999 54 1039 l -36 999 z "},"J":{"ha":560,"x_min":28,"x_max":443,"o":"m 193 -14 q 28 1 82 -14 l 28 92 q 176 69 111 69 q 258 79 231 69 q 297 115 286 89 q 308 193 308 140 l 308 901 l 443 901 l 443 199 q 418 67 443 113 q 340 4 393 22 q 193 -14 288 -14 z "},"Ĵ":{"ha":560,"x_min":28,"x_max":542,"o":"m 207 989 l 301 1165 l 450 1165 l 542 989 l 461 989 l 375 1110 l 288 989 l 207 989 m 193 -14 q 28 1 82 -14 l 28 92 q 176 69 111 69 q 258 79 231 69 q 297 115 286 89 q 308 193 308 140 l 308 901 l 443 901 l 443 199 q 418 67 443 113 q 340 4 393 22 q 193 -14 288 -14 z "},"K":{"ha":846,"x_min":117,"x_max":860,"o":"m 117 0 l 117 901 l 251 901 l 251 0 l 117 0 m 685 0 l 254 479 l 657 901 l 819 901 l 414 485 l 860 0 l 685 0 z "},"Ķ":{"ha":846,"x_min":117,"x_max":860,"o":"m 117 0 l 117 901 l 251 901 l 251 0 l 117 0 m 685 0 l 254 479 l 657 901 l 819 901 l 414 485 l 860 0 l 685 0 m 339 -264 l 403 -56 l 543 -56 l 428 -264 l 339 -264 z "},"L":{"ha":722,"x_min":117,"x_max":694,"o":"m 117 0 l 117 901 l 251 901 l 251 94 l 694 94 l 694 0 l 117 0 z "},"Ĺ":{"ha":722,"x_min":117,"x_max":694,"o":"m 131 976 l 256 1153 l 407 1153 l 233 976 l 131 976 m 117 0 l 117 901 l 251 901 l 251 94 l 694 94 l 694 0 l 117 0 z "},"Ľ":{"ha":722,"x_min":117,"x_max":694,"o":"m 117 0 l 117 901 l 251 901 l 251 94 l 694 94 l 694 0 l 117 0 m 336 693 l 400 901 l 540 901 l 425 693 l 336 693 z "},"Ļ":{"ha":722,"x_min":117,"x_max":694,"o":"m 117 0 l 117 901 l 251 901 l 251 94 l 694 94 l 694 0 l 117 0 m 297 -264 l 361 -56 l 501 -56 l 386 -264 l 297 -264 z "},"Ŀ":{"ha":722,"x_min":117,"x_max":694,"o":"m 117 0 l 117 901 l 251 901 l 251 94 l 694 94 l 694 0 l 117 0 m 333 393 l 333 529 l 458 529 l 458 393 l 333 393 z "},"Ł":{"ha":750,"x_min":28,"x_max":722,"o":"m 144 0 l 144 393 l 28 360 l 28 458 l 144 492 l 144 901 l 279 901 l 279 531 l 433 575 l 433 476 l 279 432 l 279 94 l 722 94 l 722 0 l 144 0 z "},"M":{"ha":1196,"x_min":117,"x_max":1079,"o":"m 117 0 l 117 901 l 318 901 l 607 151 l 611 150 l 885 901 l 1079 901 l 1079 0 l 961 0 l 961 763 l 954 763 l 664 0 l 543 0 l 244 763 l 238 763 l 238 0 l 117 0 z "},"N":{"ha":1004,"x_min":117,"x_max":888,"o":"m 117 0 l 117 901 l 279 901 l 769 157 l 769 901 l 888 901 l 888 0 l 725 0 l 235 757 l 235 0 l 117 0 z "},"Ń":{"ha":1004,"x_min":117,"x_max":888,"o":"m 389 976 l 514 1153 l 665 1153 l 492 976 l 389 976 m 117 0 l 117 901 l 279 901 l 769 157 l 769 901 l 888 901 l 888 0 l 725 0 l 235 757 l 235 0 l 117 0 z "},"Ň":{"ha":1004,"x_min":117,"x_max":888,"o":"m 453 976 l 358 1153 l 439 1153 l 526 1032 l 613 1153 l 693 1153 l 601 976 l 453 976 m 117 0 l 117 901 l 279 901 l 769 157 l 769 901 l 888 901 l 888 0 l 725 0 l 235 757 l 235 0 l 117 0 z "},"Ņ":{"ha":1004,"x_min":117,"x_max":888,"o":"m 117 0 l 117 901 l 279 901 l 769 157 l 769 901 l 888 901 l 888 0 l 725 0 l 235 757 l 235 0 l 117 0 m 399 -264 l 463 -56 l 603 -56 l 488 -264 l 399 -264 z "},"Ŋ":{"ha":1004,"x_min":117,"x_max":888,"o":"m 632 -175 q 735 -142 706 -175 q 764 -50 764 -110 l 235 757 l 235 0 l 117 0 l 117 901 l 279 901 l 769 157 l 769 901 l 888 901 l 888 -57 q 868 -174 888 -129 q 801 -241 849 -218 q 668 -264 753 -264 l 632 -264 l 632 -175 z "},"Ñ":{"ha":1004,"x_min":117,"x_max":888,"o":"m 325 1061 q 415 1101 358 1101 q 506 1078 447 1101 q 589 1054 564 1054 q 638 1068 618 1054 q 679 1114 657 1082 l 679 1018 q 589 964 649 964 q 497 989 553 964 q 415 1014 440 1014 q 325 960 361 1014 l 325 1061 m 117 0 l 117 901 l 279 901 l 769 157 l 769 901 l 888 901 l 888 0 l 725 0 l 235 757 l 235 0 l 117 0 z "},"O":{"ha":943,"x_min":92,"x_max":851,"o":"m 469 -14 q 92 231 92 -14 l 92 657 q 469 915 92 915 q 851 658 851 915 l 851 231 q 746 43 851 100 q 469 -14 640 -14 m 472 76 q 721 232 721 76 l 721 661 q 471 828 721 828 q 285 790 350 828 q 221 661 221 753 l 221 232 q 472 76 221 76 z "},"Ó":{"ha":943,"x_min":92,"x_max":851,"o":"m 469 -14 q 92 231 92 -14 l 92 657 q 469 915 92 915 q 851 658 851 915 l 851 231 q 746 43 851 100 q 469 -14 640 -14 m 472 76 q 721 232 721 76 l 721 661 q 471 828 721 828 q 285 790 350 828 q 221 661 221 753 l 221 232 q 472 76 221 76 m 403 993 l 528 1169 l 679 1169 l 506 993 l 403 993 z "},"Ŏ":{"ha":943,"x_min":92,"x_max":851,"o":"m 471 997 q 353 1045 397 997 q 307 1174 310 1093 l 382 1174 q 471 1079 390 1079 q 560 1174 551 1079 l 635 1174 q 589 1046 633 1094 q 471 997 544 997 m 469 -14 q 92 231 92 -14 l 92 657 q 469 915 92 915 q 851 658 851 915 l 851 231 q 817 107 851 158 q 719 31 782 56 q 601 -3 660 7 q 469 -14 542 -14 m 472 76 q 721 232 721 76 l 721 661 q 471 828 721 828 q 376 822 415 828 q 300 799 336 815 q 221 661 221 761 l 221 232 q 472 76 221 76 z "},"Ô":{"ha":943,"x_min":92,"x_max":851,"o":"m 469 -14 q 92 231 92 -14 l 92 657 q 469 915 92 915 q 851 658 851 915 l 851 231 q 746 43 851 100 q 469 -14 640 -14 m 472 76 q 721 232 721 76 l 721 661 q 471 828 721 828 q 285 790 350 828 q 221 661 221 753 l 221 232 q 472 76 221 76 m 304 979 l 399 1156 l 547 1156 l 639 979 l 558 979 l 472 1100 l 385 979 l 304 979 z "},"Ố":{"ha":943,"x_min":92,"x_max":851,"o":"m 469 -14 q 92 231 92 -14 l 92 657 q 469 915 92 915 q 851 658 851 915 l 851 231 q 746 43 851 100 q 469 -14 640 -14 m 472 76 q 721 232 721 76 l 721 661 q 471 828 721 828 q 285 790 350 828 q 221 661 221 753 l 221 232 q 472 76 221 76 m 304 997 l 399 1174 l 547 1174 l 639 997 l 558 997 l 472 1118 l 385 997 l 304 997 m 617 1099 l 672 1232 l 824 1232 l 719 1099 l 617 1099 z "},"Ộ":{"ha":943,"x_min":92,"x_max":851,"o":"m 469 -14 q 92 231 92 -14 l 92 657 q 469 915 92 915 q 851 658 851 915 l 851 231 q 746 43 851 100 q 469 -14 640 -14 m 472 76 q 721 232 721 76 l 721 661 q 471 828 721 828 q 285 790 350 828 q 221 661 221 753 l 221 232 q 472 76 221 76 m 406 -210 l 406 -86 l 538 -86 l 538 -210 l 406 -210 m 304 979 l 399 1156 l 547 1156 l 639 979 l 558 979 l 472 1100 l 385 979 l 304 979 z "},"Ồ":{"ha":943,"x_min":92,"x_max":851,"o":"m 469 -14 q 92 231 92 -14 l 92 657 q 469 915 92 915 q 851 658 851 915 l 851 231 q 746 43 851 100 q 469 -14 640 -14 m 472 76 q 721 232 721 76 l 721 661 q 471 828 721 828 q 285 790 350 828 q 221 661 221 753 l 221 232 q 472 76 221 76 m 304 997 l 399 1174 l 547 1174 l 639 997 l 558 997 l 472 1118 l 385 997 l 304 997 m 661 1126 l 569 1260 l 721 1260 l 764 1126 l 661 1126 z "},"Ổ":{"ha":943,"x_min":92,"x_max":851,"o":"m 469 -14 q 92 231 92 -14 l 92 657 q 469 915 92 915 q 851 658 851 915 l 851 231 q 746 43 851 100 q 469 -14 640 -14 m 472 76 q 721 232 721 76 l 721 661 q 471 828 721 828 q 285 790 350 828 q 221 661 221 753 l 221 232 q 472 76 221 76 m 304 997 l 399 1174 l 547 1174 l 639 997 l 558 997 l 472 1118 l 385 997 l 304 997 m 636 1114 q 643 1144 636 1135 q 664 1165 650 1154 q 688 1192 682 1178 q 693 1229 693 1206 q 679 1259 693 1251 q 632 1267 665 1267 q 597 1263 613 1267 q 576 1257 581 1258 l 576 1333 q 603 1341 590 1339 q 642 1343 617 1343 q 742 1313 710 1343 q 775 1233 775 1283 q 768 1187 775 1210 q 749 1154 761 1164 q 721 1129 729 1139 q 713 1101 713 1119 l 636 1101 l 636 1114 z "},"Ỗ":{"ha":943,"x_min":92,"x_max":851,"o":"m 469 -14 q 92 231 92 -14 l 92 657 q 469 915 92 915 q 851 658 851 915 l 851 231 q 746 43 851 100 q 469 -14 640 -14 m 472 76 q 721 232 721 76 l 721 661 q 471 828 721 828 q 285 790 350 828 q 221 661 221 753 l 221 232 q 472 76 221 76 m 304 997 l 399 1174 l 547 1174 l 639 997 l 558 997 l 472 1118 l 385 997 l 304 997 m 282 1235 q 321 1301 292 1272 q 396 1329 350 1329 q 482 1308 428 1329 q 557 1288 533 1288 q 596 1299 578 1288 q 622 1332 614 1310 l 665 1307 q 622 1238 654 1268 q 544 1207 590 1207 q 454 1231 513 1207 q 383 1253 400 1253 q 325 1207 343 1253 l 282 1235 z "},"Ö":{"ha":943,"x_min":92,"x_max":851,"o":"m 278 993 l 278 1124 l 403 1124 l 403 993 l 278 993 m 514 993 l 514 1124 l 639 1124 l 639 993 l 514 993 m 469 -14 q 92 231 92 -14 l 92 657 q 469 915 92 915 q 851 658 851 915 l 851 231 q 817 107 851 158 q 719 31 782 56 q 601 -3 660 7 q 469 -14 542 -14 m 472 76 q 721 232 721 76 l 721 661 q 471 828 721 828 q 376 822 415 828 q 300 799 336 815 q 221 661 221 761 l 221 232 q 472 76 221 76 z "},"Ọ":{"ha":943,"x_min":92,"x_max":851,"o":"m 469 -14 q 92 231 92 -14 l 92 657 q 469 915 92 915 q 851 658 851 915 l 851 231 q 746 43 851 100 q 469 -14 640 -14 m 472 76 q 721 232 721 76 l 721 661 q 471 828 721 828 q 285 790 350 828 q 221 661 221 753 l 221 232 q 472 76 221 76 m 406 -210 l 406 -86 l 538 -86 l 538 -210 l 406 -210 z "},"Ò":{"ha":943,"x_min":92,"x_max":851,"o":"m 469 -14 q 92 231 92 -14 l 92 657 q 469 915 92 915 q 851 658 851 915 l 851 231 q 746 43 851 100 q 469 -14 640 -14 m 472 76 q 721 232 721 76 l 721 661 q 471 828 721 828 q 285 790 350 828 q 221 661 221 753 l 221 232 q 472 76 221 76 m 418 989 l 244 1165 l 396 1165 l 521 989 l 418 989 z "},"Ỏ":{"ha":943,"x_min":92,"x_max":851,"o":"m 469 -14 q 92 231 92 -14 l 92 657 q 469 915 92 915 q 851 658 851 915 l 851 231 q 746 43 851 100 q 469 -14 640 -14 m 472 76 q 721 232 721 76 l 721 661 q 471 828 721 828 q 285 790 350 828 q 221 661 221 753 l 221 232 q 472 76 221 76 m 432 1036 q 439 1067 432 1057 q 460 1088 446 1076 q 483 1114 478 1100 q 489 1151 489 1128 q 475 1181 489 1174 q 428 1189 461 1189 q 392 1185 408 1189 q 372 1179 376 1181 l 372 1256 q 399 1263 386 1261 q 438 1265 413 1265 q 538 1235 506 1265 q 571 1156 571 1206 q 564 1109 571 1132 q 544 1076 557 1086 q 517 1051 525 1061 q 508 1024 508 1042 l 432 1024 l 432 1036 z "},"Ơ":{"ha":943,"x_min":92,"x_max":863,"o":"m 779 833 q 851 658 851 771 l 851 231 q 746 43 851 100 q 469 -14 640 -14 q 92 231 92 -14 l 92 657 q 469 915 92 915 q 626 901 561 915 q 706 911 682 903 q 739 944 731 919 q 747 1024 747 968 l 863 1022 q 845 897 863 940 q 779 833 828 853 m 721 661 q 471 828 721 828 q 285 790 350 828 q 221 661 221 753 l 221 232 q 472 76 221 76 q 721 232 721 76 l 721 661 z "},"Ớ":{"ha":943,"x_min":92,"x_max":863,"o":"m 779 833 q 851 658 851 771 l 851 231 q 746 43 851 100 q 469 -14 640 -14 q 92 231 92 -14 l 92 657 q 469 915 92 915 q 626 901 561 915 q 706 911 682 903 q 739 944 731 919 q 747 1024 747 968 l 863 1022 q 845 897 863 940 q 779 833 828 853 m 721 661 q 471 828 721 828 q 285 790 350 828 q 221 661 221 753 l 221 232 q 472 76 221 76 q 721 232 721 76 l 721 661 m 403 993 l 528 1169 l 679 1169 l 506 993 l 403 993 z "},"Ợ":{"ha":943,"x_min":92,"x_max":863,"o":"m 779 833 q 851 658 851 771 l 851 231 q 746 43 851 100 q 469 -14 640 -14 q 92 231 92 -14 l 92 657 q 469 915 92 915 q 626 901 561 915 q 706 911 682 903 q 739 944 731 919 q 747 1024 747 968 l 863 1022 q 845 897 863 940 q 779 833 828 853 m 721 661 q 471 828 721 828 q 285 790 350 828 q 221 661 221 753 l 221 232 q 472 76 221 76 q 721 232 721 76 l 721 661 m 406 -210 l 406 -86 l 538 -86 l 538 -210 l 406 -210 z "},"Ờ":{"ha":943,"x_min":92,"x_max":863,"o":"m 779 833 q 851 658 851 771 l 851 231 q 746 43 851 100 q 469 -14 640 -14 q 92 231 92 -14 l 92 657 q 469 915 92 915 q 626 901 561 915 q 706 911 682 903 q 739 944 731 919 q 747 1024 747 968 l 863 1022 q 845 897 863 940 q 779 833 828 853 m 721 661 q 471 828 721 828 q 285 790 350 828 q 221 661 221 753 l 221 232 q 472 76 221 76 q 721 232 721 76 l 721 661 m 418 989 l 244 1165 l 396 1165 l 521 989 l 418 989 z "},"Ở":{"ha":943,"x_min":92,"x_max":863,"o":"m 779 833 q 851 658 851 771 l 851 231 q 746 43 851 100 q 469 -14 640 -14 q 92 231 92 -14 l 92 657 q 469 915 92 915 q 626 901 561 915 q 706 911 682 903 q 739 944 731 919 q 747 1024 747 968 l 863 1022 q 845 897 863 940 q 779 833 828 853 m 721 661 q 471 828 721 828 q 285 790 350 828 q 221 661 221 753 l 221 232 q 472 76 221 76 q 721 232 721 76 l 721 661 m 432 1036 q 439 1067 432 1057 q 460 1088 446 1076 q 483 1114 478 1100 q 489 1151 489 1128 q 475 1181 489 1174 q 428 1189 461 1189 q 392 1185 408 1189 q 372 1179 376 1181 l 372 1256 q 399 1263 386 1261 q 438 1265 413 1265 q 538 1235 506 1265 q 571 1156 571 1206 q 564 1109 571 1132 q 544 1076 557 1086 q 517 1051 525 1061 q 508 1024 508 1042 l 432 1024 l 432 1036 z "},"Ỡ":{"ha":943,"x_min":92,"x_max":863,"o":"m 779 833 q 851 658 851 771 l 851 231 q 746 43 851 100 q 469 -14 640 -14 q 92 231 92 -14 l 92 657 q 469 915 92 915 q 626 901 561 915 q 706 911 682 903 q 739 944 731 919 q 747 1024 747 968 l 863 1022 q 845 897 863 940 q 779 833 828 853 m 721 661 q 471 828 721 828 q 285 790 350 828 q 221 661 221 753 l 221 232 q 472 76 221 76 q 721 232 721 76 l 721 661 m 251 999 q 292 1092 253 1063 q 390 1122 332 1122 q 450 1113 418 1122 q 488 1103 482 1104 q 553 1088 533 1088 q 599 1133 599 1088 l 689 1132 q 652 1028 688 1058 q 553 999 617 999 q 520 1005 540 999 q 479 1018 500 1011 q 431 1032 456 1025 q 390 1039 407 1039 q 340 999 342 1039 l 251 999 z "},"Ő":{"ha":943,"x_min":92,"x_max":851,"o":"m 289 976 l 386 1154 l 492 1154 l 394 976 l 289 976 m 465 976 l 563 1154 l 668 1154 l 571 976 l 465 976 m 469 -14 q 92 231 92 -14 l 92 657 q 469 915 92 915 q 851 658 851 915 l 851 231 q 817 107 851 158 q 719 31 782 56 q 601 -3 660 7 q 469 -14 542 -14 m 472 76 q 721 232 721 76 l 721 661 q 471 828 721 828 q 376 822 415 828 q 300 799 336 815 q 221 661 221 761 l 221 232 q 472 76 221 76 z "},"Ō":{"ha":943,"x_min":92,"x_max":851,"o":"m 310 1026 l 310 1108 l 613 1108 l 613 1026 l 310 1026 m 469 -14 q 92 231 92 -14 l 92 657 q 469 915 92 915 q 851 658 851 915 l 851 231 q 817 107 851 158 q 719 31 782 56 q 601 -3 660 7 q 469 -14 542 -14 m 472 76 q 721 232 721 76 l 721 661 q 471 828 721 828 q 376 822 415 828 q 300 799 336 815 q 221 661 221 761 l 221 232 q 472 76 221 76 z "},"Ø":{"ha":943,"x_min":92,"x_max":851,"o":"m 469 -14 q 92 231 92 -14 l 92 657 q 469 915 92 915 q 851 658 851 915 l 851 231 q 817 107 851 158 q 719 31 782 56 q 601 -3 660 7 q 469 -14 542 -14 m 660 786 q 471 828 600 828 q 376 822 415 828 q 300 799 336 815 q 221 661 221 761 l 221 232 q 224 194 221 208 l 660 786 m 472 76 q 721 232 721 76 l 721 661 q 717 704 721 683 l 282 115 q 472 76 342 76 z "},"Õ":{"ha":943,"x_min":92,"x_max":851,"o":"m 469 -14 q 92 231 92 -14 l 92 657 q 469 915 92 915 q 851 658 851 915 l 851 231 q 746 43 851 100 q 469 -14 640 -14 m 472 76 q 721 232 721 76 l 721 661 q 471 828 721 828 q 285 790 350 828 q 221 661 221 753 l 221 232 q 472 76 221 76 m 251 999 q 292 1092 253 1063 q 390 1122 332 1122 q 450 1113 418 1122 q 488 1103 482 1104 q 553 1088 533 1088 q 599 1133 599 1088 l 689 1132 q 652 1028 688 1058 q 553 999 617 999 q 520 1005 540 999 q 479 1018 500 1011 q 431 1032 456 1025 q 390 1039 407 1039 q 340 999 342 1039 l 251 999 z "},"Œ":{"ha":1367,"x_min":117,"x_max":1297,"o":"m 494 0 q 117 244 117 0 l 117 643 q 494 901 117 901 l 1283 901 l 1283 807 l 813 807 l 813 513 l 1238 513 l 1238 418 l 813 418 l 813 94 l 1297 94 l 1297 0 l 494 0 m 678 92 l 678 808 l 497 808 q 403 802 443 808 q 326 781 363 796 q 246 644 246 746 l 246 247 q 503 92 246 92 l 678 92 z "},"P":{"ha":792,"x_min":117,"x_max":729,"o":"m 117 901 l 411 901 q 512 899 474 901 q 593 886 550 896 q 665 857 638 876 q 711 804 692 838 q 729 724 729 772 l 729 536 q 642 374 729 424 q 386 325 556 325 l 251 325 l 251 0 l 117 0 l 117 901 m 404 410 q 544 442 492 410 q 597 543 597 474 l 597 707 q 578 769 597 744 q 522 803 558 793 q 464 814 488 811 q 401 817 440 817 l 250 817 l 250 410 l 404 410 z "},"Þ":{"ha":792,"x_min":117,"x_max":729,"o":"m 117 901 l 251 901 l 251 742 l 411 742 q 512 739 474 742 q 593 726 550 736 q 665 697 638 717 q 711 644 692 678 q 729 564 729 613 l 729 376 q 642 215 729 264 q 386 165 556 165 l 251 165 l 251 0 l 117 0 l 117 901 m 404 250 q 544 282 492 250 q 597 383 597 314 l 597 547 q 578 609 597 585 q 522 643 558 633 q 464 654 488 651 q 401 657 440 657 l 251 657 l 251 250 l 404 250 z "},"Q":{"ha":939,"x_min":89,"x_max":947,"o":"m 468 0 q 89 244 89 0 l 89 657 q 468 915 89 915 q 849 658 849 915 l 849 286 q 725 76 849 158 l 947 76 l 947 0 l 468 0 m 471 90 q 719 246 719 90 l 719 661 q 469 828 719 828 q 374 822 414 828 q 297 799 333 815 q 218 661 218 761 l 218 246 q 471 90 218 90 z "},"R":{"ha":878,"x_min":117,"x_max":806,"o":"m 117 901 l 433 901 q 620 887 553 901 q 719 835 688 872 q 750 725 750 797 l 750 569 q 684 445 750 489 q 517 401 618 401 l 806 0 l 640 0 l 382 385 l 251 385 l 251 0 l 117 0 l 117 901 m 428 474 q 572 498 528 474 q 615 586 615 522 l 615 711 q 440 813 615 813 l 251 813 l 251 474 l 428 474 z "},"Ŕ":{"ha":850,"x_min":117,"x_max":806,"o":"m 300 976 l 425 1153 l 576 1153 l 403 976 l 300 976 m 117 901 l 433 901 q 620 887 553 901 q 719 835 688 872 q 750 725 750 797 l 750 569 q 684 445 750 489 q 517 401 618 401 l 806 0 l 640 0 l 382 385 l 251 385 l 251 0 l 117 0 l 117 901 m 428 474 q 572 498 528 474 q 615 586 615 522 l 615 711 q 440 813 615 813 l 251 813 l 251 474 l 428 474 z "},"Ř":{"ha":850,"x_min":117,"x_max":806,"o":"m 333 976 l 239 1153 l 319 1153 l 407 1032 l 493 1153 l 574 1153 l 482 976 l 333 976 m 117 901 l 433 901 q 620 887 553 901 q 719 835 688 872 q 750 725 750 797 l 750 569 q 684 445 750 489 q 517 401 618 401 l 806 0 l 640 0 l 382 385 l 251 385 l 251 0 l 117 0 l 117 901 m 428 474 q 572 498 528 474 q 615 586 615 522 l 615 711 q 440 813 615 813 l 251 813 l 251 474 l 428 474 z "},"Ŗ":{"ha":850,"x_min":117,"x_max":806,"o":"m 117 901 l 433 901 q 620 887 553 901 q 719 835 688 872 q 750 725 750 797 l 750 569 q 684 445 750 489 q 517 401 618 401 l 806 0 l 640 0 l 382 385 l 251 385 l 251 0 l 117 0 l 117 901 m 428 474 q 572 498 528 474 q 615 586 615 522 l 615 711 q 440 813 615 813 l 251 813 l 251 474 l 428 474 m 336 -264 l 400 -56 l 540 -56 l 425 -264 l 336 -264 z "},"S":{"ha":790,"x_min":83,"x_max":714,"o":"m 376 -14 q 101 8 261 -14 l 101 121 q 385 86 263 86 q 535 109 488 86 q 582 194 582 132 l 582 311 q 549 393 582 369 q 432 417 515 417 l 326 417 q 139 469 194 417 q 83 633 83 522 l 83 706 q 116 825 83 779 q 226 893 149 871 q 438 915 303 915 q 669 900 528 915 l 669 799 q 428 822 511 822 q 257 797 299 822 q 214 710 214 771 l 214 607 q 248 538 214 560 q 365 517 282 517 l 474 517 q 619 494 567 517 q 692 427 671 472 q 714 306 714 382 l 714 240 q 678 89 714 144 q 569 10 643 33 q 376 -14 496 -14 z "},"Ś":{"ha":790,"x_min":83,"x_max":714,"o":"m 322 976 l 447 1153 l 599 1153 l 425 976 l 322 976 m 376 -14 q 101 8 261 -14 l 101 121 q 385 86 263 86 q 535 109 488 86 q 582 194 582 132 l 582 311 q 549 393 582 369 q 432 417 515 417 l 326 417 q 139 469 194 417 q 83 633 83 522 l 83 706 q 116 825 83 779 q 226 893 149 871 q 438 915 303 915 q 669 900 528 915 l 669 799 q 428 822 511 822 q 257 797 299 822 q 214 710 214 771 l 214 607 q 248 538 214 560 q 365 517 282 517 l 474 517 q 619 494 567 517 q 692 427 671 472 q 714 306 714 382 l 714 240 q 678 89 714 144 q 569 10 643 33 q 376 -14 496 -14 z "},"Š":{"ha":790,"x_min":83,"x_max":714,"o":"m 303 976 l 208 1153 l 289 1153 l 376 1032 l 463 1153 l 543 1153 l 451 976 l 303 976 m 376 -14 q 101 8 261 -14 l 101 121 q 385 86 263 86 q 535 109 488 86 q 582 194 582 132 l 582 311 q 549 393 582 369 q 432 417 515 417 l 326 417 q 139 469 194 417 q 83 633 83 522 l 83 706 q 116 825 83 779 q 226 893 149 871 q 438 915 303 915 q 669 900 528 915 l 669 799 q 428 822 511 822 q 257 797 299 822 q 214 710 214 771 l 214 607 q 248 538 214 560 q 365 517 282 517 l 474 517 q 619 494 567 517 q 692 427 671 472 q 714 306 714 382 l 714 240 q 678 89 714 144 q 569 10 643 33 q 376 -14 496 -14 z "},"Ş":{"ha":790,"x_min":83,"x_max":714,"o":"m 372 -306 q 260 -279 303 -306 l 289 -217 q 369 -240 332 -240 q 435 -185 435 -240 q 404 -143 435 -158 q 326 -128 374 -128 l 281 -128 q 342 -14 314 -71 q 101 8 256 -12 l 101 121 q 385 86 263 86 q 535 109 488 86 q 582 194 582 132 l 582 311 q 549 393 582 369 q 432 417 515 417 l 326 417 q 139 469 194 417 q 83 633 83 522 l 83 706 q 116 825 83 779 q 226 893 149 871 q 438 915 303 915 q 669 900 528 915 l 669 799 q 428 822 511 822 q 257 797 299 822 q 214 710 214 771 l 214 607 q 248 538 214 560 q 365 517 282 517 l 474 517 q 619 494 567 517 q 692 427 671 472 q 714 306 714 382 l 714 240 q 647 52 714 110 q 429 -12 579 -6 l 400 -72 q 492 -102 454 -74 q 529 -181 529 -131 q 484 -272 529 -239 q 372 -306 439 -306 z "},"Ŝ":{"ha":790,"x_min":83,"x_max":714,"o":"m 240 976 l 335 1153 l 483 1153 l 575 976 l 494 976 l 408 1097 l 321 976 l 240 976 m 376 -14 q 101 8 261 -14 l 101 121 q 385 86 263 86 q 535 109 488 86 q 582 194 582 132 l 582 311 q 549 393 582 369 q 432 417 515 417 l 326 417 q 139 469 194 417 q 83 633 83 522 l 83 706 q 116 825 83 779 q 226 893 149 871 q 438 915 303 915 q 669 900 528 915 l 669 799 q 428 822 511 822 q 257 797 299 822 q 214 710 214 771 l 214 607 q 248 538 214 560 q 365 517 282 517 l 474 517 q 619 494 567 517 q 692 427 671 472 q 714 306 714 382 l 714 240 q 678 89 714 144 q 569 10 643 33 q 376 -14 496 -14 z "},"Ș":{"ha":790,"x_min":83,"x_max":714,"o":"m 376 -14 q 101 8 261 -14 l 101 121 q 385 86 263 86 q 535 109 488 86 q 582 194 582 132 l 582 311 q 549 393 582 369 q 432 417 515 417 l 326 417 q 139 469 194 417 q 83 633 83 522 l 83 706 q 116 825 83 779 q 226 893 149 871 q 438 915 303 915 q 669 900 528 915 l 669 799 q 428 822 511 822 q 257 797 299 822 q 214 710 214 771 l 214 607 q 248 538 214 560 q 365 517 282 517 l 474 517 q 619 494 567 517 q 692 427 671 472 q 714 306 714 382 l 714 240 q 678 89 714 144 q 569 10 643 33 q 376 -14 496 -14 m 290 -264 l 354 -56 l 494 -56 l 379 -264 l 290 -264 z "},"T":{"ha":813,"x_min":33,"x_max":779,"o":"m 339 0 l 339 807 l 33 807 l 33 901 l 779 901 l 779 807 l 475 807 l 475 0 l 339 0 z "},"Ŧ":{"ha":813,"x_min":33,"x_max":779,"o":"m 339 0 l 339 418 l 200 418 l 200 513 l 339 513 l 339 807 l 33 807 l 33 901 l 779 901 l 779 807 l 475 807 l 475 513 l 614 513 l 614 418 l 475 418 l 475 0 l 339 0 z "},"Ť":{"ha":813,"x_min":33,"x_max":779,"o":"m 335 976 l 240 1153 l 321 1153 l 408 1032 l 494 1153 l 575 1153 l 483 976 l 335 976 m 339 0 l 339 807 l 33 807 l 33 901 l 779 901 l 779 807 l 475 807 l 475 0 l 339 0 z "},"Ț":{"ha":813,"x_min":33,"x_max":779,"o":"m 339 0 l 339 807 l 33 807 l 33 901 l 779 901 l 779 807 l 475 807 l 475 0 l 339 0 m 282 -264 l 346 -56 l 486 -56 l 371 -264 l 282 -264 z "},"U":{"ha":939,"x_min":117,"x_max":821,"o":"m 468 -14 q 340 -4 394 -14 q 232 29 285 6 q 147 106 176 54 q 117 231 117 157 l 117 901 l 246 901 l 246 232 q 303 112 246 147 q 471 76 360 76 q 637 112 582 76 q 692 232 692 147 l 692 901 l 821 901 l 821 231 q 468 -14 821 -14 z "},"Ú":{"ha":939,"x_min":117,"x_max":821,"o":"m 468 -14 q 340 -4 394 -14 q 232 29 285 6 q 147 106 176 54 q 117 231 117 157 l 117 901 l 246 901 l 246 232 q 303 112 246 147 q 471 76 360 76 q 637 112 582 76 q 692 232 692 147 l 692 901 l 821 901 l 821 231 q 468 -14 821 -14 m 400 993 l 525 1169 l 676 1169 l 503 993 l 400 993 z "},"Ŭ":{"ha":939,"x_min":117,"x_max":821,"o":"m 469 997 q 352 1045 396 997 q 306 1174 308 1093 l 381 1174 q 469 1079 389 1079 q 558 1174 550 1079 l 633 1174 q 588 1046 632 1094 q 469 997 543 997 m 468 -14 q 340 -4 394 -14 q 232 29 285 6 q 147 106 176 54 q 117 231 117 157 l 117 901 l 246 901 l 246 232 q 303 112 246 147 q 471 76 360 76 q 637 112 582 76 q 692 232 692 147 l 692 901 l 821 901 l 821 231 q 468 -14 821 -14 z "},"Û":{"ha":939,"x_min":117,"x_max":821,"o":"m 293 976 l 388 1153 l 536 1153 l 628 976 l 547 976 l 461 1097 l 374 976 l 293 976 m 468 -14 q 340 -4 394 -14 q 232 29 285 6 q 147 106 176 54 q 117 231 117 157 l 117 901 l 246 901 l 246 232 q 303 112 246 147 q 471 76 360 76 q 637 112 582 76 q 692 232 692 147 l 692 901 l 821 901 l 821 231 q 468 -14 821 -14 z "},"Ü":{"ha":939,"x_min":117,"x_max":821,"o":"m 279 993 l 279 1124 l 404 1124 l 404 993 l 279 993 m 515 993 l 515 1124 l 640 1124 l 640 993 l 515 993 m 468 -14 q 340 -4 394 -14 q 232 29 285 6 q 147 106 176 54 q 117 231 117 157 l 117 901 l 246 901 l 246 232 q 303 112 246 147 q 471 76 360 76 q 637 112 582 76 q 692 232 692 147 l 692 901 l 821 901 l 821 231 q 468 -14 821 -14 z "},"Ụ":{"ha":939,"x_min":117,"x_max":821,"o":"m 468 -14 q 340 -4 394 -14 q 232 29 285 6 q 147 106 176 54 q 117 231 117 157 l 117 901 l 246 901 l 246 232 q 303 112 246 147 q 471 76 360 76 q 637 112 582 76 q 692 232 692 147 l 692 901 l 821 901 l 821 231 q 468 -14 821 -14 m 403 -210 l 403 -86 l 535 -86 l 535 -210 l 403 -210 z "},"Ù":{"ha":939,"x_min":117,"x_max":821,"o":"m 468 -14 q 340 -4 394 -14 q 232 29 285 6 q 147 106 176 54 q 117 231 117 157 l 117 901 l 246 901 l 246 232 q 303 112 246 147 q 471 76 360 76 q 637 112 582 76 q 692 232 692 147 l 692 901 l 821 901 l 821 231 q 468 -14 821 -14 m 415 989 l 242 1165 l 393 1165 l 518 989 l 415 989 z "},"Ủ":{"ha":939,"x_min":117,"x_max":821,"o":"m 468 -14 q 340 -4 394 -14 q 232 29 285 6 q 147 106 176 54 q 117 231 117 157 l 117 901 l 246 901 l 246 232 q 303 112 246 147 q 471 76 360 76 q 637 112 582 76 q 692 232 692 147 l 692 901 l 821 901 l 821 231 q 468 -14 821 -14 m 429 1036 q 436 1067 429 1057 q 457 1088 443 1076 q 481 1114 475 1100 q 486 1151 486 1128 q 472 1181 486 1174 q 425 1189 458 1189 q 390 1185 406 1189 q 369 1179 374 1181 l 369 1256 q 397 1263 383 1261 q 435 1265 410 1265 q 535 1235 503 1265 q 568 1156 568 1206 q 561 1109 568 1132 q 542 1076 554 1086 q 514 1051 522 1061 q 506 1024 506 1042 l 429 1024 l 429 1036 z "},"Ư":{"ha":939,"x_min":117,"x_max":958,"o":"m 958 1022 q 931 877 958 922 q 821 818 903 832 l 821 231 q 468 -14 821 -14 q 340 -4 394 -14 q 232 29 285 6 q 147 106 176 54 q 117 231 117 157 l 117 901 l 246 901 l 246 232 q 303 112 246 147 q 471 76 360 76 q 637 112 582 76 q 692 232 692 147 l 692 901 l 710 901 q 798 909 772 901 q 833 941 824 917 q 843 1024 843 965 l 958 1022 z "},"Ứ":{"ha":939,"x_min":117,"x_max":958,"o":"m 958 1022 q 931 877 958 922 q 821 818 903 832 l 821 231 q 468 -14 821 -14 q 340 -4 394 -14 q 232 29 285 6 q 147 106 176 54 q 117 231 117 157 l 117 901 l 246 901 l 246 232 q 303 112 246 147 q 471 76 360 76 q 637 112 582 76 q 692 232 692 147 l 692 901 l 710 901 q 798 909 772 901 q 833 941 824 917 q 843 1024 843 965 l 958 1022 m 400 993 l 525 1169 l 676 1169 l 503 993 l 400 993 z "},"Ự":{"ha":939,"x_min":117,"x_max":958,"o":"m 958 1022 q 931 877 958 922 q 821 818 903 832 l 821 231 q 468 -14 821 -14 q 340 -4 394 -14 q 232 29 285 6 q 147 106 176 54 q 117 231 117 157 l 117 901 l 246 901 l 246 232 q 303 112 246 147 q 471 76 360 76 q 637 112 582 76 q 692 232 692 147 l 692 901 l 710 901 q 798 909 772 901 q 833 941 824 917 q 843 1024 843 965 l 958 1022 m 403 -210 l 403 -86 l 535 -86 l 535 -210 l 403 -210 z "},"Ừ":{"ha":939,"x_min":117,"x_max":958,"o":"m 958 1022 q 931 877 958 922 q 821 818 903 832 l 821 231 q 468 -14 821 -14 q 340 -4 394 -14 q 232 29 285 6 q 147 106 176 54 q 117 231 117 157 l 117 901 l 246 901 l 246 232 q 303 112 246 147 q 471 76 360 76 q 637 112 582 76 q 692 232 692 147 l 692 901 l 710 901 q 798 909 772 901 q 833 941 824 917 q 843 1024 843 965 l 958 1022 m 415 989 l 242 1165 l 393 1165 l 518 989 l 415 989 z "},"Ử":{"ha":939,"x_min":117,"x_max":958,"o":"m 958 1022 q 931 877 958 922 q 821 818 903 832 l 821 231 q 468 -14 821 -14 q 340 -4 394 -14 q 232 29 285 6 q 147 106 176 54 q 117 231 117 157 l 117 901 l 246 901 l 246 232 q 303 112 246 147 q 471 76 360 76 q 637 112 582 76 q 692 232 692 147 l 692 901 l 710 901 q 798 909 772 901 q 833 941 824 917 q 843 1024 843 965 l 958 1022 m 429 1036 q 436 1067 429 1057 q 457 1088 443 1076 q 481 1114 475 1100 q 486 1151 486 1128 q 472 1181 486 1174 q 425 1189 458 1189 q 390 1185 406 1189 q 369 1179 374 1181 l 369 1256 q 397 1263 383 1261 q 435 1265 410 1265 q 535 1235 503 1265 q 568 1156 568 1206 q 561 1109 568 1132 q 542 1076 554 1086 q 514 1051 522 1061 q 506 1024 506 1042 l 429 1024 l 429 1036 z "},"Ữ":{"ha":939,"x_min":117,"x_max":958,"o":"m 958 1022 q 931 877 958 922 q 821 818 903 832 l 821 231 q 468 -14 821 -14 q 340 -4 394 -14 q 232 29 285 6 q 147 106 176 54 q 117 231 117 157 l 117 901 l 246 901 l 246 232 q 303 112 246 147 q 471 76 360 76 q 637 112 582 76 q 692 232 692 147 l 692 901 l 710 901 q 798 909 772 901 q 833 941 824 917 q 843 1024 843 965 l 958 1022 m 249 999 q 290 1092 250 1063 q 388 1122 329 1122 q 447 1113 415 1122 q 485 1103 479 1104 q 550 1088 531 1088 q 596 1133 596 1088 l 686 1132 q 649 1028 685 1058 q 550 999 614 999 q 517 1005 538 999 q 476 1018 497 1011 q 428 1032 453 1025 q 388 1039 404 1039 q 338 999 339 1039 l 249 999 z "},"Ű":{"ha":939,"x_min":117,"x_max":821,"o":"m 290 976 l 388 1154 l 493 1154 l 396 976 l 290 976 m 467 976 l 564 1154 l 669 1154 l 572 976 l 467 976 m 468 -14 q 340 -4 394 -14 q 232 29 285 6 q 147 106 176 54 q 117 231 117 157 l 117 901 l 246 901 l 246 232 q 303 112 246 147 q 471 76 360 76 q 637 112 582 76 q 692 232 692 147 l 692 901 l 821 901 l 821 231 q 468 -14 821 -14 z "},"Ū":{"ha":939,"x_min":117,"x_max":821,"o":"m 313 1026 l 313 1108 l 615 1108 l 615 1026 l 313 1026 m 468 -14 q 340 -4 394 -14 q 232 29 285 6 q 147 106 176 54 q 117 231 117 157 l 117 901 l 246 901 l 246 232 q 303 112 246 147 q 471 76 360 76 q 637 112 582 76 q 692 232 692 147 l 692 901 l 821 901 l 821 231 q 468 -14 821 -14 z "},"Ų":{"ha":939,"x_min":117,"x_max":821,"o":"m 526 -258 q 423 -232 457 -258 q 389 -147 389 -206 q 431 -12 389 -83 q 117 231 117 -3 l 117 901 l 246 901 l 246 232 q 303 112 246 147 q 471 76 360 76 q 637 112 582 76 q 692 232 692 147 l 692 901 l 821 901 l 821 231 q 535 -11 821 13 q 499 -135 499 -75 q 553 -181 499 -181 q 596 -171 567 -181 l 596 -244 q 526 -258 568 -258 z "},"Ů":{"ha":996,"x_min":117,"x_max":821,"o":"m 478 976 q 400 980 426 976 q 346 996 374 983 q 306 1036 318 1008 q 293 1113 293 1064 l 293 1129 q 306 1210 293 1181 q 346 1254 318 1240 q 400 1270 374 1267 q 478 1274 426 1274 q 542 1272 519 1274 q 590 1263 565 1269 q 631 1240 617 1254 q 654 1197 644 1225 q 664 1129 664 1172 l 664 1113 q 652 1036 664 1064 q 613 996 640 1008 q 558 980 585 983 q 478 976 531 976 m 478 1035 q 540 1039 519 1035 q 568 1058 560 1043 q 576 1103 576 1072 l 576 1140 q 568 1190 576 1174 q 540 1210 560 1206 q 478 1215 519 1215 q 417 1210 436 1215 q 389 1190 397 1206 q 381 1140 381 1174 l 381 1103 q 389 1058 381 1072 q 417 1039 397 1043 q 478 1035 436 1035 m 468 -14 q 340 -4 394 -14 q 232 29 285 6 q 147 106 176 54 q 117 231 117 157 l 117 901 l 246 901 l 246 232 q 303 112 246 147 q 471 76 360 76 q 637 112 582 76 q 692 232 692 147 l 692 901 l 821 901 l 821 231 q 468 -14 821 -14 z "},"Ũ":{"ha":939,"x_min":117,"x_max":821,"o":"m 468 -14 q 340 -4 394 -14 q 232 29 285 6 q 147 106 176 54 q 117 231 117 157 l 117 901 l 246 901 l 246 232 q 303 112 246 147 q 471 76 360 76 q 637 112 582 76 q 692 232 692 147 l 692 901 l 821 901 l 821 231 q 468 -14 821 -14 m 249 999 q 290 1092 250 1063 q 388 1122 329 1122 q 447 1113 415 1122 q 485 1103 479 1104 q 550 1088 531 1088 q 596 1133 596 1088 l 686 1132 q 649 1028 685 1058 q 550 999 614 999 q 517 1005 538 999 q 476 1018 497 1011 q 428 1032 453 1025 q 388 1039 404 1039 q 338 999 339 1039 l 249 999 z "},"V":{"ha":906,"x_min":21,"x_max":885,"o":"m 371 0 l 21 901 l 161 901 l 450 128 l 463 128 l 751 901 l 885 901 l 526 0 l 371 0 z "},"W":{"ha":1344,"x_min":11,"x_max":1333,"o":"m 293 0 l 11 901 l 154 901 l 378 128 l 381 128 l 604 901 l 747 901 l 971 128 l 974 128 l 1197 901 l 1333 901 l 1043 0 l 886 0 l 671 750 l 450 0 l 293 0 z "},"Ẃ":{"ha":1344,"x_min":11,"x_max":1333,"o":"m 597 976 l 722 1153 l 874 1153 l 700 976 l 597 976 m 293 0 l 11 901 l 154 901 l 378 128 l 381 128 l 604 901 l 747 901 l 971 128 l 974 128 l 1197 901 l 1333 901 l 1043 0 l 886 0 l 671 750 l 450 0 l 293 0 z "},"Ŵ":{"ha":1344,"x_min":11,"x_max":1333,"o":"m 507 976 l 601 1153 l 750 1153 l 842 976 l 761 976 l 675 1097 l 588 976 l 507 976 m 293 0 l 11 901 l 154 901 l 378 128 l 381 128 l 604 901 l 747 901 l 971 128 l 974 128 l 1197 901 l 1333 901 l 1043 0 l 886 0 l 671 750 l 450 0 l 293 0 z "},"Ẅ":{"ha":1344,"x_min":11,"x_max":1333,"o":"m 490 1021 l 490 1151 l 615 1151 l 615 1021 l 490 1021 m 726 1021 l 726 1151 l 851 1151 l 851 1021 l 726 1021 m 293 0 l 11 901 l 154 901 l 378 128 l 381 128 l 604 901 l 747 901 l 971 128 l 974 128 l 1197 901 l 1333 901 l 1043 0 l 886 0 l 671 750 l 450 0 l 293 0 z "},"Ẁ":{"ha":1344,"x_min":11,"x_max":1333,"o":"m 624 976 l 450 1153 l 601 1153 l 726 976 l 624 976 m 293 0 l 11 901 l 154 901 l 378 128 l 381 128 l 604 901 l 747 901 l 971 128 l 974 128 l 1197 901 l 1333 901 l 1043 0 l 886 0 l 671 750 l 450 0 l 293 0 z "},"X":{"ha":839,"x_min":11,"x_max":828,"o":"m 11 0 l 343 460 l 25 901 l 179 901 l 419 553 l 660 901 l 814 901 l 496 460 l 828 0 l 674 0 l 419 367 l 165 0 l 11 0 z "},"Y":{"ha":811,"x_min":11,"x_max":800,"o":"m 338 0 l 338 364 l 11 901 l 165 901 l 406 478 l 646 901 l 800 901 l 472 368 l 472 0 l 338 0 z "},"Ý":{"ha":811,"x_min":11,"x_max":800,"o":"m 338 0 l 338 364 l 11 901 l 165 901 l 406 478 l 646 901 l 800 901 l 472 368 l 472 0 l 338 0 m 336 993 l 461 1169 l 613 1169 l 439 993 l 336 993 z "},"Ŷ":{"ha":811,"x_min":11,"x_max":800,"o":"m 239 976 l 333 1153 l 482 1153 l 574 976 l 493 976 l 407 1097 l 319 976 l 239 976 m 338 0 l 338 364 l 11 901 l 165 901 l 406 478 l 646 901 l 800 901 l 472 368 l 472 0 l 338 0 z "},"Ÿ":{"ha":811,"x_min":11,"x_max":800,"o":"m 222 993 l 222 1124 l 347 1124 l 347 993 l 222 993 m 458 993 l 458 1124 l 583 1124 l 583 993 l 458 993 m 338 0 l 338 364 l 11 901 l 165 901 l 406 478 l 646 901 l 800 901 l 472 368 l 472 0 l 338 0 z "},"Ỵ":{"ha":811,"x_min":11,"x_max":800,"o":"m 338 0 l 338 364 l 11 901 l 165 901 l 406 478 l 646 901 l 800 901 l 472 368 l 472 0 l 338 0 m 339 -210 l 339 -86 l 471 -86 l 471 -210 l 339 -210 z "},"Ỳ":{"ha":811,"x_min":11,"x_max":800,"o":"m 338 0 l 338 364 l 11 901 l 165 901 l 406 478 l 646 901 l 800 901 l 472 368 l 472 0 l 338 0 m 351 989 l 178 1165 l 329 1165 l 454 989 l 351 989 z "},"Ỷ":{"ha":811,"x_min":11,"x_max":800,"o":"m 338 0 l 338 364 l 11 901 l 165 901 l 406 478 l 646 901 l 800 901 l 472 368 l 472 0 l 338 0 m 365 1036 q 372 1067 365 1057 q 393 1088 379 1076 q 417 1114 411 1100 q 422 1151 422 1128 q 408 1181 422 1174 q 361 1189 394 1189 q 326 1185 342 1189 q 306 1179 310 1181 l 306 1256 q 333 1263 319 1261 q 371 1265 346 1265 q 472 1235 439 1265 q 504 1156 504 1206 q 497 1109 504 1132 q 478 1076 490 1086 q 450 1051 458 1061 q 442 1024 442 1042 l 365 1024 l 365 1036 z "},"Ỹ":{"ha":811,"x_min":11,"x_max":800,"o":"m 338 0 l 338 364 l 11 901 l 165 901 l 406 478 l 646 901 l 800 901 l 472 368 l 472 0 l 338 0 m 185 999 q 226 1092 186 1063 q 324 1122 265 1122 q 383 1113 351 1122 q 421 1103 415 1104 q 486 1088 467 1088 q 532 1133 532 1088 l 622 1132 q 585 1028 621 1058 q 486 999 550 999 q 453 1005 474 999 q 413 1018 433 1011 q 365 1032 389 1025 q 324 1039 340 1039 q 274 999 275 1039 l 185 999 z "},"Z":{"ha":806,"x_min":56,"x_max":750,"o":"m 56 0 l 56 94 l 586 807 l 69 807 l 69 901 l 742 901 l 742 807 l 211 94 l 750 94 l 750 0 l 56 0 z "},"Ź":{"ha":806,"x_min":56,"x_max":750,"o":"m 296 976 l 421 1153 l 572 1153 l 399 976 l 296 976 m 56 0 l 56 94 l 586 807 l 69 807 l 69 901 l 742 901 l 742 807 l 211 94 l 750 94 l 750 0 l 56 0 z "},"Ž":{"ha":806,"x_min":56,"x_max":750,"o":"m 317 976 l 222 1153 l 303 1153 l 390 1032 l 476 1153 l 557 1153 l 465 976 l 317 976 m 56 0 l 56 94 l 586 807 l 69 807 l 69 901 l 742 901 l 742 807 l 211 94 l 750 94 l 750 0 l 56 0 z "},"Ż":{"ha":806,"x_min":56,"x_max":750,"o":"m 329 1017 l 329 1153 l 454 1153 l 454 1017 l 329 1017 m 56 0 l 56 94 l 586 807 l 69 807 l 69 901 l 742 901 l 742 807 l 211 94 l 750 94 l 750 0 l 56 0 z "},"a":{"ha":747,"x_min":69,"x_max":639,"o":"m 315 -14 q 167 4 219 -14 q 92 68 115 22 q 69 200 69 114 q 91 319 69 276 q 165 379 113 361 q 313 397 217 397 l 514 397 l 514 504 q 499 562 514 542 q 451 590 485 582 q 351 599 417 599 q 121 582 247 599 l 121 674 q 369 686 258 686 q 542 669 486 686 q 618 608 597 651 q 639 475 639 565 l 639 0 l 518 0 l 518 64 q 315 -14 503 -14 m 336 68 q 451 78 404 68 q 514 136 514 90 l 514 319 l 321 319 q 235 310 261 319 q 200 276 208 301 q 192 196 192 251 q 201 119 192 146 q 236 80 211 92 q 311 68 261 68 l 336 68 z "},"á":{"ha":747,"x_min":69,"x_max":639,"o":"m 315 -14 q 167 4 219 -14 q 92 68 115 22 q 69 200 69 114 q 91 319 69 276 q 165 379 113 361 q 313 397 217 397 l 514 397 l 514 504 q 499 562 514 542 q 451 590 485 582 q 351 599 417 599 q 121 582 247 599 l 121 674 q 369 686 258 686 q 542 669 486 686 q 618 608 597 651 q 639 475 639 565 l 639 0 l 518 0 l 518 64 q 315 -14 503 -14 m 336 68 q 451 78 404 68 q 514 136 514 90 l 514 319 l 321 319 q 235 310 261 319 q 200 276 208 301 q 192 196 192 251 q 201 119 192 146 q 236 80 211 92 q 311 68 261 68 l 336 68 m 304 768 l 429 944 l 581 944 l 407 768 l 304 768 z "},"ă":{"ha":747,"x_min":69,"x_max":639,"o":"m 315 -14 q 167 4 219 -14 q 92 68 115 22 q 69 200 69 114 q 91 319 69 276 q 165 379 113 361 q 313 397 217 397 l 514 397 l 514 504 q 499 562 514 542 q 451 590 485 582 q 351 599 417 599 q 121 582 247 599 l 121 674 q 369 686 258 686 q 542 669 486 686 q 618 608 597 651 q 639 475 639 565 l 639 0 l 518 0 l 518 64 q 315 -14 503 -14 m 336 68 q 451 78 404 68 q 514 136 514 90 l 514 319 l 321 319 q 235 310 261 319 q 200 276 208 301 q 192 196 192 251 q 201 119 192 146 q 236 80 211 92 q 311 68 261 68 l 336 68 m 374 768 q 256 816 300 768 q 210 944 213 864 l 285 944 q 374 850 293 850 q 463 944 454 850 l 538 944 q 492 817 536 865 q 374 768 447 768 z "},"ắ":{"ha":747,"x_min":69,"x_max":639,"o":"m 315 -14 q 167 4 219 -14 q 92 68 115 22 q 69 200 69 114 q 91 319 69 276 q 165 379 113 361 q 313 397 217 397 l 514 397 l 514 504 q 499 562 514 542 q 451 590 485 582 q 351 599 417 599 q 121 582 247 599 l 121 674 q 369 686 258 686 q 542 669 486 686 q 618 608 597 651 q 639 475 639 565 l 639 0 l 518 0 l 518 64 q 315 -14 503 -14 m 336 68 q 451 78 404 68 q 514 136 514 90 l 514 319 l 321 319 q 235 310 261 319 q 200 276 208 301 q 192 196 192 251 q 201 119 192 146 q 236 80 211 92 q 311 68 261 68 l 336 68 m 374 768 q 256 816 300 768 q 210 944 213 864 l 285 944 q 374 850 293 850 q 463 944 454 850 l 538 944 q 492 817 536 865 q 374 768 447 768 m 324 976 l 379 1110 l 531 1110 l 426 976 l 324 976 z "},"ặ":{"ha":747,"x_min":69,"x_max":639,"o":"m 315 -14 q 167 4 219 -14 q 92 68 115 22 q 69 200 69 114 q 91 319 69 276 q 165 379 113 361 q 313 397 217 397 l 514 397 l 514 504 q 499 562 514 542 q 451 590 485 582 q 351 599 417 599 q 121 582 247 599 l 121 674 q 369 686 258 686 q 542 669 486 686 q 618 608 597 651 q 639 475 639 565 l 639 0 l 518 0 l 518 64 q 315 -14 503 -14 m 336 68 q 451 78 404 68 q 514 136 514 90 l 514 319 l 321 319 q 235 310 261 319 q 200 276 208 301 q 192 196 192 251 q 201 119 192 146 q 236 80 211 92 q 311 68 261 68 l 336 68 m 307 -210 l 307 -86 l 439 -86 l 439 -210 l 307 -210 m 374 768 q 256 816 300 768 q 210 944 213 864 l 285 944 q 374 850 293 850 q 463 944 454 850 l 538 944 q 492 817 536 865 q 374 768 447 768 z "},"ằ":{"ha":747,"x_min":69,"x_max":639,"o":"m 315 -14 q 167 4 219 -14 q 92 68 115 22 q 69 200 69 114 q 91 319 69 276 q 165 379 113 361 q 313 397 217 397 l 514 397 l 514 504 q 499 562 514 542 q 451 590 485 582 q 351 599 417 599 q 121 582 247 599 l 121 674 q 369 686 258 686 q 542 669 486 686 q 618 608 597 651 q 639 475 639 565 l 639 0 l 518 0 l 518 64 q 315 -14 503 -14 m 336 68 q 451 78 404 68 q 514 136 514 90 l 514 319 l 321 319 q 235 310 261 319 q 200 276 208 301 q 192 196 192 251 q 201 119 192 146 q 236 80 211 92 q 311 68 261 68 l 336 68 m 374 768 q 256 816 300 768 q 210 944 213 864 l 285 944 q 374 850 293 850 q 463 944 454 850 l 538 944 q 492 817 536 865 q 374 768 447 768 m 332 974 l 240 1107 l 392 1107 l 435 974 l 332 974 z "},"ẳ":{"ha":747,"x_min":69,"x_max":639,"o":"m 315 -14 q 167 4 219 -14 q 92 68 115 22 q 69 200 69 114 q 91 319 69 276 q 165 379 113 361 q 313 397 217 397 l 514 397 l 514 504 q 499 562 514 542 q 451 590 485 582 q 351 599 417 599 q 121 582 247 599 l 121 674 q 369 686 258 686 q 542 669 486 686 q 618 608 597 651 q 639 475 639 565 l 639 0 l 518 0 l 518 64 q 315 -14 503 -14 m 336 68 q 451 78 404 68 q 514 136 514 90 l 514 319 l 321 319 q 235 310 261 319 q 200 276 208 301 q 192 196 192 251 q 201 119 192 146 q 236 80 211 92 q 311 68 261 68 l 336 68 m 374 768 q 256 816 300 768 q 210 944 213 864 l 285 944 q 374 850 293 850 q 463 944 454 850 l 538 944 q 492 817 536 865 q 374 768 447 768 m 333 979 q 340 1010 333 1000 q 361 1031 347 1019 q 385 1057 379 1043 q 390 1094 390 1071 q 376 1124 390 1117 q 329 1132 363 1132 q 294 1128 310 1132 q 274 1122 278 1124 l 274 1199 q 301 1206 288 1204 q 339 1208 314 1208 q 440 1178 407 1208 q 472 1099 472 1149 q 465 1052 472 1075 q 446 1019 458 1029 q 418 994 426 1004 q 410 967 410 985 l 333 967 l 333 979 z "},"ẵ":{"ha":747,"x_min":69,"x_max":639,"o":"m 315 -14 q 167 4 219 -14 q 92 68 115 22 q 69 200 69 114 q 91 319 69 276 q 165 379 113 361 q 313 397 217 397 l 514 397 l 514 504 q 499 562 514 542 q 451 590 485 582 q 351 599 417 599 q 121 582 247 599 l 121 674 q 369 686 258 686 q 542 669 486 686 q 618 608 597 651 q 639 475 639 565 l 639 0 l 518 0 l 518 64 q 315 -14 503 -14 m 336 68 q 451 78 404 68 q 514 136 514 90 l 514 319 l 321 319 q 235 310 261 319 q 200 276 208 301 q 192 196 192 251 q 201 119 192 146 q 236 80 211 92 q 311 68 261 68 l 336 68 m 374 768 q 256 816 300 768 q 210 944 213 864 l 285 944 q 374 850 293 850 q 463 944 454 850 l 538 944 q 492 817 536 865 q 374 768 447 768 m 197 1017 q 236 1083 207 1054 q 311 1111 265 1111 q 397 1090 343 1111 q 472 1069 449 1069 q 511 1081 493 1069 q 538 1114 529 1092 l 581 1089 q 538 1019 569 1050 q 460 989 506 989 q 369 1013 428 989 q 299 1035 315 1035 q 240 989 258 1035 l 197 1017 z "},"â":{"ha":747,"x_min":69,"x_max":639,"o":"m 315 -14 q 167 4 219 -14 q 92 68 115 22 q 69 200 69 114 q 91 319 69 276 q 165 379 113 361 q 313 397 217 397 l 514 397 l 514 504 q 499 562 514 542 q 451 590 485 582 q 351 599 417 599 q 121 582 247 599 l 121 674 q 369 686 258 686 q 542 669 486 686 q 618 608 597 651 q 639 475 639 565 l 639 0 l 518 0 l 518 64 q 315 -14 503 -14 m 336 68 q 451 78 404 68 q 514 136 514 90 l 514 319 l 321 319 q 235 310 261 319 q 200 276 208 301 q 192 196 192 251 q 201 119 192 146 q 236 80 211 92 q 311 68 261 68 l 336 68 m 206 768 l 300 944 l 449 944 l 540 768 l 460 768 l 374 889 l 286 768 l 206 768 z "},"ấ":{"ha":747,"x_min":69,"x_max":725,"o":"m 315 -14 q 167 4 219 -14 q 92 68 115 22 q 69 200 69 114 q 91 319 69 276 q 165 379 113 361 q 313 397 217 397 l 514 397 l 514 504 q 499 562 514 542 q 451 590 485 582 q 351 599 417 599 q 121 582 247 599 l 121 674 q 369 686 258 686 q 542 669 486 686 q 618 608 597 651 q 639 475 639 565 l 639 0 l 518 0 l 518 64 q 315 -14 503 -14 m 336 68 q 451 78 404 68 q 514 136 514 90 l 514 319 l 321 319 q 235 310 261 319 q 200 276 208 301 q 192 196 192 251 q 201 119 192 146 q 236 80 211 92 q 311 68 261 68 l 336 68 m 206 768 l 300 944 l 449 944 l 540 768 l 460 768 l 374 889 l 286 768 l 206 768 m 518 869 l 574 1003 l 725 1003 l 621 869 l 518 869 z "},"ậ":{"ha":747,"x_min":69,"x_max":639,"o":"m 315 -14 q 167 4 219 -14 q 92 68 115 22 q 69 200 69 114 q 91 319 69 276 q 165 379 113 361 q 313 397 217 397 l 514 397 l 514 504 q 499 562 514 542 q 451 590 485 582 q 351 599 417 599 q 121 582 247 599 l 121 674 q 369 686 258 686 q 542 669 486 686 q 618 608 597 651 q 639 475 639 565 l 639 0 l 518 0 l 518 64 q 315 -14 503 -14 m 336 68 q 451 78 404 68 q 514 136 514 90 l 514 319 l 321 319 q 235 310 261 319 q 200 276 208 301 q 192 196 192 251 q 201 119 192 146 q 236 80 211 92 q 311 68 261 68 l 336 68 m 307 -210 l 307 -86 l 439 -86 l 439 -210 l 307 -210 m 206 768 l 300 944 l 449 944 l 540 768 l 460 768 l 374 889 l 286 768 l 206 768 z "},"ầ":{"ha":747,"x_min":69,"x_max":665,"o":"m 315 -14 q 167 4 219 -14 q 92 68 115 22 q 69 200 69 114 q 91 319 69 276 q 165 379 113 361 q 313 397 217 397 l 514 397 l 514 504 q 499 562 514 542 q 451 590 485 582 q 351 599 417 599 q 121 582 247 599 l 121 674 q 369 686 258 686 q 542 669 486 686 q 618 608 597 651 q 639 475 639 565 l 639 0 l 518 0 l 518 64 q 315 -14 503 -14 m 336 68 q 451 78 404 68 q 514 136 514 90 l 514 319 l 321 319 q 235 310 261 319 q 200 276 208 301 q 192 196 192 251 q 201 119 192 146 q 236 80 211 92 q 311 68 261 68 l 336 68 m 206 768 l 300 944 l 449 944 l 540 768 l 460 768 l 374 889 l 286 768 l 206 768 m 563 897 l 471 1031 l 622 1031 l 665 897 l 563 897 z "},"ẩ":{"ha":747,"x_min":69,"x_max":676,"o":"m 315 -14 q 167 4 219 -14 q 92 68 115 22 q 69 200 69 114 q 91 319 69 276 q 165 379 113 361 q 313 397 217 397 l 514 397 l 514 504 q 499 562 514 542 q 451 590 485 582 q 351 599 417 599 q 121 582 247 599 l 121 674 q 369 686 258 686 q 542 669 486 686 q 618 608 597 651 q 639 475 639 565 l 639 0 l 518 0 l 518 64 q 315 -14 503 -14 m 336 68 q 451 78 404 68 q 514 136 514 90 l 514 319 l 321 319 q 235 310 261 319 q 200 276 208 301 q 192 196 192 251 q 201 119 192 146 q 236 80 211 92 q 311 68 261 68 l 336 68 m 206 768 l 300 944 l 449 944 l 540 768 l 460 768 l 374 889 l 286 768 l 206 768 m 538 885 q 544 915 538 906 q 565 936 551 925 q 589 963 583 949 q 594 1000 594 976 q 581 1030 594 1022 q 533 1038 567 1038 q 498 1033 514 1038 q 478 1028 482 1029 l 478 1104 q 505 1112 492 1110 q 543 1114 518 1114 q 644 1084 611 1114 q 676 1004 676 1054 q 669 958 676 981 q 650 925 663 935 q 622 900 631 910 q 614 872 614 890 l 538 872 l 538 885 z "},"ẫ":{"ha":747,"x_min":69,"x_max":639,"o":"m 315 -14 q 167 4 219 -14 q 92 68 115 22 q 69 200 69 114 q 91 319 69 276 q 165 379 113 361 q 313 397 217 397 l 514 397 l 514 504 q 499 562 514 542 q 451 590 485 582 q 351 599 417 599 q 121 582 247 599 l 121 674 q 369 686 258 686 q 542 669 486 686 q 618 608 597 651 q 639 475 639 565 l 639 0 l 518 0 l 518 64 q 315 -14 503 -14 m 336 68 q 451 78 404 68 q 514 136 514 90 l 514 319 l 321 319 q 235 310 261 319 q 200 276 208 301 q 192 196 192 251 q 201 119 192 146 q 236 80 211 92 q 311 68 261 68 l 336 68 m 206 768 l 300 944 l 449 944 l 540 768 l 460 768 l 374 889 l 286 768 l 206 768 m 183 1006 q 222 1072 193 1043 q 297 1100 251 1100 q 383 1079 329 1100 q 458 1058 435 1058 q 497 1069 479 1058 q 524 1103 515 1081 l 567 1078 q 524 1008 556 1039 q 446 978 492 978 q 356 1001 414 978 q 285 1024 301 1024 q 226 978 244 1024 l 183 1006 z "},"ä":{"ha":747,"x_min":69,"x_max":639,"o":"m 181 785 l 181 915 l 306 915 l 306 785 l 181 785 m 417 785 l 417 915 l 542 915 l 542 785 l 417 785 m 315 -14 q 167 4 219 -14 q 92 68 115 22 q 69 200 69 114 q 91 319 69 276 q 165 379 113 361 q 313 397 217 397 l 514 397 l 514 504 q 499 562 514 542 q 451 590 485 582 q 351 599 417 599 q 121 582 247 599 l 121 674 q 369 686 258 686 q 542 669 486 686 q 618 608 597 651 q 639 475 639 565 l 639 0 l 518 0 l 518 64 q 315 -14 503 -14 m 336 68 q 451 78 404 68 q 514 136 514 90 l 514 319 l 321 319 q 235 310 261 319 q 200 276 208 301 q 192 196 192 251 q 201 119 192 146 q 236 80 211 92 q 311 68 261 68 l 336 68 z "},"ạ":{"ha":747,"x_min":69,"x_max":639,"o":"m 315 -14 q 167 4 219 -14 q 92 68 115 22 q 69 200 69 114 q 91 319 69 276 q 165 379 113 361 q 313 397 217 397 l 514 397 l 514 504 q 499 562 514 542 q 451 590 485 582 q 351 599 417 599 q 121 582 247 599 l 121 674 q 369 686 258 686 q 542 669 486 686 q 618 608 597 651 q 639 475 639 565 l 639 0 l 518 0 l 518 64 q 315 -14 503 -14 m 336 68 q 451 78 404 68 q 514 136 514 90 l 514 319 l 321 319 q 235 310 261 319 q 200 276 208 301 q 192 196 192 251 q 201 119 192 146 q 236 80 211 92 q 311 68 261 68 l 336 68 m 307 -210 l 307 -86 l 439 -86 l 439 -210 l 307 -210 z "},"à":{"ha":747,"x_min":69,"x_max":639,"o":"m 315 -14 q 167 4 219 -14 q 92 68 115 22 q 69 200 69 114 q 91 319 69 276 q 165 379 113 361 q 313 397 217 397 l 514 397 l 514 504 q 499 562 514 542 q 451 590 485 582 q 351 599 417 599 q 121 582 247 599 l 121 674 q 369 686 258 686 q 542 669 486 686 q 618 608 597 651 q 639 475 639 565 l 639 0 l 518 0 l 518 64 q 315 -14 503 -14 m 336 68 q 451 78 404 68 q 514 136 514 90 l 514 319 l 321 319 q 235 310 261 319 q 200 276 208 301 q 192 196 192 251 q 201 119 192 146 q 236 80 211 92 q 311 68 261 68 l 336 68 m 317 768 l 143 944 l 294 944 l 419 768 l 317 768 z "},"ả":{"ha":747,"x_min":69,"x_max":639,"o":"m 315 -14 q 167 4 219 -14 q 92 68 115 22 q 69 200 69 114 q 91 319 69 276 q 165 379 113 361 q 313 397 217 397 l 514 397 l 514 504 q 499 562 514 542 q 451 590 485 582 q 351 599 417 599 q 121 582 247 599 l 121 674 q 369 686 258 686 q 542 669 486 686 q 618 608 597 651 q 639 475 639 565 l 639 0 l 518 0 l 518 64 q 315 -14 503 -14 m 336 68 q 451 78 404 68 q 514 136 514 90 l 514 319 l 321 319 q 235 310 261 319 q 200 276 208 301 q 192 196 192 251 q 201 119 192 146 q 236 80 211 92 q 311 68 261 68 l 336 68 m 333 807 q 340 838 333 828 q 361 858 347 847 q 385 885 379 871 q 390 922 390 899 q 376 952 390 944 q 329 960 363 960 q 294 956 310 960 q 274 950 278 951 l 274 1026 q 301 1034 288 1032 q 339 1036 314 1036 q 440 1006 407 1036 q 472 926 472 976 q 465 880 472 903 q 446 847 458 857 q 418 822 426 832 q 410 794 410 813 l 333 794 l 333 807 z "},"ā":{"ha":747,"x_min":69,"x_max":639,"o":"m 222 819 l 222 901 l 525 901 l 525 819 l 222 819 m 315 -14 q 167 4 219 -14 q 92 68 115 22 q 69 200 69 114 q 91 319 69 276 q 165 379 113 361 q 313 397 217 397 l 514 397 l 514 504 q 499 562 514 542 q 451 590 485 582 q 351 599 417 599 q 121 582 247 599 l 121 674 q 369 686 258 686 q 542 669 486 686 q 618 608 597 651 q 639 475 639 565 l 639 0 l 518 0 l 518 64 q 315 -14 503 -14 m 336 68 q 451 78 404 68 q 514 136 514 90 l 514 319 l 321 319 q 235 310 261 319 q 200 276 208 301 q 192 196 192 251 q 201 119 192 146 q 236 80 211 92 q 311 68 261 68 l 336 68 z "},"ą":{"ha":747,"x_min":69,"x_max":675,"o":"m 606 -258 q 501 -232 535 -258 q 468 -147 468 -206 q 518 0 468 -78 l 518 64 q 315 -14 503 -14 q 167 4 219 -14 q 92 68 115 22 q 69 200 69 114 q 91 319 69 276 q 165 379 113 361 q 313 397 217 397 l 514 397 l 514 504 q 499 562 514 542 q 451 590 485 582 q 351 599 417 599 q 121 582 247 599 l 121 674 q 369 686 258 686 q 542 669 486 686 q 618 608 597 651 q 639 475 639 565 l 639 0 q 578 -135 578 -68 q 632 -181 578 -181 q 675 -171 646 -181 l 675 -244 q 606 -258 647 -258 m 336 65 q 451 75 404 65 q 514 133 514 88 l 514 319 l 321 319 q 235 310 261 319 q 200 276 208 301 q 192 196 192 251 q 201 118 192 146 q 237 78 211 90 q 311 65 263 65 l 336 65 z "},"å":{"ha":747,"x_min":69,"x_max":639,"o":"m 372 768 q 294 772 321 768 q 240 788 268 775 q 200 828 213 800 q 188 904 188 856 l 188 921 q 200 1002 188 972 q 240 1046 213 1032 q 294 1062 268 1058 q 372 1065 321 1065 q 437 1063 414 1065 q 485 1054 460 1061 q 525 1031 511 1046 q 549 989 539 1017 q 558 921 558 964 l 558 904 q 547 828 558 856 q 507 788 535 800 q 452 772 479 775 q 372 768 425 768 m 372 826 q 434 831 414 826 q 463 849 454 835 q 471 894 471 864 l 471 932 q 463 981 471 965 q 434 1002 454 997 q 372 1007 414 1007 q 311 1002 331 1007 q 283 981 292 997 q 275 932 275 965 l 275 894 q 283 849 275 864 q 311 831 292 835 q 372 826 331 826 m 315 -14 q 167 4 219 -14 q 92 68 115 22 q 69 200 69 114 q 91 319 69 276 q 165 379 113 361 q 313 397 217 397 l 514 397 l 514 504 q 499 562 514 542 q 451 590 485 582 q 351 599 417 599 q 121 582 247 599 l 121 674 q 369 686 258 686 q 542 669 486 686 q 618 608 597 651 q 639 475 639 565 l 639 0 l 518 0 l 518 64 q 315 -14 503 -14 m 336 68 q 451 78 404 68 q 514 136 514 90 l 514 319 l 321 319 q 235 310 261 319 q 200 276 208 301 q 192 196 192 251 q 201 119 192 146 q 236 80 211 92 q 311 68 261 68 l 336 68 z "},"ã":{"ha":747,"x_min":69,"x_max":639,"o":"m 315 -14 q 167 4 219 -14 q 92 68 115 22 q 69 200 69 114 q 91 319 69 276 q 165 379 113 361 q 313 397 217 397 l 514 397 l 514 504 q 499 562 514 542 q 451 590 485 582 q 351 599 417 599 q 121 582 247 599 l 121 674 q 369 686 258 686 q 542 669 486 686 q 618 608 597 651 q 639 475 639 565 l 639 0 l 518 0 l 518 64 q 315 -14 503 -14 m 336 68 q 451 78 404 68 q 514 136 514 90 l 514 319 l 321 319 q 235 310 261 319 q 200 276 208 301 q 192 196 192 251 q 201 119 192 146 q 236 80 211 92 q 311 68 261 68 l 336 68 m 183 800 q 222 866 193 838 q 297 894 251 894 q 383 874 329 894 q 458 853 435 853 q 497 864 479 853 q 524 897 515 875 l 567 872 q 524 803 556 833 q 446 772 492 772 q 356 796 414 772 q 285 818 301 818 q 226 772 244 818 l 183 800 z "},"æ":{"ha":1167,"x_min":69,"x_max":1085,"o":"m 319 -14 q 167 3 219 -14 q 92 65 114 21 q 69 194 69 108 q 90 318 69 275 q 163 379 111 361 q 313 397 214 397 l 521 397 l 521 501 q 485 576 521 554 q 363 599 450 599 q 121 575 213 599 l 121 667 q 379 686 229 686 q 599 638 543 686 q 811 686 668 686 q 1022 635 958 686 q 1085 457 1085 585 l 1085 308 l 647 308 l 647 207 q 693 107 647 138 q 839 76 739 76 q 1058 110 928 76 l 1058 14 q 818 -14 928 -14 q 567 65 642 -14 q 319 -14 549 -14 m 960 390 l 960 496 q 926 581 960 558 q 806 603 893 603 q 684 580 721 603 q 647 496 647 557 l 647 390 l 960 390 m 325 65 q 383 67 358 65 q 436 72 408 68 q 481 85 465 76 q 510 110 497 93 q 521 151 521 128 l 521 319 l 321 319 q 235 310 261 319 q 200 276 208 301 q 192 196 192 251 q 201 115 192 142 q 239 77 211 89 q 325 65 267 65 z "},"b":{"ha":804,"x_min":108,"x_max":721,"o":"m 408 -14 q 288 -6 333 -14 q 199 22 243 1 q 108 219 108 65 l 108 972 l 233 972 l 233 771 l 233 692 q 232 611 232 656 q 290 665 239 643 q 443 686 343 686 q 721 496 721 686 l 721 219 q 703 115 721 160 q 658 46 686 71 q 590 8 633 22 q 503 -10 546 -6 q 408 -14 464 -14 m 411 68 q 522 78 483 68 q 576 117 560 89 q 593 201 593 144 l 593 465 q 576 551 593 522 q 522 588 560 579 q 410 597 483 597 q 304 586 342 597 q 250 547 267 575 q 233 465 233 518 l 233 201 q 249 117 233 144 q 303 78 265 89 q 411 68 340 68 z "},"c":{"ha":644,"x_min":83,"x_max":594,"o":"m 379 -14 q 278 -11 310 -14 q 207 3 247 -8 q 140 36 164 14 q 100 101 117 58 q 83 206 83 143 l 83 453 q 126 614 83 565 q 174 656 150 642 q 238 676 199 671 q 307 684 276 682 q 393 686 338 686 q 585 665 489 686 l 585 574 q 378 601 474 601 q 272 591 306 601 q 224 553 238 581 q 211 471 211 526 l 211 196 q 226 119 211 144 q 278 84 240 94 q 392 74 317 74 q 594 100 493 74 l 594 6 q 379 -14 500 -14 z "},"ć":{"ha":644,"x_min":83,"x_max":594,"o":"m 290 768 l 415 944 l 567 944 l 393 768 l 290 768 m 379 -14 q 278 -11 310 -14 q 207 3 247 -8 q 140 36 164 14 q 100 101 117 58 q 83 206 83 143 l 83 453 q 126 614 83 565 q 174 656 150 642 q 238 676 199 671 q 307 684 276 682 q 393 686 338 686 q 585 665 489 686 l 585 574 q 378 601 474 601 q 272 591 306 601 q 224 553 238 581 q 211 471 211 526 l 211 196 q 226 119 211 144 q 278 84 240 94 q 392 74 317 74 q 594 100 493 74 l 594 6 q 379 -14 500 -14 z "},"č":{"ha":644,"x_min":83,"x_max":594,"o":"m 296 768 l 201 944 l 282 944 l 369 824 l 456 944 l 536 944 l 444 768 l 296 768 m 379 -14 q 278 -11 310 -14 q 207 3 247 -8 q 140 36 164 14 q 100 101 117 58 q 83 206 83 143 l 83 453 q 126 614 83 565 q 174 656 150 642 q 238 676 199 671 q 307 684 276 682 q 393 686 338 686 q 585 665 489 686 l 585 574 q 378 601 474 601 q 272 591 306 601 q 224 553 238 581 q 211 471 211 526 l 211 196 q 226 119 211 144 q 278 84 240 94 q 392 74 317 74 q 594 100 493 74 l 594 6 q 379 -14 500 -14 z "},"ç":{"ha":644,"x_min":83,"x_max":594,"o":"m 365 -306 q 253 -279 296 -306 l 282 -217 q 363 -240 325 -240 q 428 -185 428 -240 q 397 -143 428 -158 q 319 -128 367 -128 l 274 -128 q 335 -14 307 -71 q 251 -8 283 -12 q 186 10 219 -3 q 131 45 151 22 q 97 108 110 68 q 83 206 83 146 l 83 453 q 126 614 83 565 q 174 656 150 642 q 238 676 199 671 q 307 684 276 682 q 393 686 338 686 q 585 665 489 686 l 585 574 q 378 601 474 601 q 269 592 303 601 q 223 557 235 583 q 211 471 211 531 l 211 193 q 226 117 211 142 q 278 83 240 93 q 392 74 315 74 q 594 100 493 74 l 594 6 q 422 -12 504 -11 l 393 -72 q 485 -102 447 -74 q 522 -181 522 -131 q 477 -272 522 -239 q 365 -306 432 -306 z "},"ĉ":{"ha":644,"x_min":83,"x_max":594,"o":"m 211 768 l 306 944 l 454 944 l 546 768 l 465 768 l 379 889 l 292 768 l 211 768 m 379 -14 q 278 -11 310 -14 q 207 3 247 -8 q 140 36 164 14 q 100 101 117 58 q 83 206 83 143 l 83 453 q 126 614 83 565 q 174 656 150 642 q 238 676 199 671 q 307 684 276 682 q 393 686 338 686 q 585 665 489 686 l 585 574 q 378 601 474 601 q 272 591 306 601 q 224 553 238 581 q 211 471 211 526 l 211 196 q 226 119 211 144 q 278 84 240 94 q 392 74 317 74 q 594 100 493 74 l 594 6 q 379 -14 500 -14 z "},"ċ":{"ha":644,"x_min":83,"x_max":594,"o":"m 314 789 l 314 925 l 439 925 l 439 789 l 314 789 m 379 -14 q 278 -11 310 -14 q 207 3 247 -8 q 140 36 164 14 q 100 101 117 58 q 83 206 83 143 l 83 453 q 126 614 83 565 q 174 656 150 642 q 238 676 199 671 q 307 684 276 682 q 393 686 338 686 q 585 665 489 686 l 585 574 q 378 601 474 601 q 272 591 306 601 q 224 553 238 581 q 211 471 211 526 l 211 196 q 226 119 211 144 q 278 84 240 94 q 392 74 317 74 q 594 100 493 74 l 594 6 q 379 -14 500 -14 z "},"d":{"ha":793,"x_min":83,"x_max":696,"o":"m 349 -14 q 192 6 249 -14 q 109 72 135 26 q 83 200 83 118 l 83 496 q 147 642 83 597 q 356 686 210 686 q 506 664 443 686 q 571 600 569 642 l 574 600 l 571 771 l 571 972 l 696 972 l 696 0 l 574 0 l 574 79 q 514 15 574 42 q 349 -14 454 -14 m 375 72 q 525 96 479 72 q 571 176 571 119 l 571 508 q 386 599 571 599 q 242 582 275 599 q 207 508 207 565 l 207 176 q 245 96 207 119 q 375 72 283 72 z "},"ð":{"ha":789,"x_min":86,"x_max":700,"o":"m 393 -14 q 277 -10 315 -14 q 199 4 239 -7 q 135 40 157 17 q 100 107 114 63 q 86 213 86 147 l 86 446 q 136 626 86 567 q 197 664 157 650 q 285 682 238 678 q 393 686 326 686 q 522 681 478 686 q 424 832 476 767 l 263 785 l 263 864 l 368 896 q 294 972 353 914 l 442 972 l 485 931 l 625 972 l 625 893 l 540 868 q 700 446 700 675 l 700 213 q 651 40 700 96 q 590 6 631 18 q 503 -11 549 -7 q 393 -14 450 -14 m 393 67 q 505 76 468 67 q 558 111 542 85 q 575 194 575 138 l 575 467 q 560 558 575 529 q 508 597 544 588 q 393 606 471 606 q 278 597 315 606 q 226 558 242 588 q 211 467 211 529 l 211 194 q 228 111 211 138 q 281 76 244 85 q 393 67 318 67 z "},"ď":{"ha":840,"x_min":83,"x_max":976,"o":"m 349 -14 q 192 6 249 -14 q 109 72 135 26 q 83 200 83 118 l 83 496 q 147 642 83 597 q 356 686 210 686 q 506 664 443 686 q 571 600 569 642 l 574 600 l 571 771 l 571 963 l 696 963 l 696 0 l 574 0 l 574 79 q 514 15 574 42 q 349 -14 454 -14 m 782 735 l 846 943 l 976 943 l 861 735 l 782 735 m 375 72 q 525 96 479 72 q 571 176 571 119 l 571 508 q 386 599 571 599 q 242 582 275 599 q 207 508 207 565 l 207 176 q 245 96 207 119 q 375 72 283 72 z "},"đ":{"ha":793,"x_min":83,"x_max":696,"o":"m 696 972 l 696 0 l 574 0 l 574 79 q 514 15 574 42 q 349 -14 454 -14 q 192 6 249 -14 q 109 72 135 26 q 83 200 83 118 l 83 496 q 139 636 83 593 l 139 651 l 163 651 q 356 686 226 686 q 456 677 408 686 q 533 651 504 668 l 572 651 l 571 771 l 571 972 l 696 972 m 571 508 q 551 557 571 538 l 217 557 q 207 508 207 539 l 207 176 q 245 96 207 119 q 375 72 283 72 q 525 96 479 72 q 571 176 571 119 l 571 508 z "},"e":{"ha":743,"x_min":83,"x_max":661,"o":"m 392 -14 q 83 192 83 -14 l 83 457 q 153 633 83 579 q 381 686 224 686 q 595 635 529 686 q 661 457 661 583 l 661 308 l 210 308 l 210 207 q 258 107 210 138 q 408 76 307 76 q 635 110 504 76 l 635 14 q 392 -14 507 -14 m 536 390 l 536 496 q 499 580 536 557 q 374 603 463 603 q 249 580 288 603 q 210 496 210 557 l 210 390 l 536 390 z "},"é":{"ha":743,"x_min":83,"x_max":661,"o":"m 392 -14 q 83 192 83 -14 l 83 457 q 153 633 83 579 q 381 686 224 686 q 595 635 529 686 q 661 457 661 583 l 661 308 l 210 308 l 210 207 q 258 107 210 138 q 408 76 307 76 q 635 110 504 76 l 635 14 q 392 -14 507 -14 m 536 390 l 536 496 q 499 580 536 557 q 374 603 463 603 q 249 580 288 603 q 210 496 210 557 l 210 390 l 536 390 m 303 768 l 428 944 l 579 944 l 406 768 l 303 768 z "},"ĕ":{"ha":743,"x_min":83,"x_max":661,"o":"m 386 768 q 269 816 313 768 q 222 944 225 864 l 297 944 q 386 850 306 850 q 475 944 467 850 l 550 944 q 504 817 549 865 q 386 768 460 768 m 392 -14 q 83 192 83 -14 l 83 457 q 153 633 83 579 q 381 686 224 686 q 595 635 529 686 q 661 457 661 583 l 661 308 l 210 308 l 210 207 q 258 107 210 138 q 408 76 307 76 q 635 110 504 76 l 635 14 q 392 -14 507 -14 m 536 390 l 536 496 q 499 580 536 557 q 374 603 463 603 q 249 580 288 603 q 210 496 210 557 l 210 390 l 536 390 z "},"ě":{"ha":743,"x_min":83,"x_max":661,"o":"m 303 768 l 208 944 l 289 944 l 376 824 l 463 944 l 543 944 l 451 768 l 303 768 m 392 -14 q 83 192 83 -14 l 83 457 q 153 633 83 579 q 381 686 224 686 q 595 635 529 686 q 661 457 661 583 l 661 308 l 210 308 l 210 207 q 258 107 210 138 q 408 76 307 76 q 635 110 504 76 l 635 14 q 392 -14 507 -14 m 536 390 l 536 496 q 499 580 536 557 q 374 603 463 603 q 249 580 288 603 q 210 496 210 557 l 210 390 l 536 390 z "},"ê":{"ha":743,"x_min":83,"x_max":661,"o":"m 392 -14 q 83 192 83 -14 l 83 457 q 153 633 83 579 q 381 686 224 686 q 595 635 529 686 q 661 457 661 583 l 661 308 l 210 308 l 210 207 q 258 107 210 138 q 408 76 307 76 q 635 110 504 76 l 635 14 q 392 -14 507 -14 m 536 390 l 536 496 q 499 580 536 557 q 374 603 463 603 q 249 580 288 603 q 210 496 210 557 l 210 390 l 536 390 m 204 768 l 299 944 l 447 944 l 539 768 l 458 768 l 372 889 l 285 768 l 204 768 z "},"ế":{"ha":743,"x_min":83,"x_max":724,"o":"m 392 -14 q 83 192 83 -14 l 83 457 q 153 633 83 579 q 381 686 224 686 q 595 635 529 686 q 661 457 661 583 l 661 308 l 210 308 l 210 207 q 258 107 210 138 q 408 76 307 76 q 635 110 504 76 l 635 14 q 392 -14 507 -14 m 536 390 l 536 496 q 499 580 536 557 q 374 603 463 603 q 249 580 288 603 q 210 496 210 557 l 210 390 l 536 390 m 204 768 l 299 944 l 447 944 l 539 768 l 458 768 l 372 889 l 285 768 l 204 768 m 517 869 l 572 1003 l 724 1003 l 619 869 l 517 869 z "},"ệ":{"ha":743,"x_min":83,"x_max":661,"o":"m 392 -14 q 83 192 83 -14 l 83 457 q 153 633 83 579 q 381 686 224 686 q 595 635 529 686 q 661 457 661 583 l 661 308 l 210 308 l 210 207 q 258 107 210 138 q 408 76 307 76 q 635 110 504 76 l 635 14 q 392 -14 507 -14 m 536 390 l 536 496 q 499 580 536 557 q 374 603 463 603 q 249 580 288 603 q 210 496 210 557 l 210 390 l 536 390 m 306 -210 l 306 -86 l 438 -86 l 438 -210 l 306 -210 m 204 768 l 299 944 l 447 944 l 539 768 l 458 768 l 372 889 l 285 768 l 204 768 z "},"ề":{"ha":743,"x_min":83,"x_max":664,"o":"m 392 -14 q 83 192 83 -14 l 83 457 q 153 633 83 579 q 381 686 224 686 q 595 635 529 686 q 661 457 661 583 l 661 308 l 210 308 l 210 207 q 258 107 210 138 q 408 76 307 76 q 635 110 504 76 l 635 14 q 392 -14 507 -14 m 536 390 l 536 496 q 499 580 536 557 q 374 603 463 603 q 249 580 288 603 q 210 496 210 557 l 210 390 l 536 390 m 204 768 l 299 944 l 447 944 l 539 768 l 458 768 l 372 889 l 285 768 l 204 768 m 561 897 l 469 1031 l 621 1031 l 664 897 l 561 897 z "},"ể":{"ha":743,"x_min":83,"x_max":675,"o":"m 392 -14 q 83 192 83 -14 l 83 457 q 153 633 83 579 q 381 686 224 686 q 595 635 529 686 q 661 457 661 583 l 661 308 l 210 308 l 210 207 q 258 107 210 138 q 408 76 307 76 q 635 110 504 76 l 635 14 q 392 -14 507 -14 m 536 390 l 536 496 q 499 580 536 557 q 374 603 463 603 q 249 580 288 603 q 210 496 210 557 l 210 390 l 536 390 m 204 768 l 299 944 l 447 944 l 539 768 l 458 768 l 372 889 l 285 768 l 204 768 m 536 885 q 543 915 536 906 q 564 936 550 925 q 588 963 582 949 q 593 1000 593 976 q 579 1030 593 1022 q 532 1038 565 1038 q 497 1033 513 1038 q 476 1028 481 1029 l 476 1104 q 503 1112 490 1110 q 542 1114 517 1114 q 642 1084 610 1114 q 675 1004 675 1054 q 668 958 675 981 q 649 925 661 935 q 621 900 629 910 q 613 872 613 890 l 536 872 l 536 885 z "},"ễ":{"ha":743,"x_min":83,"x_max":661,"o":"m 392 -14 q 83 192 83 -14 l 83 457 q 153 633 83 579 q 381 686 224 686 q 595 635 529 686 q 661 457 661 583 l 661 308 l 210 308 l 210 207 q 258 107 210 138 q 408 76 307 76 q 635 110 504 76 l 635 14 q 392 -14 507 -14 m 536 390 l 536 496 q 499 580 536 557 q 374 603 463 603 q 249 580 288 603 q 210 496 210 557 l 210 390 l 536 390 m 204 768 l 299 944 l 447 944 l 539 768 l 458 768 l 372 889 l 285 768 l 204 768 m 182 1006 q 221 1072 192 1043 q 296 1100 250 1100 q 382 1079 328 1100 q 457 1058 433 1058 q 496 1069 478 1058 q 522 1103 514 1081 l 565 1078 q 522 1008 554 1039 q 444 978 490 978 q 354 1001 413 978 q 283 1024 300 1024 q 225 978 243 1024 l 182 1006 z "},"ë":{"ha":743,"x_min":83,"x_max":661,"o":"m 181 785 l 181 915 l 306 915 l 306 785 l 181 785 m 417 785 l 417 915 l 542 915 l 542 785 l 417 785 m 392 -14 q 83 192 83 -14 l 83 457 q 153 633 83 579 q 381 686 224 686 q 595 635 529 686 q 661 457 661 583 l 661 308 l 210 308 l 210 207 q 258 107 210 138 q 408 76 307 76 q 635 110 504 76 l 635 14 q 392 -14 507 -14 m 536 390 l 536 496 q 499 580 536 557 q 374 603 463 603 q 249 580 288 603 q 210 496 210 557 l 210 390 l 536 390 z "},"ė":{"ha":743,"x_min":83,"x_max":661,"o":"m 314 789 l 314 925 l 439 925 l 439 789 l 314 789 m 392 -14 q 83 192 83 -14 l 83 457 q 153 633 83 579 q 381 686 224 686 q 595 635 529 686 q 661 457 661 583 l 661 308 l 210 308 l 210 207 q 258 107 210 138 q 408 76 307 76 q 635 110 504 76 l 635 14 q 392 -14 507 -14 m 536 390 l 536 496 q 499 580 536 557 q 374 603 463 603 q 249 580 288 603 q 210 496 210 557 l 210 390 l 536 390 z "},"ẹ":{"ha":743,"x_min":83,"x_max":661,"o":"m 392 -14 q 83 192 83 -14 l 83 457 q 153 633 83 579 q 381 686 224 686 q 595 635 529 686 q 661 457 661 583 l 661 308 l 210 308 l 210 207 q 258 107 210 138 q 408 76 307 76 q 635 110 504 76 l 635 14 q 392 -14 507 -14 m 536 390 l 536 496 q 499 580 536 557 q 374 603 463 603 q 249 580 288 603 q 210 496 210 557 l 210 390 l 536 390 m 306 -210 l 306 -86 l 438 -86 l 438 -210 l 306 -210 z "},"è":{"ha":743,"x_min":83,"x_max":661,"o":"m 392 -14 q 83 192 83 -14 l 83 457 q 153 633 83 579 q 381 686 224 686 q 595 635 529 686 q 661 457 661 583 l 661 308 l 210 308 l 210 207 q 258 107 210 138 q 408 76 307 76 q 635 110 504 76 l 635 14 q 392 -14 507 -14 m 536 390 l 536 496 q 499 580 536 557 q 374 603 463 603 q 249 580 288 603 q 210 496 210 557 l 210 390 l 536 390 m 315 768 l 142 944 l 293 944 l 418 768 l 315 768 z "},"ẻ":{"ha":743,"x_min":83,"x_max":661,"o":"m 392 -14 q 83 192 83 -14 l 83 457 q 153 633 83 579 q 381 686 224 686 q 595 635 529 686 q 661 457 661 583 l 661 308 l 210 308 l 210 207 q 258 107 210 138 q 408 76 307 76 q 635 110 504 76 l 635 14 q 392 -14 507 -14 m 536 390 l 536 496 q 499 580 536 557 q 374 603 463 603 q 249 580 288 603 q 210 496 210 557 l 210 390 l 536 390 m 332 807 q 339 838 332 828 q 360 858 346 847 q 383 885 378 871 q 389 922 389 899 q 375 952 389 944 q 328 960 361 960 q 292 956 308 960 q 272 950 276 951 l 272 1026 q 299 1034 286 1032 q 338 1036 313 1036 q 438 1006 406 1036 q 471 926 471 976 q 464 880 471 903 q 444 847 457 857 q 417 822 425 832 q 408 794 408 813 l 332 794 l 332 807 z "},"ē":{"ha":743,"x_min":83,"x_max":661,"o":"m 214 811 l 214 899 l 549 899 l 549 811 l 214 811 m 392 -14 q 83 192 83 -14 l 83 457 q 153 633 83 579 q 381 686 224 686 q 595 635 529 686 q 661 457 661 583 l 661 308 l 210 308 l 210 207 q 258 107 210 138 q 408 76 307 76 q 635 110 504 76 l 635 14 q 392 -14 507 -14 m 536 390 l 536 496 q 499 580 536 557 q 374 603 463 603 q 249 580 288 603 q 210 496 210 557 l 210 390 l 536 390 z "},"ę":{"ha":743,"x_min":83,"x_max":661,"o":"m 490 -258 q 387 -232 421 -258 q 353 -147 353 -206 q 393 -14 353 -82 l 375 -14 q 162 38 240 -14 q 83 192 83 89 l 83 457 q 153 633 83 579 q 381 686 224 686 q 595 635 529 686 q 661 457 661 583 l 661 308 l 210 308 l 210 207 q 259 107 210 138 q 414 76 308 76 q 635 110 504 76 l 635 14 q 501 -8 565 -1 q 463 -135 463 -72 q 517 -181 463 -181 q 560 -171 531 -181 l 560 -244 q 490 -258 532 -258 m 536 390 l 536 496 q 500 579 536 556 q 378 603 464 603 q 249 580 288 603 q 210 496 210 557 l 210 390 l 536 390 z "},"ẽ":{"ha":743,"x_min":83,"x_max":661,"o":"m 392 -14 q 83 192 83 -14 l 83 457 q 153 633 83 579 q 381 686 224 686 q 595 635 529 686 q 661 457 661 583 l 661 308 l 210 308 l 210 207 q 258 107 210 138 q 408 76 307 76 q 635 110 504 76 l 635 14 q 392 -14 507 -14 m 536 390 l 536 496 q 499 580 536 557 q 374 603 463 603 q 249 580 288 603 q 210 496 210 557 l 210 390 l 536 390 m 182 800 q 221 866 192 838 q 296 894 250 894 q 382 874 328 894 q 457 853 433 853 q 496 864 478 853 q 522 897 514 875 l 565 872 q 522 803 554 833 q 444 772 490 772 q 354 796 413 772 q 283 818 300 818 q 225 772 243 818 l 182 800 z "},"f":{"ha":528,"x_min":14,"x_max":531,"o":"m 168 590 l 14 590 l 14 672 l 168 672 l 168 781 q 230 938 168 890 q 418 986 292 986 q 531 979 465 986 l 531 897 q 422 904 478 904 q 323 879 353 904 q 293 789 293 854 l 293 672 l 517 672 l 517 590 l 293 590 l 293 0 l 168 0 l 168 590 z "},"g":{"ha":790,"x_min":83,"x_max":682,"o":"m 363 -306 q 131 -290 225 -306 l 131 -201 q 374 -221 297 -221 q 513 -190 469 -221 q 557 -89 557 -160 l 557 72 q 497 7 554 28 q 351 -14 439 -14 q 190 6 247 -14 q 108 69 132 25 q 83 190 83 114 l 83 464 q 148 635 83 583 q 360 686 213 686 q 565 607 535 686 l 565 672 l 682 672 l 682 -64 q 647 -210 682 -157 q 543 -284 613 -262 q 363 -306 474 -306 m 378 69 q 517 93 476 69 q 557 182 557 117 l 557 486 q 542 556 557 532 q 489 590 528 579 q 375 600 450 600 q 269 590 304 600 q 220 556 233 581 q 207 486 207 532 l 207 182 q 221 111 207 135 q 271 78 235 88 q 378 69 307 69 z "},"ğ":{"ha":790,"x_min":83,"x_max":682,"o":"m 368 768 q 251 816 294 768 q 204 944 207 864 l 279 944 q 368 850 288 850 q 457 944 449 850 l 532 944 q 486 817 531 865 q 368 768 442 768 m 363 -306 q 131 -290 225 -306 l 131 -201 q 374 -221 297 -221 q 513 -190 469 -221 q 557 -89 557 -160 l 557 72 q 497 7 554 28 q 351 -14 439 -14 q 190 6 247 -14 q 108 69 132 25 q 83 190 83 114 l 83 464 q 148 635 83 583 q 360 686 213 686 q 565 607 535 686 l 565 672 l 682 672 l 682 -64 q 647 -210 682 -157 q 543 -284 613 -262 q 363 -306 474 -306 m 378 69 q 517 93 476 69 q 557 182 557 117 l 557 486 q 542 556 557 532 q 489 590 528 579 q 375 600 450 600 q 269 590 304 600 q 220 556 233 581 q 207 486 207 532 l 207 182 q 221 111 207 135 q 271 78 235 88 q 378 69 307 69 z "},"ĝ":{"ha":790,"x_min":83,"x_max":682,"o":"m 219 768 l 314 944 l 463 944 l 554 768 l 474 768 l 388 889 l 300 768 l 219 768 m 363 -306 q 131 -290 225 -306 l 131 -201 q 374 -221 297 -221 q 513 -190 469 -221 q 557 -89 557 -160 l 557 72 q 497 7 554 28 q 351 -14 439 -14 q 190 6 247 -14 q 108 69 132 25 q 83 190 83 114 l 83 464 q 148 635 83 583 q 360 686 213 686 q 565 607 535 686 l 565 672 l 682 672 l 682 -64 q 647 -210 682 -157 q 543 -284 613 -262 q 363 -306 474 -306 m 378 69 q 517 93 476 69 q 557 182 557 117 l 557 486 q 542 556 557 532 q 489 590 528 579 q 375 600 450 600 q 269 590 304 600 q 220 556 233 581 q 207 486 207 532 l 207 182 q 221 111 207 135 q 271 78 235 88 q 378 69 307 69 z "},"ģ":{"ha":790,"x_min":83,"x_max":682,"o":"m 336 749 l 400 957 l 531 957 l 415 749 l 336 749 m 363 -264 q 131 -249 225 -264 l 131 -160 q 374 -179 297 -179 q 519 -148 472 -179 q 565 -47 565 -117 l 565 72 q 501 7 563 28 q 351 -14 440 -14 q 190 6 247 -14 q 108 69 132 25 q 83 190 83 114 l 83 464 q 148 635 83 583 q 360 686 213 686 q 565 607 535 686 l 565 672 l 682 672 l 682 -22 q 647 -168 682 -115 q 543 -242 613 -221 q 363 -264 474 -264 m 378 69 q 517 93 476 69 q 557 182 557 117 l 557 486 q 542 556 557 532 q 489 590 528 579 q 375 600 450 600 q 269 590 304 600 q 220 556 233 581 q 207 486 207 532 l 207 182 q 221 111 207 135 q 271 78 235 88 q 378 69 307 69 z "},"ġ":{"ha":790,"x_min":83,"x_max":682,"o":"m 322 789 l 322 925 l 447 925 l 447 789 l 322 789 m 363 -306 q 131 -290 225 -306 l 131 -201 q 374 -221 297 -221 q 513 -190 469 -221 q 557 -89 557 -160 l 557 72 q 497 7 554 28 q 351 -14 439 -14 q 190 6 247 -14 q 108 69 132 25 q 83 190 83 114 l 83 464 q 148 635 83 583 q 360 686 213 686 q 565 607 535 686 l 565 672 l 682 672 l 682 -64 q 647 -210 682 -157 q 543 -284 613 -262 q 363 -306 474 -306 m 378 69 q 517 93 476 69 q 557 182 557 117 l 557 486 q 542 556 557 532 q 489 590 528 579 q 375 600 450 600 q 269 590 304 600 q 220 556 233 581 q 207 486 207 532 l 207 182 q 221 111 207 135 q 271 78 235 88 q 378 69 307 69 z "},"h":{"ha":796,"x_min":108,"x_max":688,"o":"m 108 972 l 233 972 l 233 590 q 454 686 253 686 q 635 640 583 686 q 688 493 688 593 l 688 0 l 563 0 l 563 485 q 558 528 563 511 q 542 561 554 544 q 418 596 514 596 q 302 585 342 596 q 248 551 263 575 q 233 485 233 528 l 233 0 l 108 0 l 108 972 z "},"ħ":{"ha":796,"x_min":26,"x_max":688,"o":"m 108 768 l 26 768 l 26 840 l 108 840 l 108 972 l 233 972 l 233 840 l 386 840 l 386 768 l 233 768 l 233 590 q 454 686 253 686 q 635 640 583 686 q 688 493 688 593 l 688 0 l 563 0 l 563 485 q 558 528 563 511 q 542 561 554 544 q 418 596 514 596 q 302 585 342 596 q 248 551 263 575 q 233 485 233 528 l 233 0 l 108 0 l 108 768 z "},"ĥ":{"ha":796,"x_min":14,"x_max":688,"o":"m 14 1018 l 108 1194 l 257 1194 l 349 1018 l 268 1018 l 182 1139 l 94 1018 l 14 1018 m 108 972 l 233 972 l 233 590 q 454 686 253 686 q 635 640 583 686 q 688 493 688 593 l 688 0 l 563 0 l 563 485 q 558 528 563 511 q 542 561 554 544 q 418 596 514 596 q 302 585 342 596 q 248 551 263 575 q 233 485 233 528 l 233 0 l 108 0 l 108 972 z "},"i":{"ha":342,"x_min":108,"x_max":233,"o":"m 108 785 l 108 915 l 233 915 l 233 785 l 108 785 m 108 0 l 108 672 l 233 672 l 233 0 l 108 0 z "},"ı":{"ha":342,"x_min":110,"x_max":235,"o":"m 110 0 l 110 672 l 235 672 l 235 0 l 110 0 z "},"í":{"ha":342,"x_min":101,"x_max":378,"o":"m 110 0 l 110 672 l 235 672 l 235 0 l 110 0 m 101 768 l 226 944 l 378 944 l 204 768 l 101 768 z "},"ĭ":{"ha":342,"x_min":8,"x_max":336,"o":"m 172 768 q 55 816 99 768 q 8 944 11 864 l 83 944 q 172 850 92 850 q 261 944 253 850 l 336 944 q 290 817 335 865 q 172 768 246 768 m 110 0 l 110 672 l 235 672 l 235 0 l 110 0 z "},"î":{"ha":342,"x_min":10,"x_max":344,"o":"m 10 768 l 104 944 l 253 944 l 344 768 l 264 768 l 178 889 l 90 768 l 10 768 m 110 0 l 110 672 l 235 672 l 235 0 l 110 0 z "},"ï":{"ha":342,"x_min":-7,"x_max":354,"o":"m -7 785 l -7 915 l 118 915 l 118 785 l -7 785 m 229 785 l 229 915 l 354 915 l 354 785 l 229 785 m 110 0 l 110 672 l 235 672 l 235 0 l 110 0 z "},"ị":{"ha":342,"x_min":104,"x_max":236,"o":"m 108 785 l 108 915 l 233 915 l 233 785 l 108 785 m 108 0 l 108 672 l 233 672 l 233 0 l 108 0 m 104 -210 l 104 -86 l 236 -86 l 236 -210 l 104 -210 z "},"ì":{"ha":342,"x_min":-60,"x_max":235,"o":"m 110 0 l 110 672 l 235 672 l 235 0 l 110 0 m 114 768 l -60 944 l 92 944 l 217 768 l 114 768 z "},"ỉ":{"ha":342,"x_min":71,"x_max":269,"o":"m 110 0 l 110 672 l 235 672 l 235 0 l 110 0 m 131 807 q 138 838 131 828 q 158 858 144 847 q 182 885 176 871 q 188 922 188 899 q 174 952 188 944 q 126 960 160 960 q 91 956 107 960 q 71 950 75 951 l 71 1026 q 98 1034 85 1032 q 136 1036 111 1036 q 237 1006 204 1036 q 269 926 269 976 q 263 880 269 903 q 243 847 256 857 q 215 822 224 832 q 207 794 207 813 l 131 794 l 131 807 z "},"ĳ":{"ha":663,"x_min":108,"x_max":554,"o":"m 108 785 l 108 917 l 233 917 l 233 785 l 108 785 m 429 785 l 429 917 l 554 917 l 554 785 l 429 785 m 108 0 l 108 672 l 233 672 l 233 0 l 108 0 m 331 -260 q 260 -258 275 -260 l 260 -181 q 285 -182 265 -182 q 372 -174 342 -182 q 415 -140 401 -165 q 429 -65 429 -115 l 429 672 l 554 672 l 554 -56 q 533 -183 554 -139 q 465 -243 513 -226 q 331 -260 418 -260 z "},"ī":{"ha":342,"x_min":4,"x_max":339,"o":"m 4 821 l 4 908 l 339 908 l 339 821 l 4 821 m 110 0 l 110 672 l 235 672 l 235 0 l 110 0 z "},"į":{"ha":342,"x_min":60,"x_max":267,"o":"m 197 -258 q 93 -232 126 -258 q 60 -147 60 -206 q 110 0 60 -78 l 110 672 l 235 672 l 235 0 q 169 -135 169 -62 q 224 -181 169 -181 q 267 -171 238 -181 l 267 -244 q 197 -258 239 -258 z "},"ĩ":{"ha":342,"x_min":-19,"x_max":364,"o":"m 110 0 l 110 672 l 235 672 l 235 0 l 110 0 m -19 800 q 19 866 -10 838 q 94 894 49 894 q 181 874 126 894 q 256 853 232 853 q 294 864 276 853 q 321 897 313 875 l 364 872 q 321 803 353 833 q 243 772 289 772 q 153 796 211 772 q 82 818 99 818 q 24 772 42 818 l -19 800 z "},"j":{"ha":343,"x_min":-60,"x_max":235,"o":"m 110 785 l 110 915 l 235 915 l 235 785 l 110 785 m 11 -306 q -60 -300 -28 -306 l -60 -218 q -7 -224 -31 -224 q 82 -199 54 -224 q 110 -111 110 -175 l 110 672 l 235 672 l 235 -101 q 182 -260 235 -214 q 11 -306 129 -306 z "},"ȷ":{"ha":343,"x_min":-60,"x_max":235,"o":"m 11 -306 q -60 -304 -44 -306 l -60 -226 q -35 -228 -54 -228 q 52 -219 22 -228 q 96 -186 82 -211 q 110 -111 110 -161 l 110 672 l 235 672 l 235 -101 q 214 -228 235 -185 q 146 -289 193 -272 q 11 -306 99 -306 z "},"ĵ":{"ha":343,"x_min":-60,"x_max":344,"o":"m 10 768 l 104 944 l 253 944 l 344 768 l 264 768 l 178 889 l 90 768 l 10 768 m 11 -306 q -60 -304 -44 -306 l -60 -226 q -35 -228 -54 -228 q 52 -219 22 -228 q 96 -186 82 -211 q 110 -111 110 -161 l 110 672 l 235 672 l 235 -101 q 214 -228 235 -185 q 146 -289 193 -272 q 11 -306 99 -306 z "},"k":{"ha":714,"x_min":108,"x_max":711,"o":"m 108 0 l 108 972 l 233 972 l 233 0 l 108 0 m 556 0 l 249 368 l 532 672 l 685 672 l 393 368 l 711 0 l 556 0 z "},"ķ":{"ha":714,"x_min":108,"x_max":711,"o":"m 108 0 l 108 963 l 233 963 l 233 0 l 108 0 m 556 0 l 249 368 l 532 672 l 685 672 l 393 368 l 711 0 l 556 0 m 253 -264 l 317 -56 l 447 -56 l 332 -264 l 253 -264 z "},"ĸ":{"ha":806,"x_min":117,"x_max":794,"o":"m 117 0 l 117 672 l 242 672 l 242 0 l 117 0 m 619 0 l 244 347 l 592 672 l 754 672 l 404 353 l 794 0 l 619 0 z "},"l":{"ha":342,"x_min":108,"x_max":233,"o":"m 108 0 l 108 972 l 233 972 l 233 0 l 108 0 z "},"ĺ":{"ha":342,"x_min":108,"x_max":385,"o":"m 108 1029 l 233 1206 l 385 1206 l 211 1029 l 108 1029 m 108 0 l 108 972 l 233 972 l 233 0 l 108 0 z "},"ľ":{"ha":406,"x_min":108,"x_max":503,"o":"m 108 0 l 108 963 l 233 963 l 233 0 l 108 0 m 308 735 l 372 943 l 503 943 l 388 735 l 308 735 z "},"ļ":{"ha":342,"x_min":58,"x_max":253,"o":"m 108 0 l 108 963 l 233 963 l 233 0 l 108 0 m 58 -264 l 122 -56 l 253 -56 l 138 -264 l 58 -264 z "},"ŀ":{"ha":417,"x_min":108,"x_max":442,"o":"m 108 0 l 108 963 l 233 963 l 233 0 l 108 0 m 317 514 l 317 650 l 442 650 l 442 514 l 317 514 z "},"ł":{"ha":342,"x_min":0,"x_max":342,"o":"m 108 0 l 108 493 l 0 449 l 0 547 l 108 592 l 108 972 l 233 972 l 233 642 l 342 686 l 342 588 l 233 543 l 233 0 l 108 0 z "},"m":{"ha":1236,"x_min":108,"x_max":1128,"o":"m 108 672 l 233 672 l 233 590 q 460 686 253 686 q 669 594 628 686 q 745 663 682 639 q 900 686 808 686 q 1076 640 1025 686 q 1128 493 1128 593 l 1128 0 l 1003 0 l 1003 485 q 999 528 1003 511 q 982 561 994 544 q 858 596 954 596 q 749 586 785 596 q 699 553 713 576 q 686 485 686 529 l 686 0 l 561 0 l 561 485 q 557 528 561 511 q 540 561 553 544 q 418 596 513 596 q 303 586 342 596 q 249 553 264 576 q 233 485 233 531 l 233 0 l 108 0 l 108 672 z "},"n":{"ha":796,"x_min":108,"x_max":688,"o":"m 108 672 l 233 672 l 233 590 q 454 686 253 686 q 635 640 583 686 q 688 493 688 593 l 688 0 l 563 0 l 563 486 q 558 529 563 513 q 542 563 554 546 q 418 597 514 597 q 305 587 344 597 q 249 553 265 576 q 233 486 233 529 l 233 0 l 108 0 l 108 672 z "},"ń":{"ha":796,"x_min":108,"x_max":688,"o":"m 306 768 l 431 944 l 582 944 l 408 768 l 306 768 m 108 672 l 233 672 l 233 590 q 454 686 253 686 q 635 640 583 686 q 688 493 688 593 l 688 0 l 563 0 l 563 486 q 558 529 563 513 q 542 563 554 546 q 418 597 514 597 q 305 587 344 597 q 249 553 265 576 q 233 486 233 529 l 233 0 l 108 0 l 108 672 z "},"ň":{"ha":796,"x_min":108,"x_max":688,"o":"m 303 768 l 208 944 l 289 944 l 376 824 l 463 944 l 543 944 l 451 768 l 303 768 m 108 672 l 233 672 l 233 590 q 454 686 253 686 q 635 640 583 686 q 688 493 688 593 l 688 0 l 563 0 l 563 486 q 558 529 563 513 q 542 563 554 546 q 418 597 514 597 q 305 587 344 597 q 249 553 265 576 q 233 486 233 529 l 233 0 l 108 0 l 108 672 z "},"ņ":{"ha":796,"x_min":108,"x_max":688,"o":"m 108 672 l 233 672 l 233 590 q 454 686 253 686 q 635 640 583 686 q 688 493 688 593 l 688 0 l 563 0 l 563 486 q 558 529 563 513 q 542 563 554 546 q 418 597 514 597 q 305 587 344 597 q 249 553 265 576 q 233 486 233 529 l 233 0 l 108 0 l 108 672 m 283 -264 l 347 -56 l 478 -56 l 363 -264 l 283 -264 z "},"ŋ":{"ha":796,"x_min":108,"x_max":688,"o":"m 431 -217 q 534 -189 506 -217 q 563 -106 563 -161 l 563 486 q 558 529 563 513 q 542 563 554 546 q 418 597 514 597 q 305 587 344 597 q 249 553 265 576 q 233 486 233 529 l 233 0 l 108 0 l 108 672 l 233 672 l 233 590 q 454 686 253 686 q 635 640 583 686 q 688 493 688 593 l 688 -112 q 669 -224 688 -182 q 602 -285 650 -265 q 467 -306 554 -306 l 431 -306 l 431 -217 z "},"ñ":{"ha":796,"x_min":108,"x_max":688,"o":"m 208 853 q 299 893 242 893 q 389 869 331 893 q 472 846 447 846 q 521 860 501 846 q 563 906 540 874 l 563 810 q 472 756 532 756 q 381 781 438 756 q 299 806 325 806 q 208 751 244 806 l 208 853 m 108 672 l 233 672 l 233 590 q 454 686 253 686 q 635 640 583 686 q 688 493 688 593 l 688 0 l 563 0 l 563 486 q 558 529 563 513 q 542 563 554 546 q 418 597 514 597 q 305 587 344 597 q 249 553 265 576 q 233 486 233 529 l 233 0 l 108 0 l 108 672 z "},"o":{"ha":789,"x_min":83,"x_max":703,"o":"m 393 -14 q 260 -8 304 -14 q 171 19 215 -1 q 104 87 125 40 q 83 213 83 133 l 83 446 q 99 556 83 508 q 139 629 114 603 q 202 666 160 653 q 289 683 244 679 q 393 686 339 686 q 502 683 465 686 q 581 668 539 679 q 647 631 624 656 q 688 558 671 606 q 703 446 703 510 l 703 213 q 649 40 703 94 q 585 6 626 18 q 499 -11 543 -7 q 393 -14 446 -14 m 393 68 q 478 71 451 68 q 529 86 504 74 q 565 123 554 97 q 575 194 575 149 l 575 467 q 560 558 575 529 q 508 595 544 586 q 393 604 471 604 q 278 595 315 604 q 226 558 242 586 q 211 467 211 529 l 211 194 q 222 123 211 149 q 257 86 232 97 q 308 71 282 74 q 393 68 335 68 z "},"ó":{"ha":789,"x_min":83,"x_max":703,"o":"m 393 -14 q 260 -8 304 -14 q 171 19 215 -1 q 104 87 125 40 q 83 213 83 133 l 83 446 q 99 556 83 508 q 139 629 114 603 q 202 666 160 653 q 289 683 244 679 q 393 686 339 686 q 502 683 465 686 q 581 668 539 679 q 647 631 624 656 q 688 558 671 606 q 703 446 703 510 l 703 213 q 649 40 703 94 q 585 6 626 18 q 499 -11 543 -7 q 393 -14 446 -14 m 393 68 q 478 71 451 68 q 529 86 504 74 q 565 123 554 97 q 575 194 575 149 l 575 467 q 560 558 575 529 q 508 595 544 586 q 393 604 471 604 q 278 595 315 604 q 226 558 242 586 q 211 467 211 529 l 211 194 q 222 123 211 149 q 257 86 232 97 q 308 71 282 74 q 393 68 335 68 m 325 768 l 450 944 l 601 944 l 428 768 l 325 768 z "},"ŏ":{"ha":789,"x_min":83,"x_max":703,"o":"m 388 768 q 270 816 314 768 q 224 944 226 864 l 299 944 q 388 850 307 850 q 476 944 468 850 l 551 944 q 506 817 550 865 q 388 768 461 768 m 393 -14 q 260 -8 304 -14 q 171 19 215 -1 q 104 87 125 40 q 83 213 83 133 l 83 446 q 99 556 83 508 q 139 629 114 603 q 202 666 160 653 q 289 683 244 679 q 393 686 339 686 q 502 683 465 686 q 581 668 539 679 q 647 631 624 656 q 688 558 671 606 q 703 446 703 510 l 703 213 q 649 40 703 94 q 585 6 626 18 q 499 -11 543 -7 q 393 -14 446 -14 m 393 68 q 478 71 451 68 q 529 86 504 74 q 565 123 554 97 q 575 194 575 149 l 575 467 q 560 558 575 529 q 508 595 544 586 q 393 604 471 604 q 278 595 315 604 q 226 558 242 586 q 211 467 211 529 l 211 194 q 222 123 211 149 q 257 86 232 97 q 308 71 282 74 q 393 68 335 68 z "},"ô":{"ha":789,"x_min":83,"x_max":703,"o":"m 393 -14 q 260 -8 304 -14 q 171 19 215 -1 q 104 87 125 40 q 83 213 83 133 l 83 446 q 99 556 83 508 q 139 629 114 603 q 202 666 160 653 q 289 683 244 679 q 393 686 339 686 q 502 683 465 686 q 581 668 539 679 q 647 631 624 656 q 688 558 671 606 q 703 446 703 510 l 703 213 q 649 40 703 94 q 585 6 626 18 q 499 -11 543 -7 q 393 -14 446 -14 m 393 68 q 478 71 451 68 q 529 86 504 74 q 565 123 554 97 q 575 194 575 149 l 575 467 q 560 558 575 529 q 508 595 544 586 q 393 604 471 604 q 278 595 315 604 q 226 558 242 586 q 211 467 211 529 l 211 194 q 222 123 211 149 q 257 86 232 97 q 308 71 282 74 q 393 68 335 68 m 226 768 l 321 944 l 469 944 l 561 768 l 481 768 l 394 889 l 307 768 l 226 768 z "},"ố":{"ha":789,"x_min":83,"x_max":746,"o":"m 393 -14 q 260 -8 304 -14 q 171 19 215 -1 q 104 87 125 40 q 83 213 83 133 l 83 446 q 99 556 83 508 q 139 629 114 603 q 202 666 160 653 q 289 683 244 679 q 393 686 339 686 q 502 683 465 686 q 581 668 539 679 q 647 631 624 656 q 688 558 671 606 q 703 446 703 510 l 703 213 q 649 40 703 94 q 585 6 626 18 q 499 -11 543 -7 q 393 -14 446 -14 m 393 68 q 478 71 451 68 q 529 86 504 74 q 565 123 554 97 q 575 194 575 149 l 575 467 q 560 558 575 529 q 508 595 544 586 q 393 604 471 604 q 278 595 315 604 q 226 558 242 586 q 211 467 211 529 l 211 194 q 222 123 211 149 q 257 86 232 97 q 308 71 282 74 q 393 68 335 68 m 226 768 l 321 944 l 469 944 l 561 768 l 481 768 l 394 889 l 307 768 l 226 768 m 539 869 l 594 1003 l 746 1003 l 642 869 l 539 869 z "},"ộ":{"ha":789,"x_min":83,"x_max":703,"o":"m 393 -14 q 260 -8 304 -14 q 171 19 215 -1 q 104 87 125 40 q 83 213 83 133 l 83 446 q 99 556 83 508 q 139 629 114 603 q 202 666 160 653 q 289 683 244 679 q 393 686 339 686 q 502 683 465 686 q 581 668 539 679 q 647 631 624 656 q 688 558 671 606 q 703 446 703 510 l 703 213 q 649 40 703 94 q 585 6 626 18 q 499 -11 543 -7 q 393 -14 446 -14 m 393 68 q 478 71 451 68 q 529 86 504 74 q 565 123 554 97 q 575 194 575 149 l 575 467 q 560 558 575 529 q 508 595 544 586 q 393 604 471 604 q 278 595 315 604 q 226 558 242 586 q 211 467 211 529 l 211 194 q 222 123 211 149 q 257 86 232 97 q 308 71 282 74 q 393 68 335 68 m 328 -210 l 328 -86 l 460 -86 l 460 -210 l 328 -210 m 226 768 l 321 944 l 469 944 l 561 768 l 481 768 l 394 889 l 307 768 l 226 768 z "},"ồ":{"ha":789,"x_min":83,"x_max":703,"o":"m 393 -14 q 260 -8 304 -14 q 171 19 215 -1 q 104 87 125 40 q 83 213 83 133 l 83 446 q 99 556 83 508 q 139 629 114 603 q 202 666 160 653 q 289 683 244 679 q 393 686 339 686 q 502 683 465 686 q 581 668 539 679 q 647 631 624 656 q 688 558 671 606 q 703 446 703 510 l 703 213 q 649 40 703 94 q 585 6 626 18 q 499 -11 543 -7 q 393 -14 446 -14 m 393 68 q 478 71 451 68 q 529 86 504 74 q 565 123 554 97 q 575 194 575 149 l 575 467 q 560 558 575 529 q 508 595 544 586 q 393 604 471 604 q 278 595 315 604 q 226 558 242 586 q 211 467 211 529 l 211 194 q 222 123 211 149 q 257 86 232 97 q 308 71 282 74 q 393 68 335 68 m 226 768 l 321 944 l 469 944 l 561 768 l 481 768 l 394 889 l 307 768 l 226 768 m 583 897 l 492 1031 l 643 1031 l 686 897 l 583 897 z "},"ổ":{"ha":789,"x_min":83,"x_max":703,"o":"m 393 -14 q 260 -8 304 -14 q 171 19 215 -1 q 104 87 125 40 q 83 213 83 133 l 83 446 q 99 556 83 508 q 139 629 114 603 q 202 666 160 653 q 289 683 244 679 q 393 686 339 686 q 502 683 465 686 q 581 668 539 679 q 647 631 624 656 q 688 558 671 606 q 703 446 703 510 l 703 213 q 649 40 703 94 q 585 6 626 18 q 499 -11 543 -7 q 393 -14 446 -14 m 393 68 q 478 71 451 68 q 529 86 504 74 q 565 123 554 97 q 575 194 575 149 l 575 467 q 560 558 575 529 q 508 595 544 586 q 393 604 471 604 q 278 595 315 604 q 226 558 242 586 q 211 467 211 529 l 211 194 q 222 123 211 149 q 257 86 232 97 q 308 71 282 74 q 393 68 335 68 m 226 768 l 321 944 l 469 944 l 561 768 l 481 768 l 394 889 l 307 768 l 226 768 m 558 885 q 565 915 558 906 q 586 936 572 925 q 610 963 604 949 q 615 1000 615 976 q 601 1030 615 1022 q 554 1038 588 1038 q 519 1033 535 1038 q 499 1028 503 1029 l 499 1104 q 526 1112 513 1110 q 564 1114 539 1114 q 665 1084 632 1114 q 697 1004 697 1054 q 690 958 697 981 q 671 925 683 935 q 643 900 651 910 q 635 872 635 890 l 558 872 l 558 885 z "},"ỗ":{"ha":789,"x_min":83,"x_max":703,"o":"m 393 -14 q 260 -8 304 -14 q 171 19 215 -1 q 104 87 125 40 q 83 213 83 133 l 83 446 q 99 556 83 508 q 139 629 114 603 q 202 666 160 653 q 289 683 244 679 q 393 686 339 686 q 502 683 465 686 q 581 668 539 679 q 647 631 624 656 q 688 558 671 606 q 703 446 703 510 l 703 213 q 649 40 703 94 q 585 6 626 18 q 499 -11 543 -7 q 393 -14 446 -14 m 393 68 q 478 71 451 68 q 529 86 504 74 q 565 123 554 97 q 575 194 575 149 l 575 467 q 560 558 575 529 q 508 595 544 586 q 393 604 471 604 q 278 595 315 604 q 226 558 242 586 q 211 467 211 529 l 211 194 q 222 123 211 149 q 257 86 232 97 q 308 71 282 74 q 393 68 335 68 m 226 768 l 321 944 l 469 944 l 561 768 l 481 768 l 394 889 l 307 768 l 226 768 m 204 1006 q 243 1072 214 1043 q 318 1100 272 1100 q 404 1079 350 1100 q 479 1058 456 1058 q 518 1069 500 1058 q 544 1103 536 1081 l 588 1078 q 544 1008 576 1039 q 467 978 513 978 q 376 1001 435 978 q 306 1024 322 1024 q 247 978 265 1024 l 204 1006 z "},"ö":{"ha":789,"x_min":83,"x_max":703,"o":"m 214 785 l 214 915 l 339 915 l 339 785 l 214 785 m 450 785 l 450 915 l 575 915 l 575 785 l 450 785 m 393 -14 q 260 -8 304 -14 q 171 19 215 -1 q 104 87 125 40 q 83 213 83 133 l 83 446 q 99 556 83 508 q 139 629 114 603 q 202 666 160 653 q 289 683 244 679 q 393 686 339 686 q 502 683 465 686 q 581 668 539 679 q 647 631 624 656 q 688 558 671 606 q 703 446 703 510 l 703 213 q 649 40 703 94 q 585 6 626 18 q 499 -11 543 -7 q 393 -14 446 -14 m 393 68 q 478 71 451 68 q 529 86 504 74 q 565 123 554 97 q 575 194 575 149 l 575 467 q 560 558 575 529 q 508 595 544 586 q 393 604 471 604 q 278 595 315 604 q 226 558 242 586 q 211 467 211 529 l 211 194 q 222 123 211 149 q 257 86 232 97 q 308 71 282 74 q 393 68 335 68 z "},"ọ":{"ha":789,"x_min":83,"x_max":703,"o":"m 393 -14 q 260 -8 304 -14 q 171 19 215 -1 q 104 87 125 40 q 83 213 83 133 l 83 446 q 99 556 83 508 q 139 629 114 603 q 202 666 160 653 q 289 683 244 679 q 393 686 339 686 q 502 683 465 686 q 581 668 539 679 q 647 631 624 656 q 688 558 671 606 q 703 446 703 510 l 703 213 q 649 40 703 94 q 585 6 626 18 q 499 -11 543 -7 q 393 -14 446 -14 m 393 68 q 478 71 451 68 q 529 86 504 74 q 565 123 554 97 q 575 194 575 149 l 575 467 q 560 558 575 529 q 508 595 544 586 q 393 604 471 604 q 278 595 315 604 q 226 558 242 586 q 211 467 211 529 l 211 194 q 222 123 211 149 q 257 86 232 97 q 308 71 282 74 q 393 68 335 68 m 328 -210 l 328 -86 l 460 -86 l 460 -210 l 328 -210 z "},"ò":{"ha":789,"x_min":83,"x_max":703,"o":"m 393 -14 q 260 -8 304 -14 q 171 19 215 -1 q 104 87 125 40 q 83 213 83 133 l 83 446 q 99 556 83 508 q 139 629 114 603 q 202 666 160 653 q 289 683 244 679 q 393 686 339 686 q 502 683 465 686 q 581 668 539 679 q 647 631 624 656 q 688 558 671 606 q 703 446 703 510 l 703 213 q 649 40 703 94 q 585 6 626 18 q 499 -11 543 -7 q 393 -14 446 -14 m 393 68 q 478 71 451 68 q 529 86 504 74 q 565 123 554 97 q 575 194 575 149 l 575 467 q 560 558 575 529 q 508 595 544 586 q 393 604 471 604 q 278 595 315 604 q 226 558 242 586 q 211 467 211 529 l 211 194 q 222 123 211 149 q 257 86 232 97 q 308 71 282 74 q 393 68 335 68 m 338 768 l 164 944 l 315 944 l 440 768 l 338 768 z "},"ỏ":{"ha":789,"x_min":83,"x_max":703,"o":"m 393 -14 q 260 -8 304 -14 q 171 19 215 -1 q 104 87 125 40 q 83 213 83 133 l 83 446 q 99 556 83 508 q 139 629 114 603 q 202 666 160 653 q 289 683 244 679 q 393 686 339 686 q 502 683 465 686 q 581 668 539 679 q 647 631 624 656 q 688 558 671 606 q 703 446 703 510 l 703 213 q 649 40 703 94 q 585 6 626 18 q 499 -11 543 -7 q 393 -14 446 -14 m 393 68 q 478 71 451 68 q 529 86 504 74 q 565 123 554 97 q 575 194 575 149 l 575 467 q 560 558 575 529 q 508 595 544 586 q 393 604 471 604 q 278 595 315 604 q 226 558 242 586 q 211 467 211 529 l 211 194 q 222 123 211 149 q 257 86 232 97 q 308 71 282 74 q 393 68 335 68 m 354 807 q 361 838 354 828 q 382 858 368 847 q 406 885 400 871 q 411 922 411 899 q 397 952 411 944 q 350 960 383 960 q 315 956 331 960 q 294 950 299 951 l 294 1026 q 322 1034 308 1032 q 360 1036 335 1036 q 460 1006 428 1036 q 493 926 493 976 q 486 880 493 903 q 467 847 479 857 q 439 822 447 832 q 431 794 431 813 l 354 794 l 354 807 z "},"ơ":{"ha":789,"x_min":83,"x_max":793,"o":"m 793 793 q 768 654 793 699 q 672 593 743 610 q 688 558 683 571 q 703 446 703 510 l 703 213 q 649 40 703 94 q 585 6 626 18 q 499 -11 543 -7 q 393 -14 446 -14 q 260 -8 304 -14 q 171 19 215 -1 q 104 87 125 40 q 83 213 83 133 l 83 446 q 99 556 83 508 q 139 629 114 603 q 202 666 160 653 q 289 683 244 679 q 393 686 339 686 q 493 683 458 686 q 564 672 528 681 q 638 682 615 674 q 669 715 661 690 q 678 794 678 740 l 793 793 m 575 467 q 560 558 575 529 q 508 595 544 586 q 393 604 471 604 q 278 595 315 604 q 226 558 242 586 q 211 467 211 529 l 211 194 q 222 123 211 149 q 257 86 232 97 q 308 71 282 74 q 393 68 335 68 q 478 71 451 68 q 529 86 504 74 q 565 123 554 97 q 575 194 575 149 l 575 467 z "},"ớ":{"ha":789,"x_min":83,"x_max":793,"o":"m 793 793 q 768 654 793 699 q 672 593 743 610 q 688 558 683 571 q 703 446 703 510 l 703 213 q 649 40 703 94 q 585 6 626 18 q 499 -11 543 -7 q 393 -14 446 -14 q 260 -8 304 -14 q 171 19 215 -1 q 104 87 125 40 q 83 213 83 133 l 83 446 q 99 556 83 508 q 139 629 114 603 q 202 666 160 653 q 289 683 244 679 q 393 686 339 686 q 493 683 458 686 q 564 672 528 681 q 638 682 615 674 q 669 715 661 690 q 678 794 678 740 l 793 793 m 575 467 q 560 558 575 529 q 508 595 544 586 q 393 604 471 604 q 278 595 315 604 q 226 558 242 586 q 211 467 211 529 l 211 194 q 222 123 211 149 q 257 86 232 97 q 308 71 282 74 q 393 68 335 68 q 478 71 451 68 q 529 86 504 74 q 565 123 554 97 q 575 194 575 149 l 575 467 m 325 768 l 450 944 l 601 944 l 428 768 l 325 768 z "},"ợ":{"ha":789,"x_min":83,"x_max":793,"o":"m 793 793 q 768 654 793 699 q 672 593 743 610 q 688 558 683 571 q 703 446 703 510 l 703 213 q 649 40 703 94 q 585 6 626 18 q 499 -11 543 -7 q 393 -14 446 -14 q 260 -8 304 -14 q 171 19 215 -1 q 104 87 125 40 q 83 213 83 133 l 83 446 q 99 556 83 508 q 139 629 114 603 q 202 666 160 653 q 289 683 244 679 q 393 686 339 686 q 493 683 458 686 q 564 672 528 681 q 638 682 615 674 q 669 715 661 690 q 678 794 678 740 l 793 793 m 575 467 q 560 558 575 529 q 508 595 544 586 q 393 604 471 604 q 278 595 315 604 q 226 558 242 586 q 211 467 211 529 l 211 194 q 222 123 211 149 q 257 86 232 97 q 308 71 282 74 q 393 68 335 68 q 478 71 451 68 q 529 86 504 74 q 565 123 554 97 q 575 194 575 149 l 575 467 m 328 -210 l 328 -86 l 460 -86 l 460 -210 l 328 -210 z "},"ờ":{"ha":789,"x_min":83,"x_max":793,"o":"m 793 793 q 768 654 793 699 q 672 593 743 610 q 688 558 683 571 q 703 446 703 510 l 703 213 q 649 40 703 94 q 585 6 626 18 q 499 -11 543 -7 q 393 -14 446 -14 q 260 -8 304 -14 q 171 19 215 -1 q 104 87 125 40 q 83 213 83 133 l 83 446 q 99 556 83 508 q 139 629 114 603 q 202 666 160 653 q 289 683 244 679 q 393 686 339 686 q 493 683 458 686 q 564 672 528 681 q 638 682 615 674 q 669 715 661 690 q 678 794 678 740 l 793 793 m 575 467 q 560 558 575 529 q 508 595 544 586 q 393 604 471 604 q 278 595 315 604 q 226 558 242 586 q 211 467 211 529 l 211 194 q 222 123 211 149 q 257 86 232 97 q 308 71 282 74 q 393 68 335 68 q 478 71 451 68 q 529 86 504 74 q 565 123 554 97 q 575 194 575 149 l 575 467 m 338 768 l 164 944 l 315 944 l 440 768 l 338 768 z "},"ở":{"ha":789,"x_min":83,"x_max":793,"o":"m 793 793 q 768 654 793 699 q 672 593 743 610 q 688 558 683 571 q 703 446 703 510 l 703 213 q 649 40 703 94 q 585 6 626 18 q 499 -11 543 -7 q 393 -14 446 -14 q 260 -8 304 -14 q 171 19 215 -1 q 104 87 125 40 q 83 213 83 133 l 83 446 q 99 556 83 508 q 139 629 114 603 q 202 666 160 653 q 289 683 244 679 q 393 686 339 686 q 493 683 458 686 q 564 672 528 681 q 638 682 615 674 q 669 715 661 690 q 678 794 678 740 l 793 793 m 575 467 q 560 558 575 529 q 508 595 544 586 q 393 604 471 604 q 278 595 315 604 q 226 558 242 586 q 211 467 211 529 l 211 194 q 222 123 211 149 q 257 86 232 97 q 308 71 282 74 q 393 68 335 68 q 478 71 451 68 q 529 86 504 74 q 565 123 554 97 q 575 194 575 149 l 575 467 m 354 807 q 361 838 354 828 q 382 858 368 847 q 406 885 400 871 q 411 922 411 899 q 397 952 411 944 q 350 960 383 960 q 315 956 331 960 q 294 950 299 951 l 294 1026 q 322 1034 308 1032 q 360 1036 335 1036 q 460 1006 428 1036 q 493 926 493 976 q 486 880 493 903 q 467 847 479 857 q 439 822 447 832 q 431 794 431 813 l 354 794 l 354 807 z "},"ỡ":{"ha":789,"x_min":83,"x_max":793,"o":"m 793 793 q 768 654 793 699 q 672 593 743 610 q 688 558 683 571 q 703 446 703 510 l 703 213 q 649 40 703 94 q 585 6 626 18 q 499 -11 543 -7 q 393 -14 446 -14 q 260 -8 304 -14 q 171 19 215 -1 q 104 87 125 40 q 83 213 83 133 l 83 446 q 99 556 83 508 q 139 629 114 603 q 202 666 160 653 q 289 683 244 679 q 393 686 339 686 q 493 683 458 686 q 564 672 528 681 q 638 682 615 674 q 669 715 661 690 q 678 794 678 740 l 793 793 m 575 467 q 560 558 575 529 q 508 595 544 586 q 393 604 471 604 q 278 595 315 604 q 226 558 242 586 q 211 467 211 529 l 211 194 q 222 123 211 149 q 257 86 232 97 q 308 71 282 74 q 393 68 335 68 q 478 71 451 68 q 529 86 504 74 q 565 123 554 97 q 575 194 575 149 l 575 467 m 204 800 q 243 866 214 838 q 318 894 272 894 q 404 874 350 894 q 479 853 456 853 q 518 864 500 853 q 544 897 536 875 l 588 872 q 544 803 576 833 q 467 772 513 772 q 376 796 435 772 q 306 818 322 818 q 247 772 265 818 l 204 800 z "},"ő":{"ha":789,"x_min":83,"x_max":703,"o":"m 236 767 l 333 944 l 439 944 l 342 767 l 236 767 m 413 767 l 510 944 l 615 944 l 518 767 l 413 767 m 393 -14 q 260 -8 304 -14 q 171 19 215 -1 q 104 87 125 40 q 83 213 83 133 l 83 446 q 99 556 83 508 q 139 629 114 603 q 202 666 160 653 q 289 683 244 679 q 393 686 339 686 q 502 683 465 686 q 581 668 539 679 q 647 631 624 656 q 688 558 671 606 q 703 446 703 510 l 703 213 q 649 40 703 94 q 585 6 626 18 q 499 -11 543 -7 q 393 -14 446 -14 m 393 68 q 478 71 451 68 q 529 86 504 74 q 565 123 554 97 q 575 194 575 149 l 575 467 q 560 558 575 529 q 508 595 544 586 q 393 604 471 604 q 278 595 315 604 q 226 558 242 586 q 211 467 211 529 l 211 194 q 222 123 211 149 q 257 86 232 97 q 308 71 282 74 q 393 68 335 68 z "},"ō":{"ha":789,"x_min":83,"x_max":703,"o":"m 228 818 l 228 906 l 563 906 l 563 818 l 228 818 m 393 -14 q 260 -8 304 -14 q 171 19 215 -1 q 104 87 125 40 q 83 213 83 133 l 83 446 q 99 556 83 508 q 139 629 114 603 q 202 666 160 653 q 289 683 244 679 q 393 686 339 686 q 502 683 465 686 q 581 668 539 679 q 647 631 624 656 q 688 558 671 606 q 703 446 703 510 l 703 213 q 649 40 703 94 q 585 6 626 18 q 499 -11 543 -7 q 393 -14 446 -14 m 393 68 q 478 71 451 68 q 529 86 504 74 q 565 123 554 97 q 575 194 575 149 l 575 467 q 560 558 575 529 q 508 595 544 586 q 393 604 471 604 q 278 595 315 604 q 226 558 242 586 q 211 467 211 529 l 211 194 q 222 123 211 149 q 257 86 232 97 q 308 71 282 74 q 393 68 335 68 z "},"ø":{"ha":789,"x_min":83,"x_max":703,"o":"m 393 -14 q 260 -8 304 -14 q 171 19 215 -1 q 104 87 125 40 q 83 213 83 133 l 83 446 q 99 556 83 508 q 139 629 114 603 q 202 666 160 653 q 289 683 244 679 q 393 686 339 686 q 502 683 465 686 q 581 668 539 679 q 647 631 624 656 q 688 558 671 606 q 703 446 703 510 l 703 213 q 649 40 703 94 q 585 6 626 18 q 499 -11 543 -7 q 393 -14 446 -14 m 518 592 q 393 604 485 604 q 278 595 315 604 q 226 558 242 586 q 211 467 211 529 l 211 194 q 221 128 211 149 l 518 592 m 393 68 q 478 71 451 68 q 529 86 504 74 q 565 123 554 97 q 575 194 575 149 l 575 467 q 565 540 575 511 l 269 79 q 393 68 306 68 z "},"õ":{"ha":789,"x_min":83,"x_max":703,"o":"m 393 -14 q 260 -8 304 -14 q 171 19 215 -1 q 104 87 125 40 q 83 213 83 133 l 83 446 q 99 556 83 508 q 139 629 114 603 q 202 666 160 653 q 289 683 244 679 q 393 686 339 686 q 502 683 465 686 q 581 668 539 679 q 647 631 624 656 q 688 558 671 606 q 703 446 703 510 l 703 213 q 649 40 703 94 q 585 6 626 18 q 499 -11 543 -7 q 393 -14 446 -14 m 393 68 q 478 71 451 68 q 529 86 504 74 q 565 123 554 97 q 575 194 575 149 l 575 467 q 560 558 575 529 q 508 595 544 586 q 393 604 471 604 q 278 595 315 604 q 226 558 242 586 q 211 467 211 529 l 211 194 q 222 123 211 149 q 257 86 232 97 q 308 71 282 74 q 393 68 335 68 m 204 800 q 243 866 214 838 q 318 894 272 894 q 404 874 350 894 q 479 853 456 853 q 518 864 500 853 q 544 897 536 875 l 588 872 q 544 803 576 833 q 467 772 513 772 q 376 796 435 772 q 306 818 322 818 q 247 772 265 818 l 204 800 z "},"œ":{"ha":1236,"x_min":83,"x_max":1154,"o":"m 393 -14 q 260 -8 304 -14 q 171 19 215 -1 q 104 87 125 40 q 83 213 83 133 l 83 446 q 99 556 83 508 q 139 629 114 603 q 202 666 160 653 q 289 683 244 679 q 393 686 339 686 q 644 617 583 686 q 874 686 699 686 q 1088 635 1022 686 q 1154 457 1154 583 l 1154 308 l 703 308 l 703 207 q 752 107 703 138 q 907 76 801 76 q 1128 110 997 76 l 1128 14 q 868 -14 993 -14 q 639 58 738 -14 q 393 -14 567 -14 m 393 68 q 502 79 464 68 q 558 120 540 90 q 575 207 575 150 l 575 467 q 560 558 575 529 q 508 595 544 586 q 393 604 471 604 q 278 595 315 604 q 226 558 242 586 q 211 467 211 529 l 211 194 q 222 123 211 149 q 257 86 232 97 q 308 71 282 74 q 393 68 335 68 m 1029 390 l 1029 496 q 992 579 1029 556 q 869 603 956 603 q 742 580 781 603 q 703 496 703 557 l 703 390 l 1029 390 z "},"p":{"ha":804,"x_min":108,"x_max":721,"o":"m 108 672 l 232 672 l 232 600 l 233 600 q 463 686 249 686 q 656 633 590 686 q 721 496 721 579 l 721 219 q 703 115 721 160 q 658 46 686 71 q 590 8 633 22 q 503 -10 546 -6 q 408 -14 464 -14 q 297 1 347 -14 q 233 43 246 15 l 233 -289 l 108 -289 l 108 672 m 411 71 q 522 81 483 71 q 576 119 560 92 q 593 204 593 147 l 593 451 q 576 544 593 514 q 522 585 560 575 q 410 596 483 596 q 300 585 336 596 q 249 545 264 575 q 233 451 233 515 l 233 204 q 249 119 233 147 q 303 81 265 92 q 411 71 340 71 z "},"þ":{"ha":804,"x_min":108,"x_max":721,"o":"m 108 972 l 233 972 l 233 600 q 463 686 249 686 q 656 633 590 686 q 721 496 721 579 l 721 219 q 703 115 721 160 q 658 46 686 71 q 590 8 633 22 q 503 -10 546 -6 q 408 -14 464 -14 q 297 1 347 -14 q 233 43 246 15 l 233 -289 l 108 -289 l 108 972 m 411 71 q 522 81 483 71 q 576 119 560 92 q 593 204 593 147 l 593 451 q 576 544 593 514 q 522 585 560 575 q 410 596 483 596 q 298 585 336 596 q 243 544 260 575 q 226 451 226 514 l 226 204 q 244 120 226 149 q 300 81 261 92 q 411 71 339 71 z "},"q":{"ha":804,"x_min":108,"x_max":721,"o":"m 596 43 q 393 -14 568 -14 q 292 -10 329 -14 q 218 7 254 -6 q 158 46 181 21 q 122 114 136 71 q 108 219 108 156 l 108 468 q 181 635 108 585 q 424 686 254 686 q 653 635 585 686 q 721 468 721 585 l 721 -289 l 596 -289 l 596 43 m 418 72 q 528 83 492 72 q 581 122 565 93 q 596 206 596 150 l 596 451 q 581 545 596 515 q 529 585 565 575 q 419 596 493 596 q 297 586 333 596 q 248 547 260 576 q 236 451 236 518 l 236 206 q 253 121 236 149 q 308 83 269 93 q 418 72 346 72 z "},"r":{"ha":488,"x_min":108,"x_max":471,"o":"m 108 672 l 226 672 l 226 563 q 254 623 226 594 q 325 669 282 651 q 410 686 368 686 l 471 686 l 471 579 l 401 579 q 273 556 313 579 q 233 474 233 533 l 233 0 l 108 0 l 108 672 z "},"ŕ":{"ha":488,"x_min":108,"x_max":471,"o":"m 161 768 l 286 944 l 438 944 l 264 768 l 161 768 m 108 672 l 226 672 l 226 563 q 254 623 226 594 q 325 669 282 651 q 410 686 368 686 l 471 686 l 471 579 l 401 579 q 273 556 313 579 q 233 474 233 533 l 233 0 l 108 0 l 108 672 z "},"ř":{"ha":488,"x_min":88,"x_max":471,"o":"m 182 768 l 88 944 l 168 944 l 256 824 l 342 944 l 422 944 l 331 768 l 182 768 m 108 672 l 226 672 l 226 563 q 254 623 226 594 q 325 669 282 651 q 410 686 368 686 l 471 686 l 471 579 l 401 579 q 273 556 313 579 q 233 474 233 533 l 233 0 l 108 0 l 108 672 z "},"ŗ":{"ha":488,"x_min":79,"x_max":471,"o":"m 108 672 l 226 672 l 226 582 q 289 656 226 626 q 426 685 351 685 l 471 685 l 471 574 l 401 574 q 271 553 308 574 q 233 474 233 533 l 233 0 l 108 0 l 108 672 m 79 -264 l 143 -56 l 274 -56 l 158 -264 l 79 -264 z "},"s":{"ha":671,"x_min":69,"x_max":607,"o":"m 314 -14 q 83 3 207 -14 l 83 99 q 317 72 246 72 q 444 90 406 72 q 483 154 483 107 l 483 222 q 454 283 483 265 q 360 301 425 301 l 283 301 q 124 344 179 301 q 69 465 69 388 l 69 528 q 369 686 69 686 q 574 675 392 686 l 574 585 q 364 604 450 604 q 229 585 265 604 q 193 519 193 565 l 193 463 q 317 394 193 394 l 394 394 q 607 236 607 394 l 607 178 q 535 30 607 74 q 314 -14 463 -14 z "},"ś":{"ha":671,"x_min":69,"x_max":607,"o":"m 242 768 l 367 944 l 518 944 l 344 768 l 242 768 m 314 -14 q 83 3 207 -14 l 83 99 q 317 72 246 72 q 444 90 406 72 q 483 154 483 107 l 483 222 q 454 283 483 265 q 360 301 425 301 l 283 301 q 124 344 179 301 q 69 465 69 388 l 69 528 q 369 686 69 686 q 574 675 392 686 l 574 585 q 364 604 450 604 q 229 585 265 604 q 193 519 193 565 l 193 463 q 317 394 193 394 l 394 394 q 607 236 607 394 l 607 178 q 535 30 607 74 q 314 -14 463 -14 z "},"š":{"ha":671,"x_min":69,"x_max":607,"o":"m 265 768 l 171 944 l 251 944 l 339 824 l 425 944 l 506 944 l 414 768 l 265 768 m 314 -14 q 83 3 207 -14 l 83 99 q 317 72 246 72 q 444 90 406 72 q 483 154 483 107 l 483 222 q 454 283 483 265 q 360 301 425 301 l 283 301 q 124 344 179 301 q 69 465 69 388 l 69 528 q 369 686 69 686 q 574 675 392 686 l 574 585 q 364 604 450 604 q 229 585 265 604 q 193 519 193 565 l 193 463 q 317 394 193 394 l 394 394 q 607 236 607 394 l 607 178 q 535 30 607 74 q 314 -14 463 -14 z "},"ş":{"ha":671,"x_min":69,"x_max":607,"o":"m 313 -306 q 200 -279 243 -306 l 229 -217 q 310 -240 272 -240 q 375 -185 375 -240 q 344 -143 375 -158 q 267 -128 314 -128 l 221 -128 q 282 -12 253 -74 q 83 3 185 -11 l 83 99 q 317 72 246 72 q 444 90 406 72 q 483 154 483 107 l 483 222 q 454 283 483 265 q 360 301 425 301 l 283 301 q 124 344 179 301 q 69 465 69 388 l 69 528 q 369 686 69 686 q 574 675 392 686 l 574 585 q 364 604 450 604 q 229 585 265 604 q 193 519 193 565 l 193 463 q 317 394 193 394 l 394 394 q 607 236 607 394 l 607 178 q 548 40 607 83 q 369 -11 489 -4 l 340 -72 q 432 -102 394 -74 q 469 -181 469 -131 q 424 -272 469 -239 q 313 -306 379 -306 z "},"ŝ":{"ha":671,"x_min":69,"x_max":607,"o":"m 163 768 l 257 944 l 406 944 l 497 768 l 417 768 l 331 889 l 243 768 l 163 768 m 314 -14 q 83 3 207 -14 l 83 99 q 317 72 246 72 q 444 90 406 72 q 483 154 483 107 l 483 222 q 454 283 483 265 q 360 301 425 301 l 283 301 q 124 344 179 301 q 69 465 69 388 l 69 528 q 369 686 69 686 q 574 675 392 686 l 574 585 q 364 604 450 604 q 229 585 265 604 q 193 519 193 565 l 193 463 q 317 394 193 394 l 394 394 q 607 236 607 394 l 607 178 q 535 30 607 74 q 314 -14 463 -14 z "},"ș":{"ha":671,"x_min":69,"x_max":607,"o":"m 314 -14 q 83 3 207 -14 l 83 99 q 317 72 246 72 q 444 90 406 72 q 483 154 483 107 l 483 222 q 454 283 483 265 q 360 301 425 301 l 283 301 q 124 344 179 301 q 69 465 69 388 l 69 528 q 369 686 69 686 q 574 675 392 686 l 574 585 q 364 604 450 604 q 229 585 265 604 q 193 519 193 565 l 193 463 q 317 394 193 394 l 394 394 q 607 236 607 394 l 607 178 q 535 30 607 74 q 314 -14 463 -14 m 249 -264 l 313 -56 l 443 -56 l 328 -264 l 249 -264 z "},"ß":{"ha":836,"x_min":108,"x_max":753,"o":"m 108 658 q 137 815 108 760 q 232 892 165 869 q 424 915 299 915 q 607 892 539 915 q 691 836 669 869 q 713 744 713 803 l 713 610 q 683 525 713 554 q 593 482 654 496 l 593 476 q 710 426 667 464 q 753 331 753 389 l 753 179 q 679 40 753 81 q 433 0 606 0 l 350 0 l 350 89 l 440 89 q 583 110 542 89 q 625 181 625 131 l 625 321 q 610 378 625 357 q 565 410 596 400 q 511 420 535 418 q 440 422 488 422 l 350 422 l 350 507 l 435 507 q 556 533 519 507 q 593 614 593 558 l 593 733 q 553 805 593 783 q 424 826 513 826 q 303 816 342 826 q 251 777 265 806 q 236 686 236 749 l 236 0 l 108 0 l 108 658 z "},"ſ":{"ha":414,"x_min":14,"x_max":531,"o":"m 168 590 l 14 590 l 14 672 l 168 672 l 168 781 q 219 941 168 896 q 390 986 269 986 q 531 979 465 986 l 531 899 q 436 906 478 906 q 347 896 376 906 q 305 862 317 886 q 293 789 293 838 l 293 0 l 168 0 l 168 590 z "},"t":{"ha":558,"x_min":14,"x_max":531,"o":"m 390 -14 q 256 5 304 -14 q 185 69 207 24 q 164 196 164 114 l 164 590 l 14 590 l 14 672 l 164 672 l 164 881 l 290 881 l 290 672 l 531 672 l 531 590 l 290 590 l 290 189 q 302 114 290 139 q 344 78 314 89 q 431 68 374 68 q 531 79 449 68 l 531 -3 q 390 -14 460 -14 z "},"ŧ":{"ha":558,"x_min":14,"x_max":531,"o":"m 390 -10 q 292 -3 328 -10 q 226 24 257 4 q 178 85 193 43 q 164 196 164 126 l 164 364 l 15 364 l 15 443 l 164 443 l 164 593 l 14 593 l 14 672 l 164 672 l 164 881 l 290 881 l 290 672 l 531 672 l 531 593 l 290 593 l 290 443 l 531 443 l 531 364 l 290 364 l 290 189 q 302 116 290 140 q 343 82 314 92 q 431 72 372 72 q 531 79 478 72 l 531 -3 q 390 -10 465 -10 z "},"ť":{"ha":558,"x_min":14,"x_max":575,"o":"m 381 768 l 444 976 l 575 976 l 460 768 l 381 768 m 390 -14 q 258 3 306 -14 q 187 65 210 19 q 164 196 164 110 l 164 593 l 14 593 l 14 672 l 164 672 l 164 881 l 290 881 l 290 672 l 531 672 l 531 593 l 290 593 l 290 189 q 302 114 290 139 q 344 78 314 89 q 431 68 374 68 q 531 79 449 68 l 531 -3 q 390 -14 460 -14 z "},"ț":{"ha":558,"x_min":14,"x_max":531,"o":"m 390 -14 q 258 3 306 -14 q 187 65 210 19 q 164 196 164 110 l 164 593 l 14 593 l 14 672 l 164 672 l 164 881 l 290 881 l 290 672 l 531 672 l 531 593 l 290 593 l 290 189 q 302 114 290 139 q 344 78 314 89 q 431 68 374 68 q 531 79 449 68 l 531 -3 q 390 -14 460 -14 m 174 -264 l 238 -56 l 368 -56 l 253 -264 l 174 -264 z "},"u":{"ha":796,"x_min":108,"x_max":688,"o":"m 342 -14 q 160 33 213 -14 q 108 179 108 79 l 108 672 l 233 672 l 233 186 q 238 144 233 160 q 256 111 243 128 q 378 75 281 75 q 522 94 481 75 q 563 165 563 114 l 563 672 l 688 672 l 688 0 l 563 0 l 563 82 q 342 -14 544 -14 z "},"ú":{"ha":796,"x_min":108,"x_max":688,"o":"m 342 -14 q 160 33 213 -14 q 108 179 108 79 l 108 672 l 233 672 l 233 186 q 238 144 233 160 q 256 111 243 128 q 378 75 281 75 q 522 94 481 75 q 563 165 563 114 l 563 672 l 688 672 l 688 0 l 563 0 l 563 82 q 342 -14 544 -14 m 329 768 l 454 944 l 606 944 l 432 768 l 329 768 z "},"ŭ":{"ha":796,"x_min":108,"x_max":688,"o":"m 390 768 q 273 816 317 768 q 226 944 229 864 l 301 944 q 390 850 310 850 q 479 944 471 850 l 554 944 q 508 817 553 865 q 390 768 464 768 m 342 -14 q 160 33 213 -14 q 108 179 108 79 l 108 672 l 233 672 l 233 186 q 238 144 233 160 q 256 111 243 128 q 378 75 281 75 q 522 94 481 75 q 563 165 563 114 l 563 672 l 688 672 l 688 0 l 563 0 l 563 82 q 342 -14 544 -14 z "},"û":{"ha":796,"x_min":108,"x_max":688,"o":"m 222 768 l 317 944 l 465 944 l 557 768 l 476 768 l 390 889 l 303 768 l 222 768 m 342 -14 q 160 33 213 -14 q 108 179 108 79 l 108 672 l 233 672 l 233 186 q 238 144 233 160 q 256 111 243 128 q 378 75 281 75 q 522 94 481 75 q 563 165 563 114 l 563 672 l 688 672 l 688 0 l 563 0 l 563 82 q 342 -14 544 -14 z "},"ü":{"ha":796,"x_min":108,"x_max":688,"o":"m 208 785 l 208 915 l 333 915 l 333 785 l 208 785 m 444 785 l 444 915 l 569 915 l 569 785 l 444 785 m 342 -14 q 160 33 213 -14 q 108 179 108 79 l 108 672 l 233 672 l 233 186 q 238 144 233 160 q 256 111 243 128 q 378 75 281 75 q 522 94 481 75 q 563 165 563 114 l 563 672 l 688 672 l 688 0 l 563 0 l 563 82 q 342 -14 544 -14 z "},"ụ":{"ha":796,"x_min":108,"x_max":688,"o":"m 342 -14 q 160 33 213 -14 q 108 179 108 79 l 108 672 l 233 672 l 233 186 q 238 144 233 160 q 256 111 243 128 q 378 75 281 75 q 522 94 481 75 q 563 165 563 114 l 563 672 l 688 672 l 688 0 l 563 0 l 563 82 q 342 -14 544 -14 m 332 -210 l 332 -86 l 464 -86 l 464 -210 l 332 -210 z "},"ù":{"ha":796,"x_min":108,"x_max":688,"o":"m 342 -14 q 160 33 213 -14 q 108 179 108 79 l 108 672 l 233 672 l 233 186 q 238 144 233 160 q 256 111 243 128 q 378 75 281 75 q 522 94 481 75 q 563 165 563 114 l 563 672 l 688 672 l 688 0 l 563 0 l 563 82 q 342 -14 544 -14 m 342 768 l 168 944 l 319 944 l 444 768 l 342 768 z "},"ủ":{"ha":796,"x_min":108,"x_max":688,"o":"m 342 -14 q 160 33 213 -14 q 108 179 108 79 l 108 672 l 233 672 l 233 186 q 238 144 233 160 q 256 111 243 128 q 378 75 281 75 q 522 94 481 75 q 563 165 563 114 l 563 672 l 688 672 l 688 0 l 563 0 l 563 82 q 342 -14 544 -14 m 358 807 q 365 838 358 828 q 386 858 372 847 q 410 885 404 871 q 415 922 415 899 q 401 952 415 944 q 354 960 388 960 q 319 956 335 960 q 299 950 303 951 l 299 1026 q 326 1034 313 1032 q 364 1036 339 1036 q 465 1006 432 1036 q 497 926 497 976 q 490 880 497 903 q 471 847 483 857 q 443 822 451 832 q 435 794 435 813 l 358 794 l 358 807 z "},"ư":{"ha":796,"x_min":108,"x_max":833,"o":"m 833 793 q 822 683 833 724 q 778 619 810 643 q 688 588 747 596 l 688 0 l 563 0 l 563 82 q 342 -14 544 -14 q 160 33 213 -14 q 108 179 108 79 l 108 672 l 233 672 l 233 186 q 238 144 233 160 q 256 111 243 128 q 378 75 281 75 q 522 94 481 75 q 563 165 563 114 l 563 672 l 585 672 q 673 680 647 672 q 708 712 699 688 q 718 794 718 736 l 833 793 z "},"ứ":{"ha":796,"x_min":108,"x_max":833,"o":"m 833 793 q 822 683 833 724 q 778 619 810 643 q 688 588 747 596 l 688 0 l 563 0 l 563 82 q 342 -14 544 -14 q 160 33 213 -14 q 108 179 108 79 l 108 672 l 233 672 l 233 186 q 238 144 233 160 q 256 111 243 128 q 378 75 281 75 q 522 94 481 75 q 563 165 563 114 l 563 672 l 585 672 q 673 680 647 672 q 708 712 699 688 q 718 794 718 736 l 833 793 m 329 768 l 454 944 l 606 944 l 432 768 l 329 768 z "},"ự":{"ha":796,"x_min":108,"x_max":833,"o":"m 833 793 q 822 683 833 724 q 778 619 810 643 q 688 588 747 596 l 688 0 l 563 0 l 563 82 q 342 -14 544 -14 q 160 33 213 -14 q 108 179 108 79 l 108 672 l 233 672 l 233 186 q 238 144 233 160 q 256 111 243 128 q 378 75 281 75 q 522 94 481 75 q 563 165 563 114 l 563 672 l 585 672 q 673 680 647 672 q 708 712 699 688 q 718 794 718 736 l 833 793 m 332 -210 l 332 -86 l 464 -86 l 464 -210 l 332 -210 z "},"ừ":{"ha":796,"x_min":108,"x_max":833,"o":"m 833 793 q 822 683 833 724 q 778 619 810 643 q 688 588 747 596 l 688 0 l 563 0 l 563 82 q 342 -14 544 -14 q 160 33 213 -14 q 108 179 108 79 l 108 672 l 233 672 l 233 186 q 238 144 233 160 q 256 111 243 128 q 378 75 281 75 q 522 94 481 75 q 563 165 563 114 l 563 672 l 585 672 q 673 680 647 672 q 708 712 699 688 q 718 794 718 736 l 833 793 m 342 768 l 168 944 l 319 944 l 444 768 l 342 768 z "},"ử":{"ha":796,"x_min":108,"x_max":833,"o":"m 833 793 q 822 683 833 724 q 778 619 810 643 q 688 588 747 596 l 688 0 l 563 0 l 563 82 q 342 -14 544 -14 q 160 33 213 -14 q 108 179 108 79 l 108 672 l 233 672 l 233 186 q 238 144 233 160 q 256 111 243 128 q 378 75 281 75 q 522 94 481 75 q 563 165 563 114 l 563 672 l 585 672 q 673 680 647 672 q 708 712 699 688 q 718 794 718 736 l 833 793 m 358 807 q 365 838 358 828 q 386 858 372 847 q 410 885 404 871 q 415 922 415 899 q 401 952 415 944 q 354 960 388 960 q 319 956 335 960 q 299 950 303 951 l 299 1026 q 326 1034 313 1032 q 364 1036 339 1036 q 465 1006 432 1036 q 497 926 497 976 q 490 880 497 903 q 471 847 483 857 q 443 822 451 832 q 435 794 435 813 l 358 794 l 358 807 z "},"ữ":{"ha":796,"x_min":108,"x_max":833,"o":"m 833 793 q 822 683 833 724 q 778 619 810 643 q 688 588 747 596 l 688 0 l 563 0 l 563 82 q 342 -14 544 -14 q 160 33 213 -14 q 108 179 108 79 l 108 672 l 233 672 l 233 186 q 238 144 233 160 q 256 111 243 128 q 378 75 281 75 q 522 94 481 75 q 563 165 563 114 l 563 672 l 585 672 q 673 680 647 672 q 708 712 699 688 q 718 794 718 736 l 833 793 m 208 800 q 247 866 218 838 q 322 894 276 894 q 408 874 354 894 q 483 853 460 853 q 522 864 504 853 q 549 897 540 875 l 592 872 q 549 803 581 833 q 471 772 517 772 q 381 796 439 772 q 310 818 326 818 q 251 772 269 818 l 208 800 z "},"ű":{"ha":796,"x_min":108,"x_max":688,"o":"m 219 767 l 317 944 l 422 944 l 325 767 l 219 767 m 396 767 l 493 944 l 599 944 l 501 767 l 396 767 m 342 -14 q 160 33 213 -14 q 108 179 108 79 l 108 672 l 233 672 l 233 186 q 238 144 233 160 q 256 111 243 128 q 378 75 281 75 q 522 94 481 75 q 563 165 563 114 l 563 672 l 688 672 l 688 0 l 563 0 l 563 82 q 342 -14 544 -14 z "},"ū":{"ha":796,"x_min":108,"x_max":688,"o":"m 231 817 l 231 904 l 565 904 l 565 817 l 231 817 m 342 -14 q 160 33 213 -14 q 108 179 108 79 l 108 672 l 233 672 l 233 186 q 238 144 233 160 q 256 111 243 128 q 378 75 281 75 q 522 94 481 75 q 563 165 563 114 l 563 672 l 688 672 l 688 0 l 563 0 l 563 82 q 342 -14 544 -14 z "},"ų":{"ha":796,"x_min":108,"x_max":719,"o":"m 650 -258 q 546 -232 579 -258 q 513 -147 513 -206 q 563 0 513 -78 l 563 82 q 342 -14 544 -14 q 160 33 213 -14 q 108 179 108 79 l 108 672 l 233 672 l 233 186 q 238 144 233 160 q 256 111 243 128 q 378 75 281 75 q 522 94 481 75 q 563 165 563 114 l 563 672 l 688 672 l 688 0 q 642 -65 661 -26 q 622 -135 622 -103 q 676 -181 622 -181 q 719 -171 690 -181 l 719 -244 q 650 -258 692 -258 z "},"ů":{"ha":796,"x_min":108,"x_max":688,"o":"m 394 768 q 317 772 343 768 q 263 788 290 775 q 222 828 235 800 q 210 904 210 856 l 210 921 q 222 1002 210 972 q 263 1046 235 1032 q 317 1062 290 1058 q 394 1065 343 1065 q 459 1063 436 1065 q 507 1054 482 1061 q 547 1031 533 1046 q 571 989 561 1017 q 581 921 581 964 l 581 904 q 569 828 581 856 q 529 788 557 800 q 474 772 501 775 q 394 768 447 768 m 394 826 q 456 831 436 826 q 485 849 476 835 q 493 894 493 864 l 493 932 q 485 981 493 965 q 456 1002 476 997 q 394 1007 436 1007 q 333 1002 353 1007 q 306 981 314 997 q 297 932 297 965 l 297 894 q 306 849 297 864 q 333 831 314 835 q 394 826 353 826 m 342 -14 q 160 33 213 -14 q 108 179 108 79 l 108 672 l 233 672 l 233 186 q 238 144 233 160 q 256 111 243 128 q 378 75 281 75 q 522 94 481 75 q 563 165 563 114 l 563 672 l 688 672 l 688 0 l 563 0 l 563 82 q 342 -14 544 -14 z "},"ũ":{"ha":796,"x_min":108,"x_max":688,"o":"m 342 -14 q 160 33 213 -14 q 108 179 108 79 l 108 672 l 233 672 l 233 186 q 238 144 233 160 q 256 111 243 128 q 378 75 281 75 q 522 94 481 75 q 563 165 563 114 l 563 672 l 688 672 l 688 0 l 563 0 l 563 82 q 342 -14 544 -14 m 208 800 q 247 866 218 838 q 322 894 276 894 q 408 874 354 894 q 483 853 460 853 q 522 864 504 853 q 549 897 540 875 l 592 872 q 549 803 581 833 q 471 772 517 772 q 381 796 439 772 q 310 818 326 818 q 251 772 269 818 l 208 800 z "},"v":{"ha":643,"x_min":8,"x_max":635,"o":"m 250 0 l 8 672 l 140 672 l 326 108 l 333 108 l 514 672 l 635 672 l 400 0 l 250 0 z "},"w":{"ha":1100,"x_min":17,"x_max":1083,"o":"m 243 0 l 17 672 l 154 672 l 318 119 l 326 119 l 485 672 l 625 672 l 789 119 l 797 119 l 956 672 l 1083 672 l 863 0 l 714 0 l 551 543 l 392 0 l 243 0 z "},"ẃ":{"ha":1100,"x_min":17,"x_max":1083,"o":"m 243 0 l 17 672 l 154 672 l 318 119 l 326 119 l 485 672 l 625 672 l 789 119 l 797 119 l 956 672 l 1083 672 l 863 0 l 714 0 l 551 543 l 392 0 l 243 0 z "},"ŵ":{"ha":1100,"x_min":17,"x_max":1083,"o":"m 385 768 l 479 944 l 628 944 l 719 768 l 639 768 l 553 889 l 465 768 l 385 768 m 243 0 l 17 672 l 154 672 l 318 119 l 326 119 l 485 672 l 625 672 l 789 119 l 797 119 l 956 672 l 1083 672 l 863 0 l 714 0 l 551 543 l 392 0 l 243 0 z "},"ẅ":{"ha":1100,"x_min":17,"x_max":1083,"o":"m 371 785 l 371 915 l 496 915 l 496 785 l 371 785 m 607 785 l 607 915 l 732 915 l 732 785 l 607 785 m 243 0 l 17 672 l 154 672 l 318 119 l 326 119 l 485 672 l 625 672 l 789 119 l 797 119 l 956 672 l 1083 672 l 863 0 l 714 0 l 551 543 l 392 0 l 243 0 z "},"ẁ":{"ha":1100,"x_min":17,"x_max":1083,"o":"m 510 768 l 336 944 l 488 944 l 613 768 l 510 768 m 243 0 l 17 672 l 154 672 l 318 119 l 326 119 l 485 672 l 625 672 l 789 119 l 797 119 l 956 672 l 1083 672 l 863 0 l 714 0 l 551 543 l 392 0 l 243 0 z "},"x":{"ha":665,"x_min":14,"x_max":651,"o":"m 14 0 l 264 346 l 28 672 l 165 672 l 332 426 l 500 672 l 638 672 l 401 346 l 651 0 l 514 0 l 332 265 l 151 0 l 14 0 z "},"y":{"ha":639,"x_min":8,"x_max":631,"o":"m 163 -289 l 268 -10 l 8 672 l 144 672 l 332 124 l 335 124 l 504 672 l 631 672 l 293 -289 l 163 -289 z "},"ý":{"ha":639,"x_min":8,"x_max":631,"o":"m 163 -289 l 268 -10 l 8 672 l 144 672 l 332 124 l 335 124 l 504 672 l 631 672 l 293 -289 l 163 -289 m 250 768 l 375 944 l 526 944 l 353 768 l 250 768 z "},"ŷ":{"ha":639,"x_min":8,"x_max":631,"o":"m 156 768 l 250 944 l 399 944 l 490 768 l 410 768 l 324 889 l 236 768 l 156 768 m 163 -289 l 268 -10 l 8 672 l 144 672 l 332 124 l 335 124 l 504 672 l 631 672 l 293 -289 l 163 -289 z "},"ÿ":{"ha":639,"x_min":8,"x_max":631,"o":"m 163 -289 l 268 -10 l 8 672 l 144 672 l 332 124 l 335 124 l 504 672 l 631 672 l 293 -289 l 163 -289 m 139 785 l 139 915 l 264 915 l 264 785 l 139 785 m 375 785 l 375 915 l 500 915 l 500 785 l 375 785 z "},"ỵ":{"ha":639,"x_min":8,"x_max":631,"o":"m 163 -289 l 268 -10 l 8 672 l 144 672 l 332 124 l 335 124 l 504 672 l 631 672 l 293 -289 l 163 -289 m 425 -210 l 425 -86 l 557 -86 l 557 -210 l 425 -210 z "},"ỳ":{"ha":639,"x_min":8,"x_max":631,"o":"m 163 -289 l 268 -10 l 8 672 l 144 672 l 332 124 l 335 124 l 504 672 l 631 672 l 293 -289 l 163 -289 m 263 768 l 89 944 l 240 944 l 365 768 l 263 768 z "},"ỷ":{"ha":639,"x_min":8,"x_max":631,"o":"m 163 -289 l 268 -10 l 8 672 l 144 672 l 332 124 l 335 124 l 504 672 l 631 672 l 293 -289 l 163 -289 m 279 807 q 286 838 279 828 q 307 858 293 847 q 331 885 325 871 q 336 922 336 899 q 322 952 336 944 q 275 960 308 960 q 240 956 256 960 q 219 950 224 951 l 219 1026 q 247 1034 233 1032 q 285 1036 260 1036 q 385 1006 353 1036 q 418 926 418 976 q 411 880 418 903 q 392 847 404 857 q 364 822 372 832 q 356 794 356 813 l 279 794 l 279 807 z "},"ỹ":{"ha":639,"x_min":8,"x_max":631,"o":"m 163 -289 l 268 -10 l 8 672 l 144 672 l 332 124 l 335 124 l 504 672 l 631 672 l 293 -289 l 163 -289 m 129 800 q 168 866 139 838 q 243 894 197 894 q 329 874 275 894 q 404 853 381 853 q 443 864 425 853 q 469 897 461 875 l 513 872 q 469 803 501 833 q 392 772 438 772 q 301 796 360 772 q 231 818 247 818 q 172 772 190 818 l 129 800 z "},"z":{"ha":631,"x_min":56,"x_max":583,"o":"m 56 0 l 56 85 l 433 588 l 69 588 l 69 672 l 575 672 l 575 588 l 197 85 l 583 85 l 583 0 l 56 0 z "},"ź":{"ha":631,"x_min":56,"x_max":583,"o":"m 213 768 l 338 944 l 489 944 l 315 768 l 213 768 m 56 0 l 56 85 l 433 588 l 69 588 l 69 672 l 575 672 l 575 588 l 197 85 l 583 85 l 583 0 l 56 0 z "},"ž":{"ha":631,"x_min":56,"x_max":583,"o":"m 233 768 l 139 944 l 219 944 l 307 824 l 393 944 l 474 944 l 382 768 l 233 768 m 56 0 l 56 85 l 433 588 l 69 588 l 69 672 l 575 672 l 575 588 l 197 85 l 583 85 l 583 0 l 56 0 z "},"ż":{"ha":631,"x_min":56,"x_max":583,"o":"m 253 789 l 253 925 l 378 925 l 378 789 l 253 789 m 56 0 l 56 85 l 433 588 l 69 588 l 69 672 l 575 672 l 575 588 l 197 85 l 583 85 l 583 0 l 56 0 z "},"ﬁ":{"ha":856,"x_min":14,"x_max":747,"o":"m 168 590 l 14 590 l 14 672 l 168 672 l 168 781 q 219 941 168 896 q 390 986 269 986 q 531 979 465 986 l 531 899 q 436 906 478 906 q 347 896 376 906 q 305 862 317 886 q 293 789 293 838 l 293 672 l 531 672 l 531 590 l 293 590 l 293 0 l 168 0 l 168 590 m 622 836 l 622 972 l 747 972 l 747 836 l 622 836 m 622 0 l 622 672 l 747 672 l 747 0 l 622 0 z "},"ﬂ":{"ha":856,"x_min":14,"x_max":747,"o":"m 168 590 l 14 590 l 14 672 l 168 672 l 168 781 q 219 941 168 896 q 390 986 269 986 q 531 979 465 986 l 531 899 q 436 906 478 906 q 347 896 376 906 q 305 862 317 886 q 293 789 293 838 l 293 672 l 531 672 l 531 590 l 293 590 l 293 0 l 168 0 l 168 590 m 622 0 l 622 972 l 747 972 l 747 0 l 622 0 z "},"ª":{"ha":442,"x_min":49,"x_max":393,"o":"m 199 515 q 81 540 113 515 q 49 639 49 565 q 80 731 49 706 q 197 756 111 756 l 300 756 l 300 808 q 283 845 300 835 q 219 856 265 856 q 78 847 150 856 l 78 910 q 229 917 172 917 q 334 906 300 917 q 381 870 368 896 q 393 792 393 844 l 393 522 l 303 522 l 303 560 q 199 515 275 515 m 211 571 q 300 601 300 571 l 300 701 l 201 701 q 153 690 164 701 q 143 636 143 678 q 153 585 143 599 q 196 571 164 571 l 211 571 m 49 379 l 49 457 l 393 457 l 393 379 l 49 379 z "},"º":{"ha":467,"x_min":47,"x_max":419,"o":"m 233 515 q 166 517 188 515 q 121 526 144 519 q 81 547 94 533 q 57 585 67 560 q 47 646 47 608 l 47 775 q 60 854 47 825 q 101 897 72 883 q 156 913 129 910 q 233 917 182 917 q 312 913 285 917 q 367 897 339 910 q 407 854 394 883 q 419 775 419 825 l 419 646 q 407 573 419 600 q 367 535 394 546 q 312 519 339 522 q 233 515 285 515 m 233 572 q 305 583 288 572 q 322 636 322 594 l 322 788 q 315 835 322 819 q 289 855 307 850 q 233 860 271 860 q 176 855 194 860 q 149 835 157 850 q 142 788 142 821 l 142 636 q 160 583 142 594 q 233 572 178 572 m 49 379 l 49 457 l 419 457 l 419 379 l 49 379 z "},"А":{"ha":906,"x_min":21,"x_max":885,"o":"m 21 0 l 379 901 l 535 901 l 885 0 l 744 0 l 642 274 l 256 274 l 154 0 l 21 0 m 290 367 l 608 367 l 456 774 l 443 774 l 290 367 z "},"Б":{"ha":792,"x_min":117,"x_max":729,"o":"m 117 901 l 668 901 l 668 806 l 251 806 l 251 513 l 386 513 q 504 509 458 513 q 594 494 550 506 q 668 464 640 483 q 713 411 696 444 q 729 329 729 376 l 729 196 q 411 0 729 0 l 117 0 l 117 901 m 401 92 q 464 94 440 92 q 522 106 488 97 q 578 140 558 115 q 597 201 597 164 l 597 314 q 553 397 597 372 q 404 421 508 421 l 250 421 l 250 92 l 401 92 z "},"В":{"ha":851,"x_min":117,"x_max":768,"o":"m 117 901 l 439 901 q 622 878 554 901 q 706 822 685 856 q 728 731 728 789 l 728 610 q 697 526 728 556 q 604 482 667 496 l 604 476 q 723 426 678 464 q 768 331 768 388 l 768 179 q 694 40 768 81 q 449 0 621 0 l 117 0 l 117 901 m 443 507 q 565 533 528 507 q 601 614 601 558 l 601 719 q 564 792 601 771 q 439 813 526 813 l 251 813 l 251 507 l 443 507 m 449 93 q 592 114 550 93 q 633 185 633 135 l 633 321 q 619 378 633 357 q 574 410 604 400 q 519 420 543 418 q 449 422 496 422 l 251 422 l 251 93 l 449 93 z "},"Г":{"ha":708,"x_min":117,"x_max":667,"o":"m 117 0 l 117 901 l 667 901 l 667 807 l 251 807 l 251 0 l 117 0 z "},"Ѓ":{"ha":708,"x_min":117,"x_max":667,"o":"m 117 0 l 117 901 l 667 901 l 667 807 l 251 807 l 251 0 l 117 0 m 338 993 l 463 1169 l 614 1169 l 440 993 l 338 993 z "},"Ґ":{"ha":708,"x_min":117,"x_max":667,"o":"m 117 0 l 117 901 l 560 901 l 560 1058 l 667 1058 l 667 807 l 251 807 l 251 0 l 117 0 z "},"Д":{"ha":904,"x_min":35,"x_max":864,"o":"m 864 94 l 864 -231 l 747 -231 l 747 0 l 153 0 l 153 -231 l 35 -231 l 35 94 l 46 94 q 147 148 108 94 q 204 340 185 201 q 224 732 224 478 l 224 901 l 767 901 l 767 94 l 864 94 m 632 94 l 632 807 l 342 807 l 342 626 q 229 94 342 233 l 632 94 z "},"Е":{"ha":806,"x_min":117,"x_max":736,"o":"m 117 0 l 117 901 l 722 901 l 722 807 l 251 807 l 251 513 l 676 513 l 676 418 l 251 418 l 251 94 l 736 94 l 736 0 l 117 0 z "},"Ѐ":{"ha":806,"x_min":117,"x_max":736,"o":"m 117 0 l 117 901 l 722 901 l 722 807 l 251 807 l 251 513 l 676 513 l 676 418 l 251 418 l 251 94 l 736 94 l 736 0 l 117 0 m 376 989 l 203 1165 l 354 1165 l 479 989 l 376 989 z "},"Ё":{"ha":806,"x_min":117,"x_max":736,"o":"m 117 0 l 117 901 l 722 901 l 722 807 l 251 807 l 251 513 l 676 513 l 676 418 l 251 418 l 251 94 l 736 94 l 736 0 l 117 0 m 250 1049 l 250 1179 l 375 1179 l 375 1049 l 250 1049 m 486 1049 l 486 1179 l 611 1179 l 611 1049 l 486 1049 z "},"Ж":{"ha":1244,"x_min":14,"x_max":1231,"o":"m 1231 0 l 1096 0 l 964 244 q 887 351 926 314 q 799 403 847 389 q 683 418 751 418 l 683 0 l 561 0 l 561 418 q 445 403 493 418 q 358 351 397 389 q 281 244 318 314 l 149 0 l 14 0 l 161 282 q 258 407 203 361 q 388 472 314 453 q 326 505 354 485 q 271 564 297 525 l 42 901 l 189 901 l 376 599 q 452 528 410 544 q 561 513 494 513 l 561 901 l 683 901 l 683 513 q 792 528 750 513 q 868 599 835 544 l 1056 901 l 1203 901 l 974 564 q 919 505 947 525 q 857 472 890 485 q 986 407 931 453 q 1083 282 1042 361 l 1231 0 z "},"З":{"ha":806,"x_min":75,"x_max":694,"o":"m 365 -14 q 75 13 221 -14 l 75 115 q 351 81 240 81 q 510 102 456 81 q 564 185 564 124 l 564 336 q 378 422 564 422 l 190 422 l 190 508 l 354 508 q 542 597 542 508 l 542 749 q 361 821 542 821 q 199 814 313 821 l 93 806 l 93 900 q 360 911 274 911 q 592 876 517 911 q 668 760 668 842 l 668 592 q 633 520 668 549 q 544 483 599 492 l 544 478 q 599 466 578 472 q 646 447 621 460 q 694 360 694 422 l 694 179 q 607 28 694 71 q 365 -14 519 -14 z "},"И":{"ha":1004,"x_min":118,"x_max":875,"o":"m 118 0 l 118 901 l 242 901 l 242 171 l 751 901 l 875 901 l 875 0 l 751 0 l 751 743 l 242 0 l 118 0 z "},"Й":{"ha":1004,"x_min":118,"x_max":875,"o":"m 118 0 l 118 901 l 242 901 l 242 171 l 751 901 l 875 901 l 875 0 l 751 0 l 751 743 l 242 0 l 118 0 m 489 997 q 332 1045 390 997 q 269 1174 274 1093 l 372 1174 q 489 1065 385 1065 q 606 1174 593 1065 l 708 1174 q 647 1046 706 1094 q 489 997 589 997 z "},"Ѝ":{"ha":1004,"x_min":118,"x_max":875,"o":"m 118 0 l 118 901 l 242 901 l 242 171 l 751 901 l 875 901 l 875 0 l 751 0 l 751 743 l 242 0 l 118 0 m 435 989 l 261 1165 l 413 1165 l 538 989 l 435 989 z "},"К":{"ha":842,"x_min":117,"x_max":828,"o":"m 453 472 q 583 407 528 453 q 681 282 639 361 l 828 0 l 693 0 l 561 244 q 482 352 522 315 q 388 403 442 389 q 253 418 335 418 l 253 0 l 117 0 l 117 901 l 253 901 l 253 513 q 382 528 336 513 q 465 599 428 544 l 681 901 l 828 901 l 571 564 q 453 472 519 497 z "},"Ќ":{"ha":842,"x_min":117,"x_max":828,"o":"m 453 472 q 583 407 528 453 q 681 282 639 361 l 828 0 l 693 0 l 561 244 q 482 352 522 315 q 388 403 442 389 q 253 418 335 418 l 253 0 l 117 0 l 117 901 l 253 901 l 253 513 q 382 528 336 513 q 465 599 428 544 l 681 901 l 828 901 l 571 564 q 453 472 519 497 m 365 993 l 490 1169 l 642 1169 l 468 993 l 365 993 z "},"Л":{"ha":906,"x_min":42,"x_max":789,"o":"m 103 -3 q 42 1 71 -3 l 42 136 q 82 132 63 132 q 172 181 136 132 q 227 351 208 229 q 246 690 246 474 l 246 901 l 789 901 l 789 0 l 654 0 l 654 807 l 364 807 l 364 640 q 300 167 364 338 q 103 -3 236 -3 z "},"М":{"ha":1196,"x_min":117,"x_max":1079,"o":"m 117 0 l 117 901 l 318 901 l 607 151 l 611 150 l 885 901 l 1079 901 l 1079 0 l 961 0 l 961 763 l 954 763 l 664 0 l 543 0 l 244 763 l 238 763 l 238 0 l 117 0 z "},"Н":{"ha":982,"x_min":117,"x_max":865,"o":"m 117 0 l 117 901 l 251 901 l 251 513 l 731 513 l 731 901 l 865 901 l 865 0 l 731 0 l 731 418 l 251 418 l 251 0 l 117 0 z "},"О":{"ha":943,"x_min":92,"x_max":851,"o":"m 469 -14 q 92 231 92 -14 l 92 657 q 469 915 92 915 q 851 658 851 915 l 851 231 q 746 43 851 100 q 469 -14 640 -14 m 472 76 q 721 232 721 76 l 721 661 q 471 828 721 828 q 285 790 350 828 q 221 661 221 753 l 221 232 q 472 76 221 76 z "},"П":{"ha":954,"x_min":117,"x_max":838,"o":"m 117 0 l 117 901 l 838 901 l 838 0 l 703 0 l 703 808 l 251 808 l 251 0 l 117 0 z "},"Р":{"ha":792,"x_min":117,"x_max":729,"o":"m 117 901 l 411 901 q 512 899 474 901 q 593 886 550 896 q 665 857 638 876 q 711 804 692 838 q 729 724 729 772 l 729 536 q 642 374 729 424 q 386 325 556 325 l 251 325 l 251 0 l 117 0 l 117 901 m 404 410 q 544 442 492 410 q 597 543 597 474 l 597 707 q 578 769 597 744 q 522 803 558 793 q 464 814 488 811 q 401 817 440 817 l 250 817 l 250 410 l 404 410 z "},"С":{"ha":783,"x_min":89,"x_max":721,"o":"m 468 -14 q 89 231 89 -14 l 89 658 q 468 917 89 917 q 715 890 597 917 l 715 790 q 471 824 582 824 q 376 817 417 824 q 299 796 336 811 q 218 660 218 761 l 218 238 q 476 82 218 82 q 721 115 588 82 l 721 13 q 468 -14 603 -14 z "},"Т":{"ha":813,"x_min":33,"x_max":779,"o":"m 339 0 l 339 807 l 33 807 l 33 901 l 779 901 l 779 807 l 474 807 l 474 0 l 339 0 z "},"У":{"ha":756,"x_min":0,"x_max":797,"o":"m 797 901 l 450 160 q 396 61 421 97 q 336 6 371 25 q 250 -14 301 -14 q 133 0 194 -14 l 133 97 q 218 88 174 88 q 290 115 264 88 q 346 204 317 142 l 361 239 l 0 901 l 150 901 l 422 372 l 664 901 l 797 901 z "},"Ў":{"ha":756,"x_min":0,"x_max":797,"o":"m 797 901 l 450 160 q 396 61 421 97 q 336 6 371 25 q 250 -14 301 -14 q 133 0 194 -14 l 133 97 q 218 88 174 88 q 290 115 264 88 q 346 204 317 142 l 361 239 l 0 901 l 150 901 l 422 372 l 664 901 l 797 901 m 407 997 q 250 1045 308 997 q 188 1174 192 1093 l 290 1174 q 407 1065 303 1065 q 524 1174 511 1065 l 626 1174 q 565 1046 624 1094 q 407 997 507 997 z "},"Ф":{"ha":1082,"x_min":92,"x_max":994,"o":"m 610 869 q 990 611 994 869 l 988 338 q 897 154 992 215 q 610 93 801 93 l 610 -28 l 475 -28 l 475 93 q 92 338 92 93 l 92 611 q 475 869 92 869 l 475 971 l 610 971 l 610 869 m 221 339 q 475 183 221 183 l 475 782 q 287 744 353 782 q 221 615 221 707 l 221 339 m 610 183 q 864 339 864 183 l 863 615 q 798 744 864 707 q 610 782 732 782 l 610 183 z "},"Х":{"ha":839,"x_min":11,"x_max":828,"o":"m 11 0 l 343 460 l 25 901 l 179 901 l 419 553 l 660 901 l 814 901 l 496 460 l 828 0 l 674 0 l 419 367 l 165 0 l 11 0 z "},"Ч":{"ha":847,"x_min":96,"x_max":731,"o":"m 731 901 l 731 0 l 596 0 l 596 346 q 360 290 488 290 q 158 347 219 290 q 96 517 96 403 l 96 901 l 229 901 l 229 528 q 269 417 229 450 q 392 385 308 385 q 505 399 457 385 q 596 440 553 413 l 596 901 l 731 901 z "},"Ц":{"ha":933,"x_min":117,"x_max":893,"o":"m 776 -189 l 776 0 l 117 0 l 117 901 l 251 901 l 251 94 l 661 94 l 661 901 l 796 901 l 796 94 l 893 94 l 893 -189 l 776 -189 z "},"Ш":{"ha":1290,"x_min":117,"x_max":1174,"o":"m 117 0 l 117 901 l 251 901 l 251 93 l 578 93 l 578 901 l 713 901 l 713 93 l 1039 93 l 1039 901 l 1174 901 l 1174 0 l 117 0 z "},"Щ":{"ha":1311,"x_min":117,"x_max":1271,"o":"m 1174 94 l 1271 94 l 1271 -231 l 1154 -231 l 1154 0 l 117 0 l 117 901 l 251 901 l 251 94 l 578 94 l 578 901 l 713 901 l 713 94 l 1039 94 l 1039 901 l 1174 901 l 1174 94 z "},"Џ":{"ha":954,"x_min":117,"x_max":838,"o":"m 419 -231 l 419 0 l 117 0 l 117 901 l 251 901 l 251 93 l 703 93 l 703 901 l 838 901 l 838 0 l 546 0 l 546 -231 l 419 -231 z "},"Ь":{"ha":792,"x_min":117,"x_max":729,"o":"m 117 901 l 251 901 l 251 568 l 386 568 q 570 556 499 568 q 685 504 642 544 q 729 385 729 464 l 729 196 q 411 0 729 0 l 117 0 l 117 901 m 401 92 q 548 115 499 92 q 597 201 597 139 l 597 369 q 579 436 597 414 q 520 467 561 458 q 404 476 479 476 l 250 476 l 250 92 l 401 92 z "},"Ъ":{"ha":863,"x_min":0,"x_max":800,"o":"m 457 568 q 641 556 569 568 q 756 504 713 544 q 800 385 800 464 l 800 196 q 482 0 800 0 l 215 0 l 215 807 l 0 807 l 0 901 l 350 901 l 350 568 l 457 568 m 668 369 q 650 436 668 414 q 591 467 632 458 q 475 476 550 476 l 349 476 l 349 92 l 472 92 q 619 115 569 92 q 668 201 668 139 l 668 369 z "},"Ы":{"ha":1092,"x_min":117,"x_max":975,"o":"m 117 901 l 251 901 l 251 568 l 358 568 q 542 556 471 568 q 658 504 614 544 q 701 385 701 464 l 701 196 q 383 0 701 0 l 117 0 l 117 901 m 840 0 l 840 901 l 975 901 l 975 0 l 840 0 m 374 92 q 520 115 471 92 q 569 201 569 139 l 569 369 q 551 436 569 414 q 492 467 533 458 q 376 476 451 476 l 250 476 l 250 92 l 374 92 z "},"Љ":{"ha":1286,"x_min":25,"x_max":1222,"o":"m 86 -3 q 25 1 54 -3 l 25 136 q 65 132 46 132 q 156 181 119 132 q 210 351 192 229 q 229 690 229 474 l 229 901 l 771 901 l 771 900 l 772 901 l 772 568 l 879 568 q 1063 556 992 568 q 1178 504 1135 544 q 1222 385 1222 464 l 1222 196 q 904 0 1222 0 l 638 0 l 638 807 l 347 807 l 347 640 q 283 167 347 338 q 86 -3 219 -3 m 894 92 q 1041 115 992 92 q 1090 201 1090 139 l 1090 369 q 1072 436 1090 414 q 1013 467 1054 458 q 897 476 972 476 l 771 476 l 771 92 l 894 92 z "},"Њ":{"ha":1406,"x_min":117,"x_max":1343,"o":"m 1000 568 q 1184 556 1113 568 q 1299 504 1256 544 q 1343 385 1343 464 l 1343 196 q 1025 0 1343 0 l 731 0 l 731 418 l 251 418 l 251 0 l 117 0 l 117 901 l 251 901 l 251 513 l 731 513 l 731 901 l 865 901 l 865 568 l 1000 568 m 1211 369 q 1193 436 1211 414 q 1134 467 1175 458 q 1018 476 1093 476 l 865 476 l 865 92 l 1015 92 q 1162 115 1113 92 q 1211 201 1211 139 l 1211 369 z "},"Ѕ":{"ha":790,"x_min":83,"x_max":714,"o":"m 367 -14 q 101 8 261 -14 l 101 121 q 369 86 258 86 q 533 108 485 86 q 582 194 582 131 l 582 311 q 549 393 582 369 q 432 417 515 417 l 326 417 q 139 469 194 417 q 83 633 83 522 l 83 706 q 117 825 83 779 q 228 893 150 871 q 440 915 306 915 q 669 900 528 915 l 669 799 q 433 822 511 822 q 257 797 301 822 q 214 710 214 772 l 214 607 q 248 538 214 560 q 365 517 282 517 l 474 517 q 619 494 567 517 q 692 427 671 472 q 714 306 714 382 l 714 240 q 678 88 714 143 q 567 9 642 32 q 367 -14 492 -14 z "},"Є":{"ha":783,"x_min":89,"x_max":721,"o":"m 468 -14 q 89 231 89 -14 l 89 658 q 468 917 89 917 q 715 890 597 917 l 715 790 q 471 824 582 824 q 376 817 417 824 q 299 796 336 811 q 218 660 218 761 l 218 511 l 676 511 l 676 418 l 218 418 l 218 238 q 476 82 218 82 q 721 115 588 82 l 721 13 q 468 -14 603 -14 z "},"Э":{"ha":782,"x_min":61,"x_max":693,"o":"m 314 -14 q 61 13 179 -14 l 61 115 q 306 82 194 82 q 564 238 564 82 l 564 418 l 231 418 l 231 511 l 564 511 l 564 660 q 483 796 564 761 q 406 817 446 811 q 311 824 365 824 q 67 790 200 824 l 67 890 q 314 917 185 917 q 693 658 693 917 l 693 231 q 314 -14 693 -14 z "},"І":{"ha":368,"x_min":117,"x_max":251,"o":"m 117 0 l 117 901 l 251 901 l 251 0 l 117 0 z "},"Ї":{"ha":368,"x_min":4,"x_max":365,"o":"m 117 0 l 117 901 l 251 901 l 251 0 l 117 0 m 4 1049 l 4 1179 l 129 1179 l 129 1049 l 4 1049 m 240 1049 l 240 1179 l 365 1179 l 365 1049 l 240 1049 z "},"Ј":{"ha":560,"x_min":28,"x_max":443,"o":"m 193 -7 q 28 1 169 -7 l 28 92 l 176 76 q 259 85 232 76 q 297 117 286 93 q 308 193 308 142 l 308 901 l 443 901 l 443 199 q 419 69 443 114 q 342 9 394 25 q 193 -7 289 -7 z "},"Ћ":{"ha":1014,"x_min":33,"x_max":918,"o":"m 654 611 q 856 555 794 611 q 918 385 918 499 l 918 0 l 785 0 l 785 374 q 745 484 785 451 q 622 517 706 517 q 509 503 557 517 q 418 461 461 489 l 418 0 l 283 0 l 283 807 l 33 807 l 33 901 l 765 901 l 765 807 l 418 807 l 418 556 q 654 611 526 611 z "},"Ю":{"ha":1297,"x_min":117,"x_max":1206,"o":"m 824 -14 q 446 231 446 -14 l 446 415 l 251 415 l 251 0 l 117 0 l 117 901 l 251 901 l 251 501 l 446 501 l 446 657 q 824 915 446 915 q 1206 658 1206 915 l 1206 231 q 1171 107 1206 158 q 1074 31 1136 56 q 955 -3 1014 7 q 824 -14 896 -14 m 826 76 q 1075 232 1075 76 l 1075 661 q 825 828 1075 828 q 730 822 769 828 q 654 799 690 815 q 575 661 575 761 l 575 232 q 826 76 575 76 z "},"Я":{"ha":850,"x_min":44,"x_max":733,"o":"m 733 901 l 733 0 l 599 0 l 599 343 l 393 343 l 210 0 l 44 0 l 260 367 q 144 422 188 381 q 100 528 100 464 l 100 725 q 131 835 100 797 q 228 887 161 872 q 417 901 296 901 l 733 901 m 599 813 l 410 813 q 235 711 235 813 l 235 544 q 276 460 235 488 q 422 432 318 432 l 599 432 l 599 813 z "},"Ђ":{"ha":960,"x_min":33,"x_max":904,"o":"m 614 -12 q 490 0 565 -12 l 490 92 q 596 76 551 76 q 728 133 685 76 q 771 308 771 190 q 730 471 771 425 q 596 517 689 517 q 404 461 492 517 l 404 0 l 269 0 l 269 807 l 33 807 l 33 901 l 765 901 l 765 807 l 404 807 l 404 556 q 640 611 513 611 q 842 540 781 611 q 904 322 904 469 q 614 -12 904 -12 z "},"Ѣ":{"ha":847,"x_min":33,"x_max":785,"o":"m 442 568 q 626 556 554 568 q 741 504 697 544 q 785 385 785 464 l 785 196 q 467 0 785 0 l 172 0 l 172 696 l 33 696 l 33 790 l 172 790 l 172 901 l 307 901 l 307 790 l 543 790 l 543 696 l 307 696 l 307 568 l 442 568 m 653 369 q 635 436 653 414 q 576 467 617 458 q 460 476 535 476 l 306 476 l 306 92 l 457 92 q 603 115 554 92 q 653 201 653 139 l 653 369 z "},"Ѫ":{"ha":1244,"x_min":14,"x_max":1231,"o":"m 1231 0 l 1096 0 l 964 244 q 887 351 926 314 q 799 403 847 389 q 683 418 751 418 l 683 0 l 561 0 l 561 418 q 445 403 493 418 q 358 351 397 389 q 281 244 318 314 l 149 0 l 14 0 l 161 282 q 285 429 213 379 q 489 479 358 479 l 511 479 l 158 901 l 1086 901 l 733 479 l 756 479 q 959 429 886 479 q 1083 282 1032 379 l 1231 0 m 869 807 l 375 807 l 622 503 l 869 807 z "},"Ѳ":{"ha":943,"x_min":92,"x_max":851,"o":"m 469 915 q 851 658 851 915 l 851 231 q 746 43 851 100 q 469 -14 640 -14 q 92 231 92 -14 l 92 657 q 469 915 92 915 m 471 828 q 285 790 350 828 q 221 661 221 753 l 221 513 l 721 513 l 721 661 q 471 828 721 828 m 472 76 q 721 232 721 76 l 721 418 l 221 418 l 221 232 q 472 76 221 76 z "},"Ѵ":{"ha":913,"x_min":6,"x_max":913,"o":"m 6 901 l 153 901 l 388 246 q 422 143 411 181 l 457 246 l 642 790 q 799 917 685 917 q 856 908 831 917 q 913 878 882 899 l 885 800 q 836 811 858 811 q 746 733 775 811 l 478 0 l 356 0 l 6 901 z "},"Ғ":{"ha":778,"x_min":14,"x_max":667,"o":"m 667 807 l 251 807 l 251 513 l 506 513 l 506 418 l 251 418 l 251 0 l 117 0 l 117 418 l 14 418 l 14 513 l 117 513 l 117 901 l 667 901 l 667 807 z "},"Ҕ":{"ha":807,"x_min":117,"x_max":751,"o":"m 461 569 q 685 490 619 569 q 751 249 751 410 q 670 -37 751 49 q 461 -124 589 -124 q 338 -111 413 -124 l 338 -19 q 443 -35 399 -35 q 579 24 540 -35 q 618 217 618 83 q 599 371 618 315 q 538 451 579 426 q 424 475 496 475 q 251 447 339 475 l 251 0 l 117 0 l 117 901 l 667 901 l 667 807 l 251 807 l 251 542 q 461 569 360 569 z "},"Җ":{"ha":1314,"x_min":14,"x_max":1286,"o":"m 1286 94 l 1286 -189 l 1169 -189 l 1169 0 l 1096 0 l 964 244 q 887 351 926 314 q 799 403 847 389 q 683 418 751 418 l 683 0 l 561 0 l 561 418 q 445 403 493 418 q 358 351 397 389 q 281 244 318 314 l 149 0 l 14 0 l 161 282 q 258 407 203 361 q 388 472 314 453 q 326 505 354 485 q 271 564 297 525 l 42 901 l 189 901 l 376 599 q 452 528 410 544 q 561 513 494 513 l 561 901 l 683 901 l 683 513 q 792 528 750 513 q 868 599 835 544 l 1056 901 l 1203 901 l 974 564 q 919 505 947 525 q 857 472 890 485 q 986 407 931 453 q 1083 282 1042 361 l 1181 94 l 1286 94 z "},"Ҙ":{"ha":806,"x_min":75,"x_max":694,"o":"m 646 447 q 694 360 694 422 l 694 179 q 628 42 694 85 q 442 -11 561 -1 q 456 -117 456 -76 q 416 -224 456 -183 q 310 -264 376 -264 q 164 -224 242 -264 l 164 -144 q 276 -175 224 -175 q 346 -147 319 -175 q 372 -74 372 -118 q 364 -14 372 -46 q 75 13 221 -14 l 75 115 q 351 81 240 81 q 510 102 456 81 q 564 185 564 124 l 564 336 q 378 422 564 422 l 190 422 l 190 508 l 354 508 q 542 597 542 508 l 542 749 q 361 821 542 821 q 199 814 313 821 l 93 806 l 93 900 q 360 911 274 911 q 592 876 517 911 q 668 760 668 842 l 668 592 q 633 520 668 549 q 544 483 599 492 l 544 478 q 599 466 578 472 q 646 447 621 460 z "},"Қ":{"ha":911,"x_min":117,"x_max":883,"o":"m 883 94 l 883 -189 l 767 -189 l 767 0 l 693 0 l 561 244 q 482 352 522 315 q 388 403 442 389 q 253 418 335 418 l 253 0 l 117 0 l 117 901 l 253 901 l 253 513 q 382 528 336 513 q 465 599 428 544 l 681 901 l 828 901 l 571 564 q 453 472 519 497 q 583 407 528 453 q 681 282 639 361 l 778 94 l 883 94 z "},"Ҝ":{"ha":842,"x_min":117,"x_max":828,"o":"m 453 472 q 583 407 528 453 q 681 282 639 361 l 828 0 l 693 0 l 561 244 q 502 332 532 299 q 438 383 472 365 l 438 242 l 367 242 l 367 408 q 253 418 319 418 l 253 0 l 117 0 l 117 901 l 253 901 l 253 513 q 367 524 331 513 l 367 682 l 438 682 l 438 565 q 465 599 446 574 l 681 901 l 828 901 l 571 564 q 453 472 519 497 z "},"Ҡ":{"ha":961,"x_min":0,"x_max":947,"o":"m 572 472 q 703 407 647 453 q 800 282 758 361 l 947 0 l 813 0 l 681 244 q 601 352 642 315 q 508 403 561 389 q 372 418 454 418 l 372 0 l 236 0 l 236 807 l 0 807 l 0 901 l 372 901 l 372 513 q 501 528 456 513 q 585 599 547 544 l 800 901 l 947 901 l 690 564 q 572 472 639 497 z "},"Ң":{"ha":982,"x_min":117,"x_max":963,"o":"m 865 94 l 963 94 l 963 -189 l 846 -189 l 846 0 l 731 0 l 731 418 l 251 418 l 251 0 l 117 0 l 117 901 l 251 901 l 251 513 l 731 513 l 731 901 l 865 901 l 865 94 z "},"Ԥ":{"ha":954,"x_min":117,"x_max":935,"o":"m 838 94 l 935 94 l 935 -189 l 818 -189 l 818 0 l 703 0 l 703 808 l 251 808 l 251 0 l 117 0 l 117 901 l 838 901 l 838 94 z "},"Ҫ":{"ha":783,"x_min":89,"x_max":721,"o":"m 721 13 q 507 -14 622 -10 q 522 -126 522 -89 q 484 -229 522 -190 q 381 -268 446 -268 q 240 -229 313 -268 l 240 -151 q 349 -182 296 -182 q 416 -154 390 -182 q 442 -83 442 -126 q 432 -14 442 -58 q 89 231 89 -1 l 89 658 q 468 917 89 917 q 715 890 597 917 l 715 790 q 471 824 582 824 q 376 817 417 824 q 299 796 336 811 q 218 660 218 761 l 218 238 q 476 82 218 82 q 721 115 588 82 l 721 13 z "},"Ү":{"ha":811,"x_min":11,"x_max":800,"o":"m 338 0 l 338 364 l 11 901 l 165 901 l 406 478 l 646 901 l 800 901 l 472 368 l 472 0 l 338 0 z "},"Ұ":{"ha":811,"x_min":11,"x_max":800,"o":"m 338 0 l 338 364 l 304 418 l 69 418 l 69 513 l 247 513 l 11 901 l 165 901 l 406 478 l 646 901 l 800 901 l 561 513 l 714 513 l 714 418 l 503 418 l 472 368 l 472 0 l 338 0 z "},"Ҷ":{"ha":847,"x_min":96,"x_max":828,"o":"m 828 94 l 828 -189 l 711 -189 l 711 0 l 596 0 l 596 354 q 360 290 486 290 q 158 347 219 290 q 96 517 96 403 l 96 901 l 229 901 l 229 528 q 269 417 229 450 q 392 385 308 385 q 505 399 457 385 q 596 440 553 413 l 596 901 l 731 901 l 731 94 l 828 94 z "},"Ҹ":{"ha":847,"x_min":96,"x_max":731,"o":"m 731 901 l 731 0 l 596 0 l 596 354 q 458 300 535 318 l 458 129 l 388 129 l 388 292 q 360 290 378 290 q 158 347 219 290 q 96 517 96 403 l 96 901 l 229 901 l 229 528 q 267 419 229 451 q 388 385 306 386 l 388 569 l 458 569 l 458 389 q 596 440 533 400 l 596 901 l 731 901 z "},"Һ":{"ha":847,"x_min":117,"x_max":751,"o":"m 488 611 q 690 555 628 611 q 751 385 751 499 l 751 0 l 618 0 l 618 374 q 578 484 618 451 q 456 517 539 517 q 342 503 390 517 q 251 461 294 489 l 251 0 l 117 0 l 117 901 l 251 901 l 251 547 q 488 611 361 611 z "},"Ӏ":{"ha":368,"x_min":117,"x_max":251,"o":"m 117 0 l 117 901 l 251 901 l 251 0 l 117 0 z "},"Ӂ":{"ha":1244,"x_min":14,"x_max":1231,"o":"m 622 997 q 465 1045 524 997 q 403 1174 407 1093 l 506 1174 q 622 1065 518 1065 q 739 1174 726 1065 l 842 1174 q 781 1046 839 1094 q 622 997 722 997 m 1231 0 l 1096 0 l 964 244 q 887 351 926 314 q 799 403 847 389 q 683 418 751 418 l 683 0 l 561 0 l 561 418 q 445 403 493 418 q 358 351 397 389 q 281 244 318 314 l 149 0 l 14 0 l 161 282 q 258 407 203 361 q 388 472 314 453 q 326 505 354 485 q 271 564 297 525 l 42 901 l 189 901 l 376 599 q 452 528 410 544 q 561 513 494 513 l 561 901 l 683 901 l 683 513 q 792 528 750 513 q 868 599 835 544 l 1056 901 l 1203 901 l 974 564 q 919 505 947 525 q 857 472 890 485 q 986 407 931 453 q 1083 282 1042 361 l 1231 0 z "},"Ӌ":{"ha":847,"x_min":96,"x_max":731,"o":"m 511 93 l 596 93 l 596 346 q 360 290 488 290 q 158 347 219 290 q 96 517 96 403 l 96 901 l 229 901 l 229 528 q 269 417 229 450 q 392 385 308 385 q 505 399 457 385 q 596 440 553 413 l 596 901 l 731 901 l 731 0 l 622 0 l 622 -250 l 511 -250 l 511 93 z "},"Ӑ":{"ha":906,"x_min":21,"x_max":885,"o":"m 21 0 l 379 901 l 535 901 l 885 0 l 744 0 l 642 274 l 256 274 l 154 0 l 21 0 m 290 367 l 608 367 l 456 774 l 443 774 l 290 367 m 453 997 q 296 1045 354 997 q 233 1174 238 1093 l 336 1174 q 453 1065 349 1065 q 569 1174 557 1065 l 672 1174 q 611 1046 669 1094 q 453 997 553 997 z "},"Ӓ":{"ha":906,"x_min":21,"x_max":885,"o":"m 21 0 l 379 901 l 535 901 l 885 0 l 744 0 l 642 274 l 256 274 l 154 0 l 21 0 m 290 367 l 608 367 l 456 774 l 443 774 l 290 367 m 272 1049 l 272 1179 l 397 1179 l 397 1049 l 272 1049 m 508 1049 l 508 1179 l 633 1179 l 633 1049 l 508 1049 z "},"Ӗ":{"ha":806,"x_min":117,"x_max":736,"o":"m 117 0 l 117 901 l 722 901 l 722 807 l 251 807 l 251 513 l 676 513 l 676 418 l 251 418 l 251 94 l 736 94 l 736 0 l 117 0 m 431 997 q 274 1045 332 997 q 211 1174 215 1093 l 314 1174 q 431 1065 326 1065 q 547 1174 535 1065 l 650 1174 q 589 1046 647 1094 q 431 997 531 997 z "},"Ә":{"ha":946,"x_min":86,"x_max":854,"o":"m 458 -14 q 245 15 326 -14 q 125 110 164 44 q 86 290 86 176 l 86 503 l 724 503 l 724 654 q 414 828 724 828 q 121 783 301 828 l 121 881 q 467 917 299 917 q 750 849 646 917 q 854 644 854 781 l 854 290 q 813 113 854 179 q 685 17 772 47 q 458 -14 599 -14 m 463 75 q 657 108 590 75 q 724 219 724 140 l 724 407 l 217 407 l 217 219 q 463 75 217 75 z "},"Ӝ":{"ha":1244,"x_min":14,"x_max":1231,"o":"m 1231 0 l 1096 0 l 964 244 q 887 351 926 314 q 799 403 847 389 q 683 418 751 418 l 683 0 l 561 0 l 561 418 q 445 403 493 418 q 358 351 397 389 q 281 244 318 314 l 149 0 l 14 0 l 161 282 q 258 407 203 361 q 388 472 314 453 q 326 505 354 485 q 271 564 297 525 l 42 901 l 189 901 l 376 599 q 452 528 410 544 q 561 513 494 513 l 561 901 l 683 901 l 683 513 q 792 528 750 513 q 868 599 835 544 l 1056 901 l 1203 901 l 974 564 q 919 505 947 525 q 857 472 890 485 q 986 407 931 453 q 1083 282 1042 361 l 1231 0 m 442 1049 l 442 1179 l 567 1179 l 567 1049 l 442 1049 m 678 1049 l 678 1179 l 803 1179 l 803 1049 l 678 1049 z "},"Ӟ":{"ha":806,"x_min":75,"x_max":694,"o":"m 365 -14 q 75 13 221 -14 l 75 115 q 351 81 240 81 q 510 102 456 81 q 564 185 564 124 l 564 336 q 378 422 564 422 l 190 422 l 190 508 l 354 508 q 542 597 542 508 l 542 749 q 361 821 542 821 q 199 814 313 821 l 93 806 l 93 900 q 360 911 274 911 q 592 876 517 911 q 668 760 668 842 l 668 592 q 633 520 668 549 q 544 483 599 492 l 544 478 q 599 466 578 472 q 646 447 621 460 q 694 360 694 422 l 694 179 q 607 28 694 71 q 365 -14 519 -14 m 194 1049 l 194 1179 l 319 1179 l 319 1049 l 194 1049 m 431 1049 l 431 1179 l 556 1179 l 556 1049 l 431 1049 z "},"Ӣ":{"ha":1004,"x_min":118,"x_max":875,"o":"m 118 0 l 118 901 l 242 901 l 242 171 l 751 901 l 875 901 l 875 0 l 751 0 l 751 743 l 242 0 l 118 0 m 282 1069 l 282 1151 l 682 1151 l 682 1069 l 282 1069 z "},"Ӥ":{"ha":1004,"x_min":118,"x_max":875,"o":"m 118 0 l 118 901 l 242 901 l 242 171 l 751 901 l 875 901 l 875 0 l 751 0 l 751 743 l 242 0 l 118 0 m 308 1049 l 308 1179 l 433 1179 l 433 1049 l 308 1049 m 544 1049 l 544 1179 l 669 1179 l 669 1049 l 544 1049 z "},"Ӧ":{"ha":943,"x_min":92,"x_max":851,"o":"m 469 -14 q 92 231 92 -14 l 92 657 q 469 915 92 915 q 851 658 851 915 l 851 231 q 746 43 851 100 q 469 -14 640 -14 m 472 76 q 721 232 721 76 l 721 661 q 471 828 721 828 q 285 790 350 828 q 221 661 221 753 l 221 232 q 472 76 221 76 m 292 1049 l 292 1179 l 417 1179 l 417 1049 l 292 1049 m 528 1049 l 528 1179 l 653 1179 l 653 1049 l 528 1049 z "},"Ө":{"ha":943,"x_min":92,"x_max":851,"o":"m 469 915 q 851 658 851 915 l 851 231 q 746 43 851 100 q 469 -14 640 -14 q 92 231 92 -14 l 92 657 q 469 915 92 915 m 471 828 q 285 790 350 828 q 221 661 221 753 l 221 513 l 721 513 l 721 661 q 471 828 721 828 m 472 76 q 721 232 721 76 l 721 418 l 221 418 l 221 232 q 472 76 221 76 z "},"Ӯ":{"ha":756,"x_min":0,"x_max":797,"o":"m 797 901 l 450 160 q 396 61 421 97 q 336 6 371 25 q 250 -14 301 -14 q 133 0 194 -14 l 133 97 q 218 88 174 88 q 290 115 264 88 q 346 204 317 142 l 361 239 l 0 901 l 150 901 l 422 372 l 664 901 l 797 901 m 200 1069 l 200 1151 l 600 1151 l 600 1069 l 200 1069 z "},"Ӱ":{"ha":756,"x_min":0,"x_max":797,"o":"m 797 901 l 450 160 q 396 61 421 97 q 336 6 371 25 q 250 -14 301 -14 q 133 0 194 -14 l 133 97 q 218 88 174 88 q 290 115 264 88 q 346 204 317 142 l 361 239 l 0 901 l 150 901 l 422 372 l 664 901 l 797 901 m 226 1049 l 226 1179 l 351 1179 l 351 1049 l 226 1049 m 463 1049 l 463 1179 l 588 1179 l 588 1049 l 463 1049 z "},"Ӳ":{"ha":756,"x_min":0,"x_max":797,"o":"m 797 901 l 450 160 q 396 61 421 97 q 336 6 371 25 q 250 -14 301 -14 q 133 0 194 -14 l 133 97 q 218 88 174 88 q 290 115 264 88 q 346 204 317 142 l 361 239 l 0 901 l 150 901 l 422 372 l 664 901 l 797 901 m 244 1017 l 342 1194 l 447 1194 l 350 1017 l 244 1017 m 421 1017 l 518 1194 l 624 1194 l 526 1017 l 421 1017 z "},"Ӵ":{"ha":847,"x_min":96,"x_max":731,"o":"m 731 901 l 731 0 l 596 0 l 596 346 q 360 290 488 290 q 158 347 219 290 q 96 517 96 403 l 96 901 l 229 901 l 229 528 q 269 417 229 450 q 392 385 308 385 q 505 399 457 385 q 596 440 553 413 l 596 901 l 731 901 m 243 1049 l 243 1179 l 368 1179 l 368 1049 l 243 1049 m 479 1049 l 479 1179 l 604 1179 l 604 1049 l 479 1049 z "},"Ӷ":{"ha":708,"x_min":117,"x_max":667,"o":"m 667 807 l 251 807 l 251 94 l 349 94 l 349 -189 l 232 -189 l 232 0 l 117 0 l 117 901 l 667 901 l 667 807 z "},"Ӹ":{"ha":1092,"x_min":117,"x_max":975,"o":"m 117 901 l 251 901 l 251 568 l 358 568 q 542 556 471 568 q 658 504 614 544 q 701 385 701 464 l 701 196 q 383 0 701 0 l 117 0 l 117 901 m 840 0 l 840 901 l 975 901 l 975 0 l 840 0 m 374 92 q 520 115 471 92 q 569 201 569 139 l 569 369 q 551 436 569 414 q 492 467 533 458 q 376 476 451 476 l 250 476 l 250 92 l 374 92 m 365 1049 l 365 1179 l 490 1179 l 490 1049 l 365 1049 m 601 1049 l 601 1179 l 726 1179 l 726 1049 l 601 1049 z "},"Ԛ":{"ha":939,"x_min":89,"x_max":947,"o":"m 468 0 q 89 244 89 0 l 89 657 q 468 915 89 915 q 849 658 849 915 l 849 286 q 725 76 849 158 l 947 76 l 947 0 l 468 0 m 471 90 q 719 246 719 90 l 719 661 q 469 828 719 828 q 374 822 414 828 q 297 799 333 815 q 218 661 218 761 l 218 246 q 471 90 218 90 z "},"Ԝ":{"ha":1344,"x_min":11,"x_max":1333,"o":"m 293 0 l 11 901 l 154 901 l 378 128 l 381 128 l 604 901 l 747 901 l 971 128 l 974 128 l 1197 901 l 1333 901 l 1043 0 l 886 0 l 671 750 l 450 0 l 293 0 z "},"а":{"ha":747,"x_min":69,"x_max":639,"o":"m 315 -14 q 167 4 219 -14 q 92 68 115 22 q 69 200 69 114 q 91 319 69 276 q 165 379 113 361 q 313 397 217 397 l 514 397 l 514 504 q 499 562 514 542 q 451 590 485 582 q 351 599 417 599 q 121 582 247 599 l 121 674 q 369 686 258 686 q 542 669 486 686 q 618 608 597 651 q 639 475 639 565 l 639 0 l 518 0 l 518 64 q 315 -14 503 -14 m 336 68 q 451 78 404 68 q 514 136 514 90 l 514 319 l 321 319 q 235 310 261 319 q 200 276 208 301 q 192 196 192 251 q 201 119 192 146 q 236 80 211 92 q 311 68 261 68 l 336 68 z "},"б":{"ha":789,"x_min":99,"x_max":707,"o":"m 401 -14 q 213 10 276 -14 q 124 92 149 33 q 99 267 99 151 l 99 538 q 185 776 99 685 q 456 913 272 867 q 679 983 604 954 l 679 865 q 421 786 572 826 q 289 746 336 769 q 223 690 242 722 q 206 608 204 657 l 206 521 q 297 606 238 582 q 451 631 357 631 q 645 577 583 631 q 707 417 707 524 l 707 217 q 674 76 707 126 q 574 6 640 26 q 401 -14 508 -14 m 404 68 q 515 78 478 68 q 567 119 551 89 q 583 210 583 149 l 583 415 q 569 488 583 463 q 521 525 556 514 q 422 536 486 536 q 271 508 324 536 q 219 428 218 481 l 222 210 q 240 119 224 149 q 293 78 256 89 q 404 68 331 68 z "},"в":{"ha":796,"x_min":117,"x_max":713,"o":"m 117 672 l 411 672 q 556 662 501 672 q 635 626 610 651 q 665 578 658 603 q 672 508 672 553 l 672 485 q 644 404 672 431 q 551 364 617 378 l 551 358 q 713 218 713 331 l 713 178 q 685 72 713 110 q 596 17 658 33 q 421 0 533 0 l 117 0 l 117 672 m 422 389 q 506 398 478 389 q 543 427 533 407 q 553 489 553 447 l 553 497 q 542 553 553 535 q 503 578 532 571 q 418 586 475 586 l 242 586 l 242 389 l 422 389 m 428 90 q 526 99 493 90 q 572 126 560 107 q 585 182 585 144 l 585 226 q 556 285 585 261 q 435 307 525 307 l 242 307 l 242 90 l 428 90 z "},"г":{"ha":583,"x_min":117,"x_max":556,"o":"m 117 0 l 117 672 l 556 672 l 556 581 l 242 581 l 242 0 l 117 0 z "},"ѓ":{"ha":583,"x_min":117,"x_max":556,"o":"m 117 0 l 117 672 l 556 672 l 556 581 l 242 581 l 242 0 l 117 0 m 268 768 l 393 944 l 544 944 l 371 768 l 268 768 z "},"ґ":{"ha":611,"x_min":117,"x_max":556,"o":"m 117 0 l 117 672 l 458 672 l 458 800 l 556 800 l 556 581 l 242 581 l 242 0 l 117 0 z "},"д":{"ha":788,"x_min":14,"x_max":746,"o":"m 746 82 l 746 -186 l 639 -186 l 639 0 l 121 0 l 121 -186 l 14 -186 l 14 82 l 57 82 q 117 128 88 82 q 165 278 146 175 q 185 542 185 382 l 185 672 l 651 672 l 651 82 l 746 82 m 526 82 l 526 590 l 294 590 l 294 493 q 276 245 294 349 q 207 82 257 142 l 526 82 z "},"е":{"ha":743,"x_min":83,"x_max":661,"o":"m 392 -14 q 83 192 83 -14 l 83 457 q 153 633 83 579 q 381 686 224 686 q 595 635 529 686 q 661 457 661 583 l 661 308 l 210 308 l 210 207 q 258 107 210 138 q 408 76 307 76 q 635 110 504 76 l 635 14 q 392 -14 507 -14 m 536 390 l 536 496 q 499 580 536 557 q 374 603 463 603 q 249 580 288 603 q 210 496 210 557 l 210 390 l 536 390 z "},"ѐ":{"ha":743,"x_min":83,"x_max":661,"o":"m 392 -14 q 83 192 83 -14 l 83 457 q 153 633 83 579 q 381 686 224 686 q 595 635 529 686 q 661 457 661 583 l 661 308 l 210 308 l 210 207 q 258 107 210 138 q 408 76 307 76 q 635 110 504 76 l 635 14 q 392 -14 507 -14 m 536 390 l 536 496 q 499 580 536 557 q 374 603 463 603 q 249 580 288 603 q 210 496 210 557 l 210 390 l 536 390 m 329 768 l 156 944 l 307 944 l 432 768 l 329 768 z "},"ё":{"ha":743,"x_min":83,"x_max":661,"o":"m 392 -14 q 83 192 83 -14 l 83 457 q 153 633 83 579 q 381 686 224 686 q 595 635 529 686 q 661 457 661 583 l 661 308 l 210 308 l 210 207 q 258 107 210 138 q 408 76 307 76 q 635 110 504 76 l 635 14 q 392 -14 507 -14 m 536 390 l 536 496 q 499 580 536 557 q 374 603 463 603 q 249 580 288 603 q 210 496 210 557 l 210 390 l 536 390 m 206 785 l 206 915 l 331 915 l 331 785 l 206 785 m 442 785 l 442 915 l 567 915 l 567 785 l 442 785 z "},"ж":{"ha":1046,"x_min":-22,"x_max":1068,"o":"m 165 208 q 266 317 232 283 q 318 354 300 350 l 13 672 l 165 672 l 371 419 q 465 382 400 382 l 465 672 l 581 672 l 581 382 q 675 419 646 382 l 881 672 l 1033 672 l 728 354 q 780 317 746 350 q 881 208 814 283 l 1068 0 l 914 0 l 731 208 q 657 276 693 251 q 619 299 631 294 q 597 302 608 303 q 581 301 586 301 l 581 0 l 465 0 l 465 301 q 447 302 460 301 q 422 297 435 303 q 389 276 410 292 q 315 208 353 251 l 132 0 l -22 0 l 165 208 z "},"з":{"ha":657,"x_min":69,"x_max":574,"o":"m 258 -14 q 69 10 176 -14 l 69 108 q 258 78 174 78 q 399 99 354 78 q 443 182 443 121 l 443 225 q 398 294 443 276 q 271 311 353 311 l 194 311 l 194 397 l 247 397 q 376 417 332 397 q 421 486 421 436 l 421 528 q 254 600 421 600 q 83 583 167 600 l 83 674 q 253 686 163 686 q 419 675 360 686 q 513 633 479 664 q 547 535 547 603 l 547 481 q 515 408 547 436 q 431 371 482 379 l 431 365 q 574 242 574 343 l 574 172 q 555 88 574 125 q 506 32 536 51 q 401 -4 464 6 q 258 -14 338 -14 z "},"и":{"ha":817,"x_min":108,"x_max":708,"o":"m 590 672 l 708 672 l 708 0 l 583 0 l 583 496 l 233 0 l 108 0 l 108 672 l 233 672 l 233 160 l 590 672 z "},"й":{"ha":817,"x_min":108,"x_max":708,"o":"m 590 672 l 708 672 l 708 0 l 583 0 l 583 496 l 233 0 l 108 0 l 108 672 l 233 672 l 233 160 l 590 672 m 408 768 q 261 816 315 768 q 203 944 207 864 l 306 944 q 408 836 315 836 q 511 944 500 836 l 614 944 q 556 817 611 865 q 408 768 501 768 z "},"ѝ":{"ha":817,"x_min":108,"x_max":708,"o":"m 590 672 l 708 672 l 708 0 l 583 0 l 583 496 l 233 0 l 108 0 l 108 672 l 233 672 l 233 160 l 590 672 m 351 768 l 178 944 l 329 944 l 454 768 l 351 768 z "},"к":{"ha":697,"x_min":107,"x_max":719,"o":"m 107 672 l 232 672 l 232 382 q 266 391 253 382 q 299 419 279 400 l 532 672 l 685 672 l 379 354 q 431 317 397 350 q 532 208 465 283 l 719 0 l 565 0 l 382 208 q 308 276 344 251 q 269 298 281 294 q 247 301 258 301 q 232 301 236 301 l 232 0 l 107 0 l 107 672 z "},"ќ":{"ha":697,"x_min":107,"x_max":719,"o":"m 107 672 l 232 672 l 232 382 q 266 391 253 382 q 299 419 279 400 l 532 672 l 685 672 l 379 354 q 431 317 397 350 q 532 208 465 283 l 719 0 l 565 0 l 382 208 q 308 276 344 251 q 269 298 281 294 q 247 301 258 301 q 232 301 236 301 l 232 0 l 107 0 l 107 672 m 293 768 l 418 944 l 569 944 l 396 768 l 293 768 z "},"л":{"ha":776,"x_min":42,"x_max":668,"o":"m 82 -1 q 42 3 61 -1 l 42 110 q 81 106 61 106 q 176 192 140 106 q 211 514 211 279 l 211 672 l 668 672 l 668 0 l 543 0 l 543 590 l 322 590 l 322 493 q 268 131 322 264 q 82 -1 214 -1 z "},"м":{"ha":1029,"x_min":117,"x_max":913,"o":"m 117 0 l 117 672 l 318 672 l 522 125 l 528 125 l 718 672 l 913 672 l 913 0 l 797 0 l 797 558 l 790 558 l 583 0 l 457 0 l 242 558 l 235 558 l 235 0 l 117 0 z "},"н":{"ha":797,"x_min":108,"x_max":689,"o":"m 108 0 l 108 672 l 233 672 l 233 393 l 564 393 l 564 672 l 689 672 l 689 0 l 564 0 l 564 301 l 233 301 l 233 0 l 108 0 z "},"о":{"ha":789,"x_min":83,"x_max":703,"o":"m 393 -14 q 260 -8 304 -14 q 171 19 215 -1 q 104 87 125 40 q 83 213 83 133 l 83 446 q 99 556 83 508 q 139 629 114 603 q 202 666 160 653 q 289 683 244 679 q 393 686 339 686 q 502 683 465 686 q 581 668 539 679 q 647 631 624 656 q 688 558 671 606 q 703 446 703 510 l 703 213 q 649 40 703 94 q 585 6 626 18 q 499 -11 543 -7 q 393 -14 446 -14 m 393 68 q 478 71 451 68 q 529 86 504 74 q 565 123 554 97 q 575 194 575 149 l 575 467 q 560 558 575 529 q 508 595 544 586 q 393 604 471 604 q 278 595 315 604 q 226 558 242 586 q 211 467 211 529 l 211 194 q 222 123 211 149 q 257 86 232 97 q 308 71 282 74 q 393 68 335 68 z "},"п":{"ha":801,"x_min":117,"x_max":685,"o":"m 117 0 l 117 672 l 685 672 l 685 0 l 560 0 l 560 581 l 242 581 l 242 0 l 117 0 z "},"р":{"ha":804,"x_min":108,"x_max":721,"o":"m 108 672 l 233 672 l 233 600 q 463 686 249 686 q 656 633 590 686 q 721 496 721 579 l 721 219 q 703 115 721 160 q 658 46 686 71 q 590 8 633 22 q 503 -10 546 -6 q 408 -14 464 -14 q 297 1 347 -14 q 233 43 246 15 l 233 -275 l 108 -275 l 108 672 m 411 71 q 522 81 483 71 q 576 119 560 92 q 593 204 593 147 l 593 451 q 576 544 593 514 q 522 585 560 575 q 410 596 483 596 q 298 585 336 596 q 243 544 260 575 q 226 451 226 514 l 226 204 q 244 120 226 149 q 300 81 261 92 q 411 71 339 71 z "},"с":{"ha":644,"x_min":83,"x_max":594,"o":"m 379 -14 q 278 -11 310 -14 q 207 3 247 -8 q 140 36 164 14 q 100 101 117 58 q 83 206 83 143 l 83 453 q 126 614 83 565 q 174 656 150 642 q 238 676 199 671 q 307 684 276 682 q 393 686 338 686 q 585 665 489 686 l 585 574 q 378 601 474 601 q 272 591 306 601 q 224 553 238 581 q 211 471 211 526 l 211 196 q 226 119 211 144 q 278 84 240 94 q 392 74 317 74 q 594 100 493 74 l 594 6 q 379 -14 500 -14 z "},"т":{"ha":679,"x_min":42,"x_max":638,"o":"m 278 0 l 278 581 l 42 581 l 42 672 l 638 672 l 638 581 l 403 581 l 403 0 l 278 0 z "},"у":{"ha":639,"x_min":8,"x_max":631,"o":"m 163 -289 l 268 -10 l 8 672 l 144 672 l 332 124 l 335 124 l 504 672 l 631 672 l 293 -289 l 163 -289 z "},"ў":{"ha":639,"x_min":8,"x_max":631,"o":"m 163 -289 l 268 -10 l 8 672 l 144 672 l 332 124 l 335 124 l 504 672 l 631 672 l 293 -289 l 163 -289 m 329 768 q 182 816 236 768 q 124 944 128 864 l 226 944 q 329 836 236 836 q 432 944 421 836 l 535 944 q 477 817 532 865 q 329 768 422 768 z "},"ф":{"ha":997,"x_min":83,"x_max":911,"o":"m 560 672 q 770 655 697 672 q 877 586 843 638 q 911 432 911 535 l 911 226 q 878 83 911 131 q 772 17 846 35 q 560 0 699 0 l 560 -275 l 435 -275 l 435 0 q 222 17 296 0 q 116 83 149 35 q 83 226 83 131 l 83 432 q 117 586 83 535 q 224 655 151 638 q 435 672 297 672 l 435 963 l 560 963 l 560 672 m 435 590 q 291 581 336 590 q 228 544 246 572 q 211 453 211 517 l 211 208 q 229 126 211 151 q 293 91 247 100 q 435 82 339 82 l 435 590 m 783 453 q 766 544 783 517 q 703 581 749 572 q 560 590 658 590 l 560 82 q 701 91 656 82 q 765 126 747 100 q 783 208 783 151 l 783 453 z "},"х":{"ha":721,"x_min":14,"x_max":707,"o":"m 14 0 l 278 346 l 28 672 l 179 672 l 360 426 l 542 672 l 693 672 l 429 346 l 707 0 l 556 0 l 360 265 l 165 0 l 14 0 z "},"ч":{"ha":796,"x_min":108,"x_max":688,"o":"m 563 303 q 342 207 544 207 q 160 253 213 207 q 108 400 108 300 l 108 672 l 233 672 l 233 408 q 267 321 233 344 q 378 297 300 297 q 494 308 454 297 q 548 342 533 318 q 563 408 563 365 l 563 672 l 688 672 l 688 0 l 563 0 l 563 303 z "},"ц":{"ha":835,"x_min":117,"x_max":793,"o":"m 686 -172 l 686 0 l 117 0 l 117 672 l 242 672 l 242 92 l 574 92 l 574 672 l 699 672 l 699 92 l 793 92 l 793 -172 l 686 -172 z "},"ш":{"ha":1135,"x_min":117,"x_max":1018,"o":"m 117 0 l 117 672 l 242 672 l 242 92 l 504 92 l 504 672 l 631 672 l 631 92 l 893 92 l 893 672 l 1018 672 l 1018 0 l 117 0 z "},"щ":{"ha":1154,"x_min":117,"x_max":1113,"o":"m 992 -186 l 992 0 l 117 0 l 117 672 l 242 672 l 242 92 l 504 92 l 504 672 l 631 672 l 631 92 l 893 92 l 893 672 l 1018 672 l 1018 92 l 1113 92 l 1113 -186 l 992 -186 z "},"џ":{"ha":857,"x_min":117,"x_max":740,"o":"m 371 -186 l 371 0 l 117 0 l 117 672 l 242 672 l 242 92 l 615 92 l 615 672 l 740 672 l 740 0 l 492 0 l 492 -186 l 371 -186 z "},"ь":{"ha":682,"x_min":108,"x_max":640,"o":"m 108 672 l 233 672 l 233 429 l 406 429 q 542 417 492 429 q 617 373 593 404 q 640 285 640 342 l 640 146 q 394 0 640 0 l 108 0 l 108 672 m 386 81 q 469 92 426 81 q 518 163 518 104 l 518 247 q 508 308 518 288 q 470 338 497 329 q 389 346 443 346 l 232 346 l 232 81 l 386 81 z "},"ъ":{"ha":785,"x_min":42,"x_max":743,"o":"m 236 581 l 42 581 l 42 672 l 364 672 l 364 429 l 508 429 q 645 417 594 429 q 719 373 696 404 q 743 285 743 342 l 743 146 q 497 0 743 0 l 236 0 l 236 581 m 489 81 q 572 92 529 81 q 621 163 621 104 l 621 247 q 610 308 621 288 q 573 338 600 329 q 492 346 546 346 l 363 346 l 363 81 l 489 81 z "},"ы":{"ha":942,"x_min":108,"x_max":833,"o":"m 108 672 l 236 672 l 236 429 l 367 429 q 503 417 453 429 q 578 373 554 404 q 601 285 601 342 l 601 146 q 356 0 601 0 l 108 0 l 108 672 m 708 0 l 708 672 l 833 672 l 833 0 l 708 0 m 347 81 q 431 92 388 81 q 479 163 479 104 l 479 247 q 469 308 479 288 q 431 338 458 329 q 350 346 404 346 l 235 346 l 235 81 l 347 81 z "},"љ":{"ha":1047,"x_min":42,"x_max":1006,"o":"m 42 107 l 83 107 q 172 218 135 107 q 210 597 210 329 l 210 672 l 640 672 l 640 429 l 771 429 q 908 417 857 429 q 982 373 958 404 q 1006 285 1006 342 l 1006 146 q 760 0 1006 0 l 515 0 l 515 590 l 326 590 l 326 549 q 274 142 326 283 q 96 0 221 0 l 42 0 l 42 107 m 751 81 q 835 92 792 81 q 883 163 883 104 l 883 247 q 873 308 883 288 q 835 338 863 329 q 754 346 808 346 l 640 346 l 640 81 l 751 81 z "},"њ":{"ha":1078,"x_min":108,"x_max":1036,"o":"m 108 672 l 233 672 l 233 429 l 543 429 l 543 672 l 671 672 l 671 429 l 801 429 q 938 417 888 429 q 1013 373 989 404 q 1036 285 1036 342 l 1036 146 q 790 0 1036 0 l 543 0 l 543 346 l 233 346 l 233 0 l 108 0 l 108 672 m 782 81 q 882 99 850 81 q 914 163 914 117 l 914 247 q 903 308 914 288 q 866 338 893 329 q 785 346 839 346 l 669 346 l 669 81 l 782 81 z "},"ѕ":{"ha":671,"x_min":69,"x_max":607,"o":"m 314 -14 q 83 3 207 -14 l 83 99 q 317 72 246 72 q 444 90 406 72 q 483 154 483 107 l 483 222 q 454 283 483 265 q 360 301 425 301 l 283 301 q 124 344 179 301 q 69 465 69 388 l 69 528 q 369 686 69 686 q 574 675 392 686 l 574 585 q 364 604 450 604 q 229 585 265 604 q 193 519 193 565 l 193 463 q 317 394 193 394 l 394 394 q 607 236 607 394 l 607 178 q 535 30 607 74 q 314 -14 463 -14 z "},"є":{"ha":644,"x_min":83,"x_max":594,"o":"m 379 -14 q 278 -11 310 -14 q 207 3 247 -8 q 140 36 164 14 q 100 101 117 58 q 83 206 83 143 l 83 453 q 126 614 83 565 q 174 656 150 642 q 238 676 199 671 q 307 684 276 682 q 393 686 338 686 q 585 665 489 686 l 585 574 q 378 601 474 601 q 269 592 303 601 q 223 557 235 583 q 211 471 211 531 l 211 389 l 550 389 l 550 294 l 211 294 l 211 193 q 226 117 211 142 q 278 83 240 93 q 392 74 315 74 q 594 100 493 74 l 594 6 q 379 -14 500 -14 z "},"э":{"ha":644,"x_min":50,"x_max":561,"o":"m 265 -14 q 50 6 144 -14 l 50 100 q 253 74 151 74 q 367 83 329 74 q 419 117 404 93 q 433 193 433 142 l 433 294 l 178 294 l 178 389 l 433 389 l 433 471 q 422 557 433 531 q 376 592 410 583 q 267 601 342 601 q 60 574 171 601 l 60 665 q 251 686 156 686 q 338 684 307 686 q 408 676 368 682 q 470 656 446 671 q 518 614 494 642 q 561 453 561 565 l 561 206 q 546 103 561 146 q 506 36 531 60 q 442 4 485 17 q 361 -11 400 -8 q 265 -14 314 -14 z "},"і":{"ha":342,"x_min":108,"x_max":233,"o":"m 108 785 l 108 915 l 233 915 l 233 785 l 108 785 m 108 0 l 108 672 l 233 672 l 233 0 l 108 0 z "},"ї":{"ha":342,"x_min":-7,"x_max":354,"o":"m -7 785 l -7 915 l 118 915 l 118 785 l -7 785 m 229 785 l 229 915 l 354 915 l 354 785 l 229 785 m 110 0 l 110 672 l 235 672 l 235 0 l 110 0 z "},"ј":{"ha":343,"x_min":-60,"x_max":235,"o":"m 110 785 l 110 915 l 235 915 l 235 785 l 110 785 m 11 -306 q -60 -300 -28 -306 l -60 -218 q -7 -224 -31 -224 q 82 -199 54 -224 q 110 -111 110 -175 l 110 672 l 235 672 l 235 -101 q 182 -260 235 -214 q 11 -306 129 -306 z "},"ћ":{"ha":811,"x_min":0,"x_max":703,"o":"m 124 754 l 0 754 l 0 826 l 124 826 l 124 972 l 249 972 l 249 826 l 499 826 l 499 754 l 249 754 l 249 535 q 469 631 268 631 q 651 584 599 631 q 703 438 703 538 l 703 0 l 578 0 l 578 429 q 574 472 578 456 q 557 506 569 489 q 433 540 529 540 q 317 530 357 540 q 263 496 278 519 q 249 429 249 472 l 249 0 l 124 0 l 124 754 z "},"ю":{"ha":1122,"x_min":117,"x_max":1036,"o":"m 726 -14 q 593 -8 638 -14 q 504 19 549 -1 q 438 87 458 40 q 417 213 417 133 l 417 293 l 242 293 l 242 0 l 117 0 l 117 672 l 242 672 l 242 369 l 417 369 l 417 446 q 432 556 417 508 q 472 629 447 603 q 535 666 493 653 q 622 683 578 679 q 726 686 672 686 q 835 683 799 686 q 914 668 872 679 q 981 631 957 656 q 1021 558 1004 606 q 1036 446 1036 510 l 1036 213 q 982 40 1036 94 q 918 6 960 18 q 832 -11 876 -7 q 726 -14 779 -14 m 726 68 q 811 71 785 68 q 863 86 838 74 q 898 123 888 97 q 908 194 908 149 l 908 467 q 893 558 908 529 q 841 595 878 586 q 726 604 804 604 q 612 595 649 604 q 560 558 575 586 q 544 467 544 529 l 544 194 q 555 123 544 149 q 590 86 565 97 q 642 71 615 74 q 726 68 668 68 z "},"я":{"ha":758,"x_min":42,"x_max":650,"o":"m 650 672 l 650 0 l 525 0 l 525 242 l 378 242 l 207 0 l 42 0 l 247 265 q 133 317 168 278 q 97 426 97 357 l 97 499 q 117 607 97 571 q 186 658 138 643 q 331 672 235 672 l 650 672 m 525 586 l 343 586 q 267 578 292 586 q 233 549 242 569 q 224 488 224 528 l 224 440 q 249 357 224 386 q 328 328 275 328 l 525 328 l 525 586 z "},"ђ":{"ha":753,"x_min":0,"x_max":704,"o":"m 424 -107 q 527 1 494 -58 q 569 135 560 60 q 578 346 578 210 q 541 492 578 443 q 424 540 504 540 q 303 513 357 540 q 249 429 249 485 l 249 0 l 124 0 l 124 754 l 0 754 l 0 826 l 124 826 l 124 972 l 249 972 l 249 826 l 526 826 l 526 754 l 249 754 l 249 535 q 315 606 258 581 q 456 631 371 631 q 640 565 576 631 q 704 382 704 500 q 692 129 704 224 q 625 -47 679 35 q 454 -179 571 -128 l 424 -107 z "},"ѣ":{"ha":735,"x_min":0,"x_max":693,"o":"m 458 429 q 595 417 544 429 q 669 373 646 404 q 693 285 693 342 l 693 146 q 447 0 693 0 l 158 0 l 158 581 l 0 581 l 0 672 l 158 672 l 158 901 l 286 901 l 286 672 l 494 672 l 494 581 l 286 581 l 286 429 l 458 429 m 571 247 q 560 308 571 288 q 523 338 550 329 q 442 346 496 346 l 285 346 l 285 81 l 439 81 q 522 92 479 81 q 571 163 571 104 l 571 247 z "},"ѫ":{"ha":1046,"x_min":-22,"x_max":1068,"o":"m 1068 0 l 914 0 l 731 208 q 657 276 693 251 q 619 299 631 294 q 597 302 608 303 q 581 301 586 301 l 581 0 l 465 0 l 465 301 q 447 302 460 301 q 422 297 435 303 q 389 276 410 292 q 315 208 353 251 l 132 0 l -22 0 l 165 208 q 251 300 225 274 q 308 347 276 326 q 381 375 339 367 l 111 672 l 922 672 l 657 376 q 735 349 701 368 q 796 301 768 329 q 881 208 824 274 l 1068 0 m 722 581 l 324 581 l 519 356 l 526 356 l 722 581 z "},"ѳ":{"ha":789,"x_min":83,"x_max":703,"o":"m 688 558 q 703 446 703 510 l 703 213 q 649 40 703 94 q 585 6 626 18 q 499 -11 543 -7 q 393 -14 446 -14 q 260 -8 304 -14 q 171 19 215 -1 q 104 87 125 40 q 83 213 83 133 l 83 446 q 99 556 83 508 q 139 629 114 603 q 202 666 160 653 q 289 683 244 679 q 393 686 339 686 q 502 683 465 686 q 581 668 539 679 q 647 631 624 656 q 688 558 671 606 m 393 604 q 278 595 315 604 q 226 558 242 586 q 211 467 211 529 l 211 393 l 575 393 l 575 467 q 560 558 575 529 q 508 595 544 586 q 393 604 471 604 m 529 86 q 565 123 554 97 q 575 194 575 149 l 575 301 l 211 301 l 211 194 q 222 123 211 149 q 257 86 232 97 q 308 71 282 74 q 393 68 335 68 q 478 71 451 68 q 529 86 504 74 z "},"ѵ":{"ha":699,"x_min":8,"x_max":713,"o":"m 8 672 l 128 672 l 274 269 q 315 135 296 206 l 358 263 l 463 549 q 524 653 489 619 q 621 686 560 686 q 666 681 646 686 q 713 663 686 675 l 694 593 q 647 601 669 601 q 593 583 615 601 q 556 524 571 564 l 357 0 l 264 0 l 8 672 z "},"ғ":{"ha":583,"x_min":32,"x_max":556,"o":"m 556 581 l 242 581 l 242 367 l 403 367 l 403 294 l 242 294 l 242 0 l 117 0 l 117 294 l 32 294 l 32 367 l 117 367 l 117 672 l 556 672 l 556 581 z "},"ҕ":{"ha":715,"x_min":108,"x_max":689,"o":"m 426 408 q 618 333 547 408 q 689 118 689 257 q 652 -59 689 26 q 536 -210 615 -144 q 335 -306 457 -276 l 304 -233 q 502 -110 442 -193 q 563 96 563 -26 q 394 318 563 318 q 278 291 324 318 q 233 207 233 264 l 233 0 l 108 0 l 108 672 l 547 672 l 547 581 l 233 581 l 233 313 q 297 383 242 358 q 426 408 351 408 z "},"җ":{"ha":1046,"x_min":-22,"x_max":1092,"o":"m 1092 92 l 1092 -172 l 985 -172 l 985 0 l 914 0 l 731 208 q 657 276 693 251 q 619 299 631 294 q 597 302 608 303 q 581 301 586 301 l 581 0 l 465 0 l 465 301 q 447 302 460 301 q 422 297 435 303 q 389 276 410 292 q 315 208 353 251 l 132 0 l -22 0 l 165 208 q 266 317 232 283 q 318 354 300 350 l 13 672 l 165 672 l 371 419 q 465 382 400 382 l 465 672 l 581 672 l 581 382 q 675 419 646 382 l 881 672 l 1033 672 l 728 354 q 780 317 746 350 q 881 208 814 283 l 986 92 l 1092 92 z "},"ҙ":{"ha":657,"x_min":69,"x_max":574,"o":"m 431 365 q 574 242 574 343 l 574 172 q 555 88 574 125 q 506 32 536 51 q 392 -6 465 7 q 411 -126 411 -79 q 373 -229 411 -190 q 269 -268 335 -268 q 129 -229 201 -268 l 129 -151 q 238 -182 185 -182 q 305 -154 279 -182 q 331 -83 331 -126 q 318 -12 331 -50 q 258 -14 297 -14 q 69 10 176 -14 l 69 108 q 258 78 174 78 q 399 99 354 78 q 443 182 443 121 l 443 225 q 398 294 443 276 q 271 311 353 311 l 194 311 l 194 397 l 247 397 q 376 417 332 397 q 421 486 421 436 l 421 528 q 254 600 421 600 q 83 583 167 600 l 83 674 q 253 686 163 686 q 419 675 360 686 q 513 633 479 664 q 547 535 547 603 l 547 481 q 515 408 547 436 q 431 371 482 379 l 431 365 z "},"қ":{"ha":771,"x_min":107,"x_max":743,"o":"m 743 92 l 743 -172 l 636 -172 l 636 0 l 565 0 l 382 208 q 308 276 344 251 q 269 298 281 294 q 247 301 258 301 q 232 301 236 301 l 232 0 l 107 0 l 107 672 l 232 672 l 232 382 q 266 391 253 382 q 299 419 279 400 l 532 672 l 685 672 l 379 354 q 431 317 397 350 q 532 208 465 283 l 638 92 l 743 92 z "},"ҝ":{"ha":697,"x_min":107,"x_max":761,"o":"m 761 0 l 607 0 l 424 208 q 353 275 390 249 l 353 124 l 288 124 l 288 300 q 254 302 271 303 q 232 301 238 301 l 232 0 l 107 0 l 107 672 l 232 672 l 232 382 q 288 392 254 382 l 288 549 l 353 549 l 353 433 l 574 672 l 726 672 l 421 354 q 473 317 439 350 q 574 208 507 283 l 761 0 z "},"ҡ":{"ha":840,"x_min":42,"x_max":863,"o":"m 250 581 l 42 581 l 42 672 l 375 672 l 375 382 q 409 391 396 382 q 442 419 422 400 l 675 672 l 828 672 l 522 354 q 574 317 540 350 q 675 208 608 283 l 863 0 l 708 0 l 525 208 q 451 276 488 251 q 413 298 424 294 q 390 301 401 301 q 375 301 379 301 l 375 0 l 250 0 l 250 581 z "},"ң":{"ha":797,"x_min":108,"x_max":783,"o":"m 689 92 l 783 92 l 783 -172 l 676 -172 l 676 0 l 564 0 l 564 301 l 233 301 l 233 0 l 108 0 l 108 672 l 233 672 l 233 393 l 564 393 l 564 672 l 689 672 l 689 92 z "},"ԥ":{"ha":801,"x_min":117,"x_max":779,"o":"m 685 92 l 779 92 l 779 -172 l 672 -172 l 672 0 l 560 0 l 560 581 l 242 581 l 242 0 l 117 0 l 117 672 l 685 672 l 685 92 z "}}}
